if (_typeface_js && _typeface_js.loadFace) _typeface_js.loadFace({"glyphs":{"S":{"x_min":-24.203125,"x_max":1553,"ha":1314,"o":"m 545 947 q 619 930 590 947 q 663 885 648 913 q 677 823 677 858 q 663 751 676 788 q 623 679 649 714 q 558 616 596 644 q 472 572 521 589 q 365 555 423 555 q 221 581 278 555 q 131 649 163 607 q 90 745 99 692 q 94 856 82 799 q 136 966 106 912 q 212 1062 166 1019 q 318 1130 258 1104 q 447 1156 377 1156 q 570 1142 513 1156 q 683 1109 627 1129 q 797 1067 739 1089 q 924 1025 856 1044 q 970 1172 937 1105 q 1053 1288 1003 1240 q 1168 1364 1102 1337 q 1315 1392 1234 1392 q 1432 1373 1384 1392 q 1509 1324 1481 1354 q 1547 1255 1538 1294 q 1549 1176 1557 1217 q 1515 1097 1541 1136 q 1449 1028 1490 1058 q 1353 979 1409 998 q 1228 961 1297 961 q 1088 968 1150 961 q 973 987 1025 974 q 979 873 972 931 q 1002 755 986 814 q 1040 638 1017 696 q 1092 526 1062 580 q 1141 419 1121 475 q 1174 303 1162 362 q 1190 182 1187 243 q 1187 61 1193 121 q 1268 130 1224 85 q 1367 245 1312 174 l 1375 240 q 1271 120 1317 167 q 1186 49 1225 74 q 1154 -87 1177 -20 q 1092 -213 1131 -154 q 997 -321 1053 -272 q 867 -407 941 -371 q 699 -463 792 -443 q 491 -483 605 -483 q 286 -455 374 -483 q 135 -380 197 -428 q 36 -270 73 -333 q -14 -137 0 -208 q -21 8 -28 -66 q 10 153 -15 82 q 78 286 35 224 q 178 396 121 349 q 308 471 236 444 q 461 499 379 499 q 556 489 514 499 q 629 461 597 479 q 682 419 660 444 q 716 367 703 395 q 732 308 728 339 q 732 245 736 277 q 812 212 776 233 q 879 165 848 190 q 937 115 910 140 q 990 70 963 90 q 1042 37 1016 50 q 1099 27 1068 25 q 1101 260 1119 140 q 1022 497 1083 380 q 965 627 988 562 q 930 757 942 693 q 915 882 917 821 q 921 1000 913 943 q 835 1030 874 1014 q 759 1062 795 1046 q 687 1093 722 1078 q 615 1119 652 1108 q 536 1138 578 1131 q 445 1145 494 1145 q 323 1120 378 1145 q 227 1055 268 1095 q 160 962 186 1014 q 124 857 133 911 q 125 752 115 803 q 164 659 134 700 q 245 594 193 619 q 372 570 296 570 q 464 585 421 570 q 541 627 507 601 q 599 687 575 653 q 638 755 624 720 q 654 823 652 790 q 646 883 657 857 q 610 925 635 909 q 545 941 585 941 l 545 947 m 494 -463 q 651 -446 577 -463 q 787 -398 724 -429 q 900 -324 849 -367 q 990 -227 951 -280 q 1056 -113 1030 -174 q 1096 14 1083 -52 q 1037 23 1065 11 q 983 55 1010 34 q 930 100 957 75 q 873 151 903 126 q 808 198 843 177 q 730 233 773 220 q 698 143 721 187 q 637 66 674 100 q 552 12 601 33 q 446 -8 504 -8 q 362 11 393 -8 q 324 61 332 31 q 332 125 316 91 q 386 189 347 159 q 488 239 425 219 q 636 259 550 259 q 673 257 656 259 q 708 252 691 255 q 704 336 714 295 q 665 410 694 378 q 585 463 635 443 q 461 483 535 483 q 327 456 389 483 q 213 384 265 430 q 124 278 162 339 q 63 150 86 218 q 33 10 40 82 q 39 -129 26 -61 q 84 -258 51 -197 q 173 -364 117 -319 q 308 -436 228 -410 q 494 -463 388 -463 m 1312 1377 q 1167 1348 1229 1377 q 1064 1271 1106 1320 q 1000 1155 1022 1222 q 973 1012 978 1089 q 1091 992 1028 1000 q 1230 985 1154 985 q 1341 1002 1291 985 q 1426 1046 1390 1018 q 1484 1109 1462 1073 q 1513 1181 1506 1144 q 1512 1253 1520 1217 q 1479 1315 1504 1288 q 1413 1360 1455 1343 q 1312 1377 1371 1377 m 452 18 q 545 36 502 18 q 620 86 587 55 q 675 157 653 117 q 706 239 697 197 q 672 245 690 243 q 636 247 655 247 q 505 230 560 247 q 415 187 450 213 q 367 132 381 161 q 358 77 353 103 q 387 35 363 51 q 452 18 411 18 "},"/":{"x_min":-141.671875,"x_max":559.484375,"ha":386,"o":"m 559 689 l -126 -229 l -141 -229 l 544 689 l 559 689 "},"K":{"x_min":17.578125,"x_max":2783.109375,"ha":1661,"o":"m 1013 -367 q 1089 -422 1048 -406 q 1174 -438 1130 -439 q 1267 -424 1219 -438 q 1366 -386 1315 -409 q 1469 -335 1416 -364 q 1574 -277 1521 -306 q 1547 -148 1555 -222 q 1547 21 1539 -75 q 1548 37 1547 29 q 1549 53 1548 45 q 1508 23 1529 37 q 1467 0 1487 9 q 1427 -16 1447 -10 q 1388 -21 1407 -21 q 1327 -10 1348 -21 q 1300 17 1306 1 q 1299 53 1293 33 q 1318 90 1305 73 q 1353 120 1332 107 q 1396 135 1373 132 q 1375 119 1382 132 q 1350 98 1362 111 q 1331 70 1338 85 q 1322 40 1323 55 q 1327 13 1320 25 q 1349 -6 1333 1 q 1392 -13 1365 -13 q 1429 -7 1410 -13 q 1468 9 1448 -1 q 1509 36 1489 21 q 1550 68 1530 51 q 1550 287 1557 198 q 1528 431 1544 375 q 1491 514 1513 487 q 1446 552 1470 542 q 1314 515 1390 574 l 1314 516 q 1176 384 1238 446 q 1068 272 1113 323 q 938 88 1007 174 q 785 -60 868 3 q 603 -160 702 -123 q 386 -196 504 -196 q 246 -177 308 -196 q 137 -123 183 -157 q 62 -43 91 -89 q 22 55 33 2 q 22 164 12 107 q 62 276 31 221 q 145 384 92 332 q 273 478 197 436 q 371 519 318 503 q 479 539 423 534 q 590 539 534 544 q 696 519 646 534 q 789 477 747 503 q 859 415 831 451 q 899 331 887 378 q 900 225 911 283 l 892 225 q 881 341 901 288 q 819 431 861 393 q 719 492 778 469 q 591 521 660 516 q 446 514 522 527 q 296 468 371 502 q 189 398 235 441 q 114 304 143 355 q 72 196 85 252 q 64 86 59 140 q 91 -17 69 31 q 153 -104 113 -66 q 251 -163 193 -141 q 387 -185 310 -185 q 561 -153 481 -185 q 711 -66 641 -122 q 842 65 781 -10 q 961 230 904 141 q 1070 416 1017 319 q 1175 613 1123 514 q 1281 807 1228 711 q 1393 989 1335 903 q 1357 987 1375 988 q 1320 987 1338 987 q 1157 974 1223 987 q 1051 941 1091 961 q 996 898 1012 921 q 984 856 981 875 q 1008 823 987 836 q 1060 810 1028 810 l 1056 807 q 1014 815 1033 807 q 983 837 995 823 q 969 868 972 850 q 976 903 966 885 q 1010 938 986 921 q 1076 969 1034 956 q 1178 991 1117 983 q 1323 1000 1239 1000 q 1363 1000 1343 1000 q 1402 1002 1383 1001 q 1514 1144 1456 1079 q 1638 1257 1572 1209 q 1779 1331 1704 1304 q 1940 1358 1854 1358 q 2023 1344 1995 1358 q 2056 1308 2052 1331 q 2044 1257 2061 1286 q 1990 1196 2027 1228 q 1900 1133 1954 1165 q 1779 1074 1847 1102 q 1631 1026 1712 1047 q 1462 995 1551 1004 q 1372 841 1416 922 q 1286 675 1329 759 q 1199 505 1243 591 q 1108 338 1155 419 q 1218 448 1157 389 q 1349 570 1279 507 q 1495 698 1418 633 q 1651 827 1571 763 q 1815 951 1732 891 q 1981 1065 1898 1012 q 2145 1163 2064 1119 q 2302 1240 2225 1208 q 2449 1291 2378 1273 q 2580 1309 2519 1309 q 2683 1297 2643 1309 q 2747 1264 2724 1285 q 2777 1218 2770 1244 q 2782 1163 2785 1192 q 2767 1105 2778 1135 q 2739 1051 2755 1076 q 2705 1004 2723 1025 q 2672 972 2687 984 l 2667 974 q 2720 1034 2696 1002 q 2755 1098 2743 1066 q 2765 1158 2767 1129 q 2743 1210 2763 1187 q 2680 1246 2722 1232 q 2570 1260 2638 1260 q 2439 1242 2509 1260 q 2294 1194 2369 1225 q 2137 1121 2218 1164 q 1975 1027 2057 1078 q 1812 918 1894 976 q 1651 799 1730 859 q 1498 675 1572 738 q 1356 553 1423 613 q 1378 564 1363 557 q 1413 576 1393 572 q 1456 578 1433 580 q 1501 561 1479 576 q 1544 517 1524 547 q 1580 435 1565 487 q 1602 307 1595 383 q 1607 122 1610 230 q 1655 174 1633 149 q 1694 221 1678 200 q 1730 266 1714 244 l 1737 257 q 1699 208 1720 234 q 1658 160 1682 187 q 1606 105 1634 133 q 1604 66 1605 86 q 1602 25 1603 46 q 1602 -130 1595 -62 q 1624 -251 1608 -198 q 1703 -211 1664 -230 q 1782 -178 1743 -192 q 1860 -155 1822 -163 q 1934 -147 1898 -147 q 2062 -163 2011 -147 q 2141 -203 2113 -178 q 2178 -260 2170 -228 q 2176 -324 2185 -291 q 2141 -389 2166 -357 q 2078 -445 2115 -421 q 2041 -463 2064 -454 q 1986 -480 2017 -473 q 1919 -492 1955 -488 q 1845 -494 1883 -496 q 1768 -479 1807 -491 q 1696 -445 1730 -468 q 1632 -387 1661 -422 q 1582 -299 1602 -351 q 1473 -354 1528 -326 q 1365 -402 1418 -381 q 1262 -437 1312 -424 q 1165 -449 1211 -450 q 1079 -431 1119 -448 q 1005 -374 1038 -414 q 965 -298 974 -336 q 961 -225 955 -260 q 986 -157 967 -189 q 1033 -100 1006 -125 q 1093 -57 1061 -75 q 1158 -33 1126 -40 q 1220 -33 1190 -27 q 1270 -59 1249 -38 l 1266 -62 q 1209 -40 1239 -43 q 1149 -46 1179 -37 q 1092 -76 1120 -56 q 1043 -123 1065 -96 q 1005 -182 1020 -150 q 984 -247 989 -214 q 985 -310 979 -279 q 1013 -367 991 -341 m 1928 -173 q 1861 -181 1896 -173 q 1788 -203 1826 -190 q 1711 -235 1751 -217 q 1631 -274 1671 -253 q 1677 -361 1650 -326 q 1736 -419 1704 -397 q 1803 -453 1768 -442 q 1873 -467 1839 -464 q 1941 -466 1908 -470 q 2001 -457 1974 -463 q 2048 -443 2029 -451 q 2077 -430 2068 -435 q 2129 -385 2107 -411 q 2160 -331 2151 -359 q 2164 -274 2170 -302 q 2132 -224 2158 -246 q 2055 -187 2105 -201 q 1928 -173 2006 -173 m 1950 1345 q 1805 1320 1872 1345 q 1679 1250 1738 1295 q 1569 1144 1621 1206 q 1470 1009 1517 1082 q 1675 1052 1581 1022 q 1840 1120 1769 1082 q 1957 1197 1911 1157 q 2020 1270 2004 1237 q 2020 1324 2036 1303 q 1950 1345 2004 1345 m 1423 110 q 1412 92 1421 100 q 1392 85 1403 85 q 1376 92 1382 85 q 1372 110 1370 100 q 1373 115 1372 112 q 1375 119 1374 117 q 1391 126 1382 123 q 1407 130 1399 130 q 1407 132 1407 131 q 1407 135 1407 134 q 1420 126 1415 133 q 1423 110 1424 120 m 1396 135 q 1399 135 1397 135 q 1402 136 1400 136 l 1404 136 q 1396 135 1401 136 m 1407 135 q 1405 135 1406 135 q 1404 136 1405 136 l 1407 136 l 1407 135 "},"7":{"x_min":-111.671875,"x_max":724.5,"ha":523,"o":"m 401 118 l 260 118 l -85 -208 l -111 -208 l 230 118 l 92 118 l 95 132 l 243 132 l 641 512 q 575 493 613 498 q 538 491 558 492 q 493 494 517 491 q 441 505 469 498 q 381 525 413 512 q 321 543 348 537 q 269 550 293 549 q 226 549 246 552 q 191 542 206 547 q 128 508 154 530 l 116 514 q 192 575 146 553 q 235 591 211 585 q 289 599 260 598 q 354 593 319 599 q 428 569 388 586 q 502 544 468 553 q 563 532 536 535 q 613 531 591 529 q 651 537 635 533 q 713 573 690 548 l 724 556 l 275 132 l 403 132 l 401 118 "},"d":{"x_min":-26.453125,"x_max":963.78125,"ha":334,"o":"m 221 48 q 237 52 227 45 q 259 70 247 58 q 284 98 271 82 q 310 132 297 114 q 373 226 340 172 l 378 217 q 305 111 337 153 q 247 45 273 69 q 199 10 221 20 q 153 1 176 1 q 136 11 140 1 q 133 37 131 21 q 142 74 135 54 q 156 112 148 93 q 118 66 137 87 q 80 31 98 46 q 43 8 61 16 q 11 0 26 0 q -17 15 -8 0 q -26 56 -27 30 q -15 118 -25 83 q 16 194 -4 154 q 63 269 37 234 q 116 331 89 305 q 168 372 142 357 q 213 388 193 388 q 247 361 240 388 q 245 290 255 334 q 483 727 375 540 q 679 1034 591 914 q 833 1207 766 1155 q 947 1239 900 1259 q 963 1213 965 1231 q 946 1168 962 1195 q 903 1110 930 1142 q 841 1041 875 1077 q 768 966 806 1004 q 691 889 729 927 q 619 815 653 851 q 557 748 584 779 q 478 611 517 680 q 402 473 439 541 q 333 342 366 405 q 272 224 300 279 q 234 142 249 179 q 222 110 227 125 q 215 82 217 95 q 213 60 212 69 q 221 48 215 51 m 51 29 q 73 37 60 29 q 103 61 87 46 q 136 98 119 76 q 170 144 153 119 q 176 157 173 151 q 182 168 180 164 q 187 177 184 174 q 197 197 192 187 q 207 217 202 207 q 218 243 212 230 q 231 270 224 256 q 240 334 242 310 q 223 359 237 359 q 197 345 212 359 q 165 310 182 332 q 130 258 148 288 q 93 194 111 227 q 63 129 76 159 q 44 77 50 99 q 39 42 38 55 q 51 29 41 29 m 940 1219 q 905 1216 926 1227 q 855 1178 883 1205 q 795 1110 828 1151 q 727 1017 763 1068 q 653 906 691 966 q 577 781 615 846 q 635 846 603 812 q 701 914 667 880 q 769 982 735 948 q 833 1048 803 1016 q 888 1108 863 1080 q 928 1158 913 1136 q 947 1196 943 1181 q 940 1219 951 1212 "},",":{"x_min":-64.453125,"x_max":71.34375,"ha":112,"o":"m 67 42 q 35 -17 56 10 q -7 -66 13 -45 q -43 -99 -28 -87 q -59 -111 -59 -111 q -61 -108 -59 -112 q -64 -102 -63 -104 q -14 -48 -33 -78 q 14 3 4 -19 q -5 15 0 3 q -3 43 -10 27 q 18 70 2 59 q 48 82 33 82 q 68 70 62 82 q 67 42 74 58 "},"Y":{"x_min":-145.21875,"x_max":1520.671875,"ha":1016,"o":"m 1520 1277 q 1256 800 1396 1038 q 1127 588 1196 699 q 983 365 1058 477 q 828 145 907 253 q 667 -58 748 36 q 747 -46 705 -59 q 838 2 789 -32 q 945 97 887 37 q 1072 247 1002 156 l 1077 239 q 946 81 1006 143 q 835 -16 886 19 q 739 -64 783 -51 q 655 -73 695 -76 q 513 -225 583 -156 q 373 -344 442 -294 q 240 -422 305 -394 q 115 -451 175 -451 q 1 -435 49 -451 q -78 -394 -46 -420 q -126 -334 -110 -368 q -144 -260 -142 -299 q -136 -180 -147 -221 q -104 -100 -126 -139 q -51 -26 -82 -61 q 20 33 -19 7 q 108 74 60 59 q 208 89 155 89 q 291 82 252 89 q 363 61 329 74 q 428 33 397 49 q 489 3 460 18 q 546 -25 518 -11 q 603 -48 575 -39 q 736 125 669 34 q 867 313 802 217 q 992 505 931 408 q 1109 693 1053 602 q 984 535 1047 608 q 857 410 921 463 q 728 328 792 357 q 601 298 664 298 q 455 317 508 298 q 380 371 402 336 q 362 452 358 405 q 388 555 366 499 q 276 528 335 536 q 154 529 218 521 q 45 569 88 538 q -23 645 1 599 q -52 747 -47 690 q -47 867 -57 805 q -10 995 -36 930 q 54 1121 15 1060 q 143 1236 93 1183 q 254 1330 194 1290 q 383 1393 315 1370 q 526 1417 452 1417 q 656 1406 602 1417 q 743 1375 709 1395 q 793 1326 777 1354 q 812 1262 810 1298 q 805 1187 815 1227 q 776 1102 795 1146 q 732 1010 757 1057 q 677 914 706 963 q 677 841 686 881 q 643 760 668 801 q 581 679 619 719 q 493 608 543 640 q 455 527 471 565 q 433 455 439 488 q 432 395 427 422 q 456 349 437 368 q 512 320 476 330 q 603 310 548 310 q 715 334 658 310 q 827 403 771 359 q 938 507 883 447 q 1048 639 993 568 q 1154 790 1102 710 q 1256 953 1206 870 q 1352 1117 1306 1035 q 1442 1277 1399 1200 l 1520 1277 m 627 966 q 581 989 608 981 q 516 998 553 998 l 516 1006 q 584 998 555 1006 q 633 976 613 990 q 697 1088 668 1033 q 740 1190 725 1142 q 755 1277 756 1237 q 731 1345 755 1317 q 659 1390 708 1374 q 529 1406 610 1406 q 394 1383 458 1406 q 273 1321 330 1360 q 170 1230 217 1282 q 87 1118 123 1177 q 26 996 51 1059 q -9 872 1 932 q -16 755 -20 811 q 6 656 -12 700 q 63 584 26 612 q 156 547 100 555 q 283 546 223 538 q 396 573 342 553 q 442 666 415 617 q 500 764 469 714 q 564 865 531 815 q 627 966 597 916 m 204 78 q 105 55 152 78 q 22 -2 59 33 q -41 -85 -15 -38 q -79 -179 -67 -131 q -87 -273 -91 -227 q -61 -356 -83 -320 q 4 -414 -38 -392 q 113 -436 47 -436 q 218 -408 162 -436 q 335 -330 273 -380 q 461 -211 396 -280 q 593 -60 527 -142 q 536 -36 565 -50 q 478 -7 508 -23 q 418 22 449 7 q 354 50 387 38 q 283 70 320 62 q 204 78 246 78 m 666 894 q 583 760 625 826 q 506 631 541 693 q 578 693 546 659 q 630 761 609 726 q 660 830 650 796 q 666 894 669 864 "},"E":{"x_min":14.625,"x_max":1538.6875,"ha":961,"o":"m 950 785 l 952 777 q 789 763 867 777 q 640 723 711 749 q 506 662 569 698 q 389 585 443 627 q 441 568 413 574 q 500 562 469 561 q 566 570 532 563 q 640 593 601 577 q 698 621 670 605 q 749 657 726 637 q 790 700 772 676 q 817 748 808 723 l 820 746 q 801 708 813 729 q 768 663 789 686 q 715 617 746 640 q 641 576 685 595 q 488 539 559 540 q 358 560 416 537 q 249 448 297 507 q 168 328 201 389 q 116 207 135 267 q 98 91 98 146 q 114 -10 97 36 q 167 -93 131 -58 q 259 -147 203 -127 q 392 -167 315 -167 q 570 -146 493 -167 q 702 -91 647 -125 q 791 -13 756 -57 q 842 75 826 29 q 765 46 807 57 q 674 35 723 35 q 605 48 634 35 q 556 85 575 62 q 530 136 538 107 q 526 195 522 165 q 544 254 529 225 q 586 305 559 283 q 651 342 612 328 q 740 356 689 356 q 812 337 779 356 q 867 289 844 319 q 902 219 890 258 q 912 135 914 179 q 949 169 933 152 q 977 198 966 185 q 1000 226 990 213 l 1011 218 q 985 186 1000 202 q 954 153 972 171 q 911 117 935 135 q 891 44 906 81 q 848 -26 876 7 q 779 -89 821 -60 q 681 -140 738 -119 q 551 -174 624 -162 q 387 -186 478 -186 q 215 -163 286 -185 q 98 -103 143 -141 q 33 -14 53 -65 q 14 94 13 36 q 37 217 16 153 q 98 345 59 281 q 190 470 136 409 q 311 584 244 531 q 235 655 265 612 q 191 746 204 697 q 186 850 178 796 q 223 954 193 903 q 308 1049 253 1004 q 447 1125 363 1093 q 515 1145 483 1138 q 576 1155 547 1153 q 632 1154 606 1157 q 683 1145 658 1152 q 756 1264 710 1207 q 869 1367 803 1322 q 1022 1439 936 1412 q 1213 1466 1108 1466 q 1350 1450 1292 1466 q 1447 1409 1408 1435 q 1509 1348 1487 1383 q 1536 1274 1530 1313 q 1532 1195 1542 1235 q 1500 1116 1522 1154 q 1441 1045 1477 1078 q 1359 988 1406 1012 q 1257 952 1313 964 q 1136 944 1200 940 q 1048 956 1088 947 q 976 980 1009 966 q 913 1010 942 993 q 858 1045 885 1027 q 805 1079 831 1062 q 751 1108 779 1095 q 735 1028 738 1068 q 738 952 732 988 q 759 886 743 917 q 802 833 775 855 q 865 798 828 811 q 950 785 902 785 m 1136 958 q 1250 978 1196 958 q 1348 1034 1305 999 q 1423 1113 1392 1069 q 1468 1203 1454 1157 q 1476 1294 1482 1249 q 1441 1373 1471 1338 q 1355 1429 1411 1408 q 1213 1450 1300 1450 q 1100 1437 1153 1450 q 1000 1401 1046 1424 q 915 1347 953 1378 q 845 1279 876 1315 q 791 1201 813 1242 q 755 1120 768 1161 q 813 1088 785 1105 q 870 1052 842 1070 q 928 1017 899 1034 q 990 987 958 1000 q 1059 966 1023 974 q 1136 958 1095 958 m 842 780 q 762 794 796 780 q 703 833 727 808 q 665 891 679 857 q 649 964 652 925 q 653 1047 646 1003 q 678 1134 660 1090 q 577 1139 633 1144 q 447 1109 521 1135 q 344 1050 386 1087 q 278 968 302 1013 q 247 872 254 922 q 249 773 240 821 q 283 682 258 725 q 346 611 308 640 q 456 679 398 648 q 577 733 515 711 q 706 767 640 755 q 842 780 772 780 m 735 336 q 638 315 678 336 q 576 260 598 293 q 548 190 553 228 q 556 119 543 152 q 601 65 570 87 q 681 44 632 44 q 770 57 728 44 q 847 91 812 70 q 859 182 861 137 q 842 260 857 226 q 799 315 827 295 q 735 336 771 336 "},"y":{"x_min":-319.796875,"x_max":395.59375,"ha":343,"o":"m 382 227 l 395 225 l -198 -744 q -230 -793 -213 -772 q -244 -812 -236 -803 q -260 -827 -252 -820 q -277 -838 -268 -834 q -294 -843 -286 -843 q -318 -824 -315 -843 q -313 -774 -322 -805 q -284 -701 -303 -743 q -241 -613 -265 -659 q -191 -518 -217 -567 q -141 -426 -165 -470 q -101 -351 -126 -397 q -46 -252 -76 -306 q 16 -136 -17 -197 q 83 -14 50 -76 q 150 105 117 46 q 211 215 183 164 q 150 138 183 176 q 87 68 117 99 q 31 19 56 38 q -8 0 5 0 q -35 15 -28 0 q -36 56 -41 30 q -17 117 -31 82 q 18 194 -2 153 q 61 271 40 236 q 100 332 82 306 q 139 388 120 362 l 211 388 q 166 323 188 356 q 126 260 147 295 q 90 194 106 226 q 59 132 73 162 q 35 81 44 103 q 23 46 26 59 q 28 33 21 33 q 46 44 33 33 q 79 75 60 56 q 121 120 98 95 q 167 174 144 146 q 211 229 190 201 q 249 282 233 257 q 273 325 262 305 q 292 359 284 344 q 308 389 301 375 l 384 389 q 332 300 364 355 q 260 178 300 246 q 174 32 220 110 q 82 -127 129 -45 q -10 -290 35 -209 q -97 -447 -56 -372 q -172 -586 -138 -521 q -228 -698 -206 -651 q -260 -773 -251 -746 q -261 -801 -269 -801 q -230 -766 -254 -801 q -166 -667 -206 -732 q -72 -512 -127 -603 q 51 -306 -17 -420 q 204 -57 121 -192 q 382 227 287 76 "},"\"":{"x_min":81.125,"x_max":267.25,"ha":149,"o":"m 143 513 l 195 513 l 94 344 l 81 344 l 143 513 m 216 513 l 267 513 l 166 344 l 153 344 l 216 513 "},"g":{"x_min":-445.859375,"x_max":366.703125,"ha":303,"o":"m 215 388 q 247 365 239 388 q 250 305 256 343 q 279 366 268 344 q 290 389 285 379 l 366 389 q 319 296 346 347 q 265 194 296 253 q 197 66 234 135 l 358 246 l 364 241 l 177 29 q 96 -119 139 -41 q 8 -274 53 -196 q -81 -427 -36 -352 q -169 -569 -126 -502 q -251 -692 -212 -636 q -324 -785 -291 -747 q -384 -841 -358 -823 q -427 -850 -411 -858 q -445 -817 -445 -841 q -431 -757 -446 -792 q -389 -677 -416 -722 q -325 -580 -362 -631 q -246 -471 -289 -528 q -156 -357 -202 -415 q -61 -241 -109 -299 q 31 -127 -13 -182 q 91 -11 62 -67 q 147 97 120 45 q 111 57 129 76 q 75 26 93 39 q 42 6 58 13 q 13 0 26 0 q -16 15 -6 0 q -24 56 -25 30 q -13 118 -23 83 q 18 194 -2 154 q 65 269 38 234 q 117 331 91 305 q 169 372 144 357 q 215 388 195 388 m -420 -829 q -383 -816 -407 -838 q -325 -748 -358 -794 q -251 -638 -291 -703 q -167 -497 -211 -574 q -78 -336 -123 -421 q 10 -168 -33 -252 q -76 -275 -32 -220 q -163 -383 -120 -329 q -244 -488 -205 -436 q -316 -586 -283 -539 q -374 -673 -349 -632 q -413 -745 -399 -713 q -430 -799 -428 -777 q -420 -829 -433 -820 m 53 29 q 74 36 61 29 q 101 58 86 44 q 133 92 116 72 q 166 135 150 111 q 202 207 185 173 q 233 271 218 242 q 242 334 244 310 q 225 359 240 359 q 199 345 214 359 q 167 310 184 332 q 131 258 150 288 q 95 194 113 227 q 65 129 77 159 q 46 77 52 99 q 41 42 40 55 q 53 29 42 29 "},"e":{"x_min":-19.453125,"x_max":349.46875,"ha":288,"o":"m 291 383 q 312 358 309 374 q 308 322 316 342 q 284 280 301 302 q 247 238 268 258 q 202 201 226 218 q 156 175 178 185 q 113 165 133 166 q 80 177 93 165 q 57 120 66 148 q 47 72 48 93 q 53 38 46 51 q 79 24 61 25 q 112 33 93 23 q 152 57 131 42 q 195 93 173 73 q 239 133 218 112 q 342 245 289 182 l 349 238 q 205 85 273 145 q 145 38 175 60 q 87 7 115 17 q 35 0 59 -2 q -3 28 12 4 q -19 80 -19 51 q -7 142 -19 110 q 24 208 3 175 q 72 271 45 241 q 128 326 98 301 q 188 367 158 351 q 244 388 217 383 q 291 383 271 393 m 259 376 q 221 367 243 381 q 176 326 200 352 q 129 264 152 299 q 88 193 106 229 q 113 178 97 178 q 145 186 128 177 q 181 212 162 196 q 216 248 200 228 q 245 289 232 268 q 265 328 258 310 q 271 359 272 346 q 259 376 271 372 "},"J":{"x_min":-180.171875,"x_max":2016.265625,"ha":1417,"o":"m 325 215 q 432 201 383 215 q 525 165 482 187 q 605 114 567 143 q 677 54 642 85 q 743 -7 711 23 q 808 -63 775 -37 q 874 -107 840 -88 q 945 -132 907 -126 q 1081 61 1013 -40 q 1216 268 1148 163 q 1350 481 1283 374 q 1484 690 1417 587 q 1618 887 1551 792 q 1752 1065 1685 982 q 1791 1102 1773 1084 q 1825 1137 1809 1120 l 1884 1208 q 1845 1166 1866 1188 q 1800 1120 1824 1143 q 1906 1231 1853 1181 q 2014 1320 1960 1282 l 2016 1308 q 1900 1191 1958 1259 q 1782 1041 1841 1123 q 1663 865 1723 959 q 1542 671 1604 772 q 1419 467 1481 571 q 1291 260 1356 363 q 1160 57 1227 157 q 1025 -132 1093 -41 q 1114 -98 1066 -123 q 1217 -27 1161 -73 q 1337 88 1272 18 q 1479 256 1402 158 l 1487 252 q 1338 71 1407 146 q 1211 -50 1270 -2 q 1102 -123 1152 -98 q 1008 -152 1052 -147 q 843 -346 927 -257 q 668 -500 758 -435 q 485 -601 579 -565 q 292 -638 391 -638 q 103 -614 185 -638 q -34 -549 22 -590 q -125 -453 -91 -508 q -172 -337 -159 -398 q -177 -211 -185 -276 q -143 -85 -169 -146 q -73 30 -117 -24 q 29 126 -30 85 q 163 191 89 167 q 325 215 238 215 m 296 -620 q 460 -584 380 -620 q 621 -486 541 -549 q 778 -337 700 -423 q 932 -149 856 -251 q 862 -123 896 -141 q 795 -79 828 -104 q 730 -24 762 -54 q 662 34 697 4 q 590 91 628 63 q 511 139 553 118 q 420 173 468 160 q 316 186 372 186 q 165 163 235 186 q 40 102 96 140 q -55 11 -15 63 q -120 -98 -96 -39 q -151 -217 -144 -156 q -145 -336 -157 -278 q -100 -446 -132 -394 q -13 -536 -67 -497 q 118 -597 41 -575 q 296 -620 195 -620 m 824 709 q 918 687 880 709 q 974 634 957 666 q 988 564 992 601 q 955 494 984 527 q 873 441 927 462 q 736 420 818 420 q 589 441 647 420 q 500 500 531 463 q 463 583 469 536 q 475 681 458 630 q 531 780 492 731 q 626 871 570 830 q 757 942 683 913 q 918 982 831 972 q 1028 982 978 986 q 1122 971 1078 979 q 1205 953 1166 963 q 1283 935 1245 943 q 1362 923 1322 927 q 1447 925 1402 920 q 1549 950 1500 931 q 1643 995 1599 969 q 1726 1055 1687 1022 q 1800 1120 1765 1087 q 1776 1093 1788 1107 q 1752 1065 1764 1079 q 1693 1015 1725 1039 q 1623 969 1661 990 q 1542 933 1586 948 q 1449 913 1499 918 q 1355 911 1400 907 q 1266 923 1310 915 q 1180 942 1223 932 q 1091 959 1137 952 q 994 968 1045 967 q 886 959 944 969 q 745 916 808 946 q 636 847 682 887 q 560 761 590 808 q 520 669 531 715 q 516 579 508 622 q 549 503 523 537 q 622 450 576 470 q 736 431 668 431 q 833 442 792 431 q 903 473 875 454 q 946 517 931 492 q 964 567 961 541 q 959 616 967 592 q 933 660 951 641 q 887 691 915 679 q 823 703 860 703 q 779 695 796 703 q 753 677 762 688 q 742 652 743 665 q 743 626 740 638 q 754 605 746 614 q 772 593 762 595 l 770 590 q 768 589 769 590 q 747 604 756 593 q 735 628 738 614 q 733 655 731 641 q 745 681 735 670 q 775 701 756 693 q 824 709 794 709 "},"|":{"x_min":-21.671875,"x_max":385.59375,"ha":271,"o":"m 385 689 l -6 -229 l -21 -229 l 370 689 l 385 689 "},"^":{"x_min":86.671875,"x_max":300.03125,"ha":267,"o":"m 242 410 l 258 410 l 300 313 l 252 313 l 222 379 l 103 308 l 86 308 l 242 410 "},"q":{"x_min":-321.484375,"x_max":393.359375,"ha":338,"o":"m 393 229 l -200 -744 q -231 -793 -215 -772 q -246 -812 -238 -803 q -262 -827 -253 -820 q -279 -838 -270 -834 q -296 -843 -287 -843 q -320 -824 -317 -843 q -315 -774 -323 -805 q -286 -701 -306 -743 q -243 -613 -267 -659 q -193 -518 -219 -567 q -143 -426 -167 -470 q -112 -368 -130 -402 q -71 -292 -93 -334 q -22 -204 -48 -251 q 30 -107 3 -157 q 86 -7 58 -57 q 140 90 113 42 q 106 53 123 70 q 72 24 89 36 q 41 6 56 12 q 13 0 26 0 q -16 15 -6 0 q -24 56 -25 30 q -13 118 -23 83 q 18 194 -2 154 q 65 269 38 234 q 117 331 91 305 q 169 372 144 357 q 215 388 195 388 q 238 379 229 388 q 250 355 247 370 q 251 318 253 340 q 241 271 249 297 q 268 319 256 298 q 289 356 280 341 q 307 389 299 375 l 382 389 q 330 300 362 355 q 258 178 298 246 q 173 32 218 110 q 80 -127 127 -45 q -12 -290 33 -209 q -99 -447 -58 -372 q -173 -586 -140 -521 q -230 -698 -207 -651 q -262 -773 -253 -746 q -262 -801 -271 -801 q -229 -762 -256 -801 q -160 -653 -203 -723 q -60 -488 -117 -584 q 66 -277 -2 -392 q 214 -33 135 -162 q 380 230 293 95 l 393 229 m 53 29 q 74 36 61 29 q 101 58 86 44 q 132 92 116 72 q 165 134 148 111 q 192 182 179 159 q 217 227 205 206 q 235 279 229 255 q 242 321 241 304 q 238 349 243 339 q 225 359 234 359 q 199 345 214 359 q 167 310 184 332 q 131 258 150 288 q 95 194 113 227 q 65 129 77 159 q 46 77 52 99 q 41 42 40 55 q 53 29 42 29 "},"b":{"x_min":-80,"x_max":731.078125,"ha":310,"o":"m 72 0 q 38 23 47 0 q 37 86 29 46 q 19 50 27 66 q 6 22 12 33 q -4 0 0 9 l -80 0 q 267 645 107 365 q 358 802 312 724 q 448 948 405 879 q 533 1074 492 1017 q 608 1171 574 1131 q 670 1229 643 1210 q 713 1239 697 1248 q 730 1201 732 1230 q 710 1128 728 1171 q 658 1029 691 1084 q 583 910 625 973 q 490 779 540 847 q 389 643 441 711 q 285 509 337 575 q 186 385 233 444 q 161 334 173 359 q 136 285 148 310 q 173 327 154 308 q 209 359 191 346 q 243 380 227 373 q 273 388 260 388 q 303 372 293 388 q 311 331 312 357 q 300 269 311 305 q 268 194 288 234 q 211 104 243 145 q 147 37 179 64 q 184 61 166 47 q 220 90 202 74 q 254 122 237 106 q 285 153 270 138 q 350 227 318 188 l 355 218 q 290 143 321 175 q 233 88 260 111 q 185 49 207 64 q 146 23 163 33 q 75 0 104 1 l 72 0 m 707 1219 q 676 1211 696 1226 q 630 1163 656 1196 q 572 1083 604 1131 q 505 975 541 1035 q 432 849 470 916 q 356 711 395 782 q 280 568 318 640 q 207 427 242 496 q 301 546 253 484 q 398 672 350 608 q 490 798 445 736 q 574 918 536 861 q 643 1027 613 976 q 692 1117 674 1078 q 715 1183 711 1157 q 707 1219 720 1210 m 233 359 q 212 350 225 359 q 183 327 198 342 q 150 292 167 312 q 116 247 133 271 q 83 180 98 211 q 54 121 68 149 q 43 54 41 80 q 62 29 46 29 q 87 42 72 29 q 119 77 102 55 q 155 129 136 99 q 191 194 173 159 q 221 258 208 227 q 240 310 234 288 q 245 345 247 332 q 233 359 244 359 "},"D":{"x_min":31.484375,"x_max":2107.015625,"ha":1931,"o":"m 2019 268 q 1854 109 1940 175 q 1680 -2 1768 42 q 1508 -75 1593 -48 q 1346 -117 1422 -103 q 988 -134 1165 -152 l 992 -125 q 1095 -129 1045 -130 q 1192 -127 1145 -129 l 1192 -125 q 1210 -125 1201 -125 q 1228 -124 1218 -124 q 1245 -122 1236 -122 q 1261 -120 1253 -121 q 1439 -63 1353 -107 q 1601 45 1524 -20 q 1744 192 1677 110 q 1865 364 1811 274 q 1960 547 1920 454 q 2024 728 2000 641 q 2055 892 2049 815 q 2049 1027 2062 969 q 2001 1117 2036 1084 q 1909 1151 1967 1151 q 1791 1132 1845 1151 q 1686 1071 1737 1113 q 1582 958 1634 1028 q 1469 785 1529 888 q 1412 680 1441 733 q 1352 571 1383 627 q 1338 545 1345 558 q 1325 520 1331 532 q 1369 478 1354 506 q 1385 417 1384 451 q 1373 348 1386 383 q 1330 282 1359 312 q 1257 231 1301 252 q 1150 208 1212 211 q 1030 47 1093 120 q 889 -76 967 -25 q 715 -155 811 -127 q 497 -184 619 -184 q 300 -160 383 -184 q 159 -96 216 -136 q 71 -2 102 -56 q 33 112 41 51 q 41 236 26 172 q 89 361 55 301 q 176 476 123 422 q 297 570 228 529 q 448 634 365 610 q 626 657 531 657 q 752 644 698 657 q 842 611 805 632 q 907 708 863 660 q 1009 802 950 756 q 1139 892 1068 848 q 1287 978 1211 936 q 1443 1059 1364 1019 q 1595 1135 1521 1098 q 1666 1235 1630 1187 q 1736 1322 1701 1282 q 1804 1390 1771 1361 q 1867 1435 1837 1420 q 1923 1450 1897 1450 q 1971 1429 1950 1449 q 1984 1373 1997 1403 q 1929 1308 1971 1343 q 1821 1234 1887 1273 q 1675 1152 1755 1195 q 1577 982 1629 1076 q 1640 1048 1605 1015 q 1716 1105 1675 1080 q 1805 1146 1757 1131 q 1907 1162 1853 1162 q 2010 1134 1969 1162 q 2076 1057 2052 1106 q 2105 941 2099 1008 q 2099 797 2110 874 q 2061 635 2088 719 q 1994 465 2035 550 q 1898 299 1952 381 q 1777 146 1844 217 q 1632 17 1710 74 q 1465 -77 1554 -40 q 1593 -31 1534 -57 q 1704 22 1652 -5 q 1797 81 1755 51 q 1874 138 1840 110 q 2009 272 1953 203 l 2019 268 m 673 266 q 583 278 615 266 q 538 311 551 291 q 528 354 525 331 q 542 398 531 377 q 570 435 553 420 q 602 456 587 451 l 604 452 q 577 435 591 448 q 554 403 563 421 q 544 365 545 385 q 556 328 543 345 q 600 301 570 312 q 685 290 631 290 q 773 307 732 290 q 843 352 813 324 q 825 396 832 372 q 817 449 818 421 q 818 510 815 477 q 832 582 822 543 q 838 599 835 590 q 752 635 804 621 q 624 648 700 648 q 454 625 532 648 q 313 562 376 602 q 202 470 250 523 q 126 359 155 418 q 85 238 96 300 q 82 116 73 175 q 120 5 91 57 q 201 -86 150 -47 q 327 -149 252 -126 q 501 -172 402 -172 q 683 -148 603 -172 q 830 -77 763 -125 q 955 42 896 -29 q 1072 212 1013 115 q 1024 222 1052 215 q 966 243 996 230 q 908 278 937 257 q 858 328 880 298 q 777 283 824 300 q 673 266 731 266 m 880 349 q 921 291 896 315 q 974 251 946 267 q 1028 228 1001 236 q 1075 216 1055 220 q 1156 356 1115 281 q 1243 518 1197 431 q 1201 512 1221 517 q 1165 499 1182 507 q 1135 481 1149 491 q 1111 462 1122 472 q 1069 410 1086 438 l 1066 411 q 1106 466 1081 441 q 1130 486 1116 476 q 1162 505 1144 497 q 1201 520 1180 514 q 1249 528 1223 526 q 1269 565 1259 547 q 1290 603 1279 584 q 1337 695 1308 640 q 1403 817 1366 750 q 1482 955 1440 883 q 1571 1098 1525 1028 q 1424 1020 1499 1060 q 1277 938 1349 980 q 1139 853 1205 897 q 1021 765 1074 810 q 932 675 968 721 q 881 582 895 629 q 920 528 908 557 q 932 467 932 498 q 917 405 931 436 q 880 349 904 375 m 1963 1411 q 1914 1437 1942 1440 q 1853 1403 1887 1434 q 1780 1316 1820 1372 q 1694 1183 1740 1260 q 1819 1250 1762 1218 q 1912 1311 1875 1282 q 1964 1365 1950 1340 q 1963 1411 1979 1390 m 1155 215 q 1244 241 1206 221 q 1308 289 1282 262 q 1346 349 1334 317 q 1360 411 1359 381 q 1350 466 1361 441 q 1317 504 1340 491 q 1236 353 1276 425 q 1155 215 1197 280 m 876 567 q 859 462 860 508 q 869 380 858 416 q 895 425 885 401 q 906 474 905 450 q 900 522 908 498 q 876 567 893 546 "},"∙":{"x_min":50.890625,"x_max":130.234375,"ha":112,"o":"m 126 212 q 104 185 119 196 q 73 174 88 174 q 53 185 59 174 q 54 213 47 197 q 76 240 61 229 q 107 252 92 252 q 127 240 121 252 q 126 212 133 228 "},"ﬂ":{"x_min":-340.578125,"x_max":929.953125,"ha":392,"o":"m 726 1240 q 744 1200 747 1230 q 720 1122 741 1169 q 663 1016 699 1076 q 581 890 627 957 q 483 751 536 823 q 375 609 430 679 q 267 471 321 538 q 166 346 213 403 q 116 248 141 296 q 66 151 91 199 q 49 100 54 123 q 47 64 44 77 q 62 50 50 51 q 98 67 75 49 q 155 124 121 85 q 238 227 190 162 l 245 218 q 153 102 193 146 q 84 43 112 59 q 43 38 56 27 q 33 85 30 49 q -27 -35 2 23 q -83 -148 -56 -94 q -134 -250 -110 -202 q -178 -340 -158 -299 q -265 -519 -225 -437 l -340 -519 q 126 391 -88 -5 q 249 613 187 503 q 371 820 311 722 q 485 999 430 917 q 585 1138 539 1081 q 668 1222 632 1195 q 726 1240 704 1250 m 720 1219 q 676 1202 705 1229 q 608 1119 647 1175 q 519 983 568 1063 q 416 808 470 903 q 303 605 361 712 q 187 387 245 497 q 284 508 233 444 q 384 638 334 572 q 482 770 434 704 q 572 898 531 836 q 647 1013 614 959 q 701 1110 681 1067 q 727 1181 722 1152 q 720 1219 733 1210 m 304 224 q 262 142 278 179 q 249 110 255 126 q 240 82 243 95 q 238 60 237 69 q 245 48 238 51 q 263 52 251 46 q 288 70 274 58 q 318 98 302 82 q 351 132 335 114 q 431 226 388 172 l 436 217 q 344 110 382 152 q 276 44 305 68 q 224 10 247 19 q 178 1 201 1 q 162 8 166 1 q 157 28 157 16 q 161 56 157 41 q 171 89 165 72 q 210 178 185 128 q 273 295 238 231 q 345 429 307 359 q 425 573 383 499 q 509 720 467 647 q 593 861 551 792 q 675 991 636 930 q 751 1100 715 1051 q 818 1183 787 1149 q 873 1232 849 1217 q 912 1239 897 1247 q 929 1201 931 1230 q 908 1128 927 1172 q 857 1029 890 1084 q 781 910 824 973 q 690 779 739 847 q 588 644 640 712 q 484 510 536 576 q 385 386 432 444 q 343 302 363 342 q 304 224 322 261 m 906 1219 q 875 1211 895 1226 q 830 1163 856 1196 q 771 1083 803 1131 q 704 975 740 1035 q 631 849 669 916 q 555 711 593 782 q 479 567 517 640 q 406 426 441 495 q 500 546 451 483 q 596 671 548 608 q 689 798 644 735 q 773 918 735 861 q 842 1027 812 976 q 891 1117 873 1077 q 914 1183 910 1157 q 906 1219 919 1210 "},"z":{"x_min":-131.15625,"x_max":367.25,"ha":302,"o":"m 303 338 q 260 320 283 328 q 213 307 237 311 q 168 306 190 303 q 126 321 145 308 l 41 211 l 33 218 l 162 388 q 217 364 187 371 q 280 359 244 358 q 361 382 316 361 q 367 374 367 374 q 366 375 367 374 q 365 374 365 375 q 362 373 363 373 l 96 171 q 138 178 120 179 q 168 170 156 178 q 186 148 180 162 q 193 116 192 134 q 275 171 237 144 q 341 228 313 199 l 343 224 q 347 221 345 221 q 320 194 336 208 q 284 165 304 180 q 241 135 264 150 q 192 105 217 120 q 179 45 191 77 q 144 -16 167 13 q 95 -73 122 -46 q 38 -123 67 -101 q -19 -159 8 -145 q -71 -177 -48 -174 q -110 -170 -95 -180 q -130 -134 -126 -161 q -123 -100 -133 -118 q -93 -64 -112 -83 q -45 -27 -73 -46 q 14 11 -18 -8 q 81 51 46 30 q 152 92 117 71 q 155 121 157 109 q 143 148 151 139 q 125 161 135 158 q 103 161 115 164 q 83 155 92 159 q 65 146 73 151 q 55 139 58 141 l 53 138 l 48 148 l 303 338 m -118 -130 q -98 -146 -116 -147 q -55 -130 -81 -145 q 0 -91 -30 -116 q 60 -36 31 -66 q 112 22 88 -7 q 147 78 135 53 q 81 40 114 59 q 18 2 48 21 q -37 -34 -11 -16 q -81 -69 -62 -52 q -110 -101 -100 -86 q -118 -130 -120 -116 m 348 222 q 347 221 348 221 l 348 222 "},"w":{"x_min":-24.78125,"x_max":512.265625,"ha":447,"o":"m 354 388 q 269 217 303 292 q 243 154 255 185 q 225 100 231 124 q 221 61 219 76 q 235 46 222 46 q 262 57 246 46 q 297 87 278 69 q 336 129 316 105 q 376 180 357 154 q 348 207 358 189 q 334 249 337 226 q 335 297 331 272 q 353 341 340 321 q 389 374 367 361 q 445 388 412 388 q 470 373 465 388 q 470 335 476 359 q 449 280 465 311 q 412 216 434 249 q 451 213 428 206 q 505 252 473 219 l 512 246 q 474 207 492 222 q 440 184 456 192 q 410 174 424 175 q 385 176 397 173 q 331 109 360 141 q 274 51 302 76 q 219 12 245 26 q 172 -1 192 -2 q 147 11 155 0 q 139 40 140 22 q 144 82 138 58 q 159 133 150 106 q 121 79 141 103 q 83 37 102 55 q 46 10 65 20 q 13 0 28 0 q -16 15 -6 0 q -24 56 -25 30 q -13 118 -23 83 q 18 194 -2 154 l 122 388 l 194 388 l 95 194 q 65 131 77 160 q 46 81 52 102 q 42 47 40 59 q 54 36 43 36 q 77 45 63 36 q 106 73 91 55 q 140 116 122 91 q 174 171 157 141 q 209 249 190 210 q 245 318 228 287 q 283 388 264 354 l 354 388 m 436 368 q 411 360 421 368 q 393 338 400 351 q 384 309 387 325 q 383 277 382 293 q 390 246 385 261 q 404 222 395 232 q 435 277 422 251 q 453 323 448 303 q 455 356 459 343 q 436 368 452 368 "},"$":{"x_min":-23.890625,"x_max":1552.90625,"ha":1314,"o":"m 1518 1558 l 1423 1376 q 1497 1336 1468 1361 q 1539 1278 1525 1310 q 1552 1211 1553 1247 q 1538 1140 1552 1175 q 1496 1072 1524 1104 q 1430 1015 1469 1039 q 1340 975 1391 990 q 1228 961 1289 961 l 1205 961 l 1038 642 q 1092 526 1061 582 q 1141 419 1121 475 q 1174 303 1162 362 q 1190 182 1187 243 q 1187 61 1193 121 q 1268 130 1224 85 q 1367 245 1312 174 l 1375 240 q 1271 120 1317 167 q 1186 49 1225 74 q 1154 -87 1177 -20 q 1092 -213 1131 -154 q 997 -321 1053 -272 q 867 -407 941 -371 q 699 -463 792 -443 q 491 -483 605 -483 q 470 -482 480 -483 q 450 -481 460 -481 l 306 -757 l 291 -757 l 435 -480 q 415 -479 425 -480 q 396 -477 406 -478 l 250 -757 l 235 -757 l 382 -475 q 212 -427 285 -462 q 91 -340 140 -392 q 14 -226 41 -289 q -20 -94 -13 -163 q -17 44 -28 -25 q 20 181 -6 115 q 91 305 48 247 q 190 405 134 362 q 315 474 246 449 q 461 499 383 499 q 556 489 514 499 q 629 461 597 479 q 682 419 660 444 q 716 367 703 395 q 732 308 728 339 q 732 245 736 277 q 744 242 738 243 q 756 237 750 240 l 963 633 q 920 823 930 731 q 921 1000 910 916 q 835 1030 874 1014 q 759 1062 795 1046 q 687 1093 722 1078 q 615 1119 652 1108 q 536 1138 578 1131 q 445 1145 494 1145 q 323 1120 378 1145 q 227 1055 268 1095 q 160 962 186 1014 q 124 857 133 911 q 125 752 115 803 q 164 659 134 700 q 245 594 193 619 q 372 570 296 570 q 464 585 421 570 q 541 627 507 601 q 599 687 575 653 q 638 755 624 720 q 654 823 652 790 q 646 883 657 857 q 610 925 635 909 q 545 941 585 941 l 545 947 q 619 930 590 947 q 663 885 648 913 q 677 823 677 858 q 663 751 676 788 q 623 679 649 714 q 558 616 596 644 q 472 572 521 589 q 365 555 423 555 q 221 581 278 555 q 131 649 163 607 q 90 745 99 692 q 94 856 82 799 q 136 966 106 912 q 212 1062 166 1019 q 318 1130 258 1104 q 447 1156 377 1156 q 570 1142 513 1156 q 683 1109 627 1129 q 797 1067 739 1089 q 924 1025 856 1044 q 970 1172 937 1105 q 1053 1288 1003 1240 q 1168 1364 1102 1337 q 1315 1392 1234 1392 q 1337 1391 1326 1392 q 1359 1389 1349 1390 l 1447 1558 l 1462 1558 l 1373 1387 q 1392 1384 1382 1386 q 1410 1380 1401 1383 l 1503 1558 l 1518 1558 m 461 483 q 333 459 393 483 q 224 393 273 435 q 136 296 174 352 q 72 177 97 240 q 37 46 47 114 q 33 -88 27 -21 q 63 -214 40 -154 q 131 -324 87 -275 q 240 -408 175 -374 q 393 -455 305 -443 l 750 226 q 740 230 745 228 q 730 233 735 232 q 698 143 721 187 q 637 66 674 100 q 552 12 601 33 q 446 -8 504 -8 q 362 11 393 -8 q 324 61 332 31 q 332 125 316 91 q 386 189 347 159 q 488 239 425 219 q 636 259 550 259 q 673 257 656 259 q 708 252 691 255 q 704 336 714 295 q 665 410 694 378 q 585 463 635 443 q 461 483 535 483 m 494 -463 q 651 -446 577 -463 q 787 -398 724 -429 q 900 -324 849 -367 q 990 -227 951 -280 q 1056 -113 1030 -174 q 1096 14 1083 -52 q 1046 20 1070 12 q 1001 42 1023 28 q 957 77 978 57 q 911 118 935 97 q 862 161 888 140 q 807 200 837 182 l 460 -462 q 477 -462 468 -462 q 494 -463 485 -463 m 1022 497 q 1007 527 1015 512 q 993 557 1000 542 l 813 212 q 869 174 843 194 q 918 132 895 153 q 963 92 942 111 q 1007 57 985 72 q 1051 34 1028 43 q 1099 27 1073 26 q 1101 260 1119 140 q 1022 497 1083 380 m 1312 1377 q 1167 1348 1229 1377 q 1064 1271 1106 1320 q 1000 1155 1022 1222 q 973 1012 978 1089 q 1056 996 1013 1003 q 1148 986 1100 990 l 1351 1374 q 1332 1376 1342 1375 q 1312 1377 1323 1377 m 1230 985 q 1356 1007 1301 985 q 1448 1065 1411 1030 q 1502 1144 1485 1101 q 1516 1229 1519 1187 q 1487 1306 1512 1271 q 1414 1359 1462 1341 l 1218 985 l 1230 985 m 452 18 q 545 36 502 18 q 620 86 587 55 q 675 157 653 117 q 706 239 697 197 q 672 245 690 243 q 636 247 655 247 q 505 230 560 247 q 415 187 450 213 q 367 132 381 161 q 358 77 353 103 q 387 35 363 51 q 452 18 411 18 m 407 -457 q 426 -459 416 -458 q 445 -461 435 -460 l 795 206 q 779 214 787 211 q 762 221 771 218 l 407 -457 m 1136 964 q 973 987 1044 971 q 981 857 971 923 q 1010 723 991 790 l 1136 964 m 1401 1364 q 1384 1369 1393 1367 q 1365 1373 1375 1371 l 1163 987 q 1203 985 1182 986 l 1401 1364 m 987 572 q 978 594 982 583 q 970 617 974 606 l 768 233 q 785 225 777 229 q 801 217 793 222 l 987 572 m 1191 962 q 1151 963 1170 962 l 1016 705 q 1023 681 1020 693 q 1032 658 1027 669 l 1191 962 "},"™":{"x_min":83.59375,"x_max":1063.453125,"ha":781,"o":"m 690 664 l 711 664 q 632 508 662 577 q 587 392 602 439 q 572 319 573 344 q 580 294 571 294 q 607 310 590 294 q 648 354 625 327 q 696 415 670 381 q 747 483 722 449 q 797 548 773 517 q 838 600 820 579 q 850 611 845 608 q 906 655 876 639 q 975 672 937 672 q 1031 661 1011 672 q 1058 636 1051 651 q 1061 603 1066 620 q 1043 569 1057 585 q 1008 544 1030 554 q 960 534 987 534 q 918 541 934 534 q 897 560 901 549 q 901 583 892 571 q 933 604 909 595 l 933 603 q 910 588 920 599 q 902 566 901 577 q 915 545 902 554 q 960 537 928 537 q 1004 546 984 537 q 1036 571 1023 556 q 1053 602 1048 585 q 1050 633 1057 619 q 1024 658 1043 648 q 972 668 1005 668 q 907 647 936 668 q 853 594 878 627 q 804 521 827 562 q 755 437 780 479 q 711 353 730 394 q 677 276 692 313 q 710 302 696 290 q 732 325 723 315 q 748 346 742 336 l 751 343 q 733 321 743 333 q 709 298 723 311 q 675 271 695 285 q 646 206 660 236 q 616 155 632 177 q 580 122 600 134 q 533 111 560 111 q 497 124 505 111 q 496 156 489 137 q 523 192 503 174 q 572 222 543 211 q 617 241 597 231 q 655 261 637 251 q 695 355 675 307 q 738 442 716 403 q 762 484 751 463 q 786 524 774 505 q 745 471 766 499 q 703 417 724 443 q 663 366 683 390 q 628 324 644 342 q 598 295 611 306 q 578 285 586 285 q 557 296 563 285 q 553 329 552 308 q 563 377 555 350 q 582 433 571 404 q 606 494 593 463 q 633 553 620 525 q 608 509 621 532 q 579 459 594 485 q 528 374 554 415 q 473 301 503 333 q 409 250 444 269 q 331 231 375 231 q 284 237 302 231 q 255 254 266 243 q 173 231 219 231 q 112 243 133 231 q 86 273 91 255 q 87 312 80 291 q 108 350 93 332 q 144 380 123 368 q 186 393 165 393 q 217 383 208 393 q 226 361 226 373 q 218 339 225 349 q 200 329 210 329 l 200 330 q 215 339 209 330 q 222 359 222 348 q 214 379 222 370 q 185 389 206 389 q 145 377 163 389 q 115 348 126 366 q 99 311 103 331 q 101 274 95 291 q 125 245 107 256 q 173 234 142 234 q 216 240 197 234 q 251 258 235 247 q 241 284 242 270 q 246 314 241 299 q 261 343 251 328 q 284 368 271 357 q 313 386 297 379 q 345 393 328 393 l 349 393 q 380 459 365 425 q 414 524 396 492 q 452 584 431 556 q 498 632 472 611 q 448 644 472 636 q 398 660 424 652 q 343 673 373 667 q 275 679 313 679 q 226 666 248 679 q 188 634 204 653 q 165 592 173 615 q 158 550 157 569 q 171 518 160 531 q 207 506 183 506 q 235 512 223 506 q 254 526 246 518 q 270 546 263 535 l 271 547 q 255 525 265 535 q 234 510 247 517 q 205 504 222 504 q 167 517 180 504 q 151 550 154 530 q 156 594 149 571 q 180 638 164 617 q 221 671 196 658 q 277 685 246 685 q 341 679 312 685 q 398 664 371 673 q 450 648 425 656 q 501 634 475 639 q 551 662 524 652 q 613 672 579 672 q 644 665 637 672 q 643 650 652 658 q 609 634 634 641 q 545 628 585 628 q 526 628 535 628 q 510 630 518 629 q 467 582 486 610 q 431 523 448 555 q 397 456 413 491 q 365 390 381 422 q 381 375 377 385 q 383 355 385 365 q 373 337 380 345 q 358 329 366 329 l 358 330 q 372 337 366 330 q 380 353 378 344 q 378 372 382 363 q 362 386 374 381 q 319 315 342 348 q 266 261 296 282 q 291 241 275 249 q 332 234 307 234 q 407 253 373 234 q 471 305 441 272 q 526 379 500 338 q 577 466 552 421 q 632 563 607 521 q 671 630 656 604 q 679 643 676 637 q 685 654 682 650 q 690 664 687 660 m 572 219 q 530 191 547 209 q 505 156 512 174 q 503 126 497 139 q 533 113 509 113 q 566 124 550 113 q 597 155 582 135 q 625 201 611 175 q 652 257 639 227 q 616 237 636 247 q 572 219 596 227 m 347 389 l 343 389 q 301 376 320 389 q 270 344 282 363 q 256 305 259 326 q 262 266 253 284 q 308 319 288 287 q 347 389 328 351 m 544 631 q 602 636 581 631 q 630 649 623 642 q 631 662 637 656 q 609 668 626 668 q 556 658 580 668 q 513 633 533 649 q 528 631 521 632 q 544 631 536 631 "},"\\":{"x_min":126.125,"x_max":237.234375,"ha":271,"o":"m 140 690 l 237 -221 l 223 -229 l 126 682 l 140 690 "},"~":{"x_min":52.21875,"x_max":324.46875,"ha":249,"o":"m 52 365 q 92 391 70 382 q 113 397 101 395 q 137 399 124 399 q 165 395 150 399 q 196 384 180 392 q 250 366 227 368 q 288 368 273 364 q 318 383 306 372 l 324 382 q 284 353 307 363 q 236 342 265 344 q 172 356 208 340 q 112 375 135 372 q 77 375 90 377 q 56 361 62 371 l 52 365 "},"-":{"x_min":58.890625,"x_max":278.359375,"ha":258,"o":"m 276 208 l 58 208 l 61 222 l 278 222 l 276 208 "},"Q":{"x_min":-50.421875,"x_max":1525.6875,"ha":1183,"o":"m 108 -140 q 38 -115 70 -135 q -13 -68 7 -96 q -43 -5 -33 -40 q -49 63 -53 28 q -25 131 -45 98 q 31 190 -6 164 q 124 231 68 215 q 258 246 181 246 q 322 243 291 246 q 383 234 353 240 q 437 413 402 318 q 520 607 472 509 q 627 803 567 705 q 752 991 686 902 q 892 1159 819 1081 q 1041 1295 965 1237 q 1193 1387 1116 1353 q 1344 1425 1269 1422 q 1457 1402 1415 1429 q 1514 1325 1498 1375 q 1523 1206 1530 1275 q 1490 1053 1516 1136 q 1422 879 1464 971 q 1325 692 1379 787 q 1208 503 1271 598 q 1076 323 1144 409 q 936 161 1007 236 q 796 28 865 86 q 863 -25 831 1 q 926 -79 895 -52 q 992 -29 958 -58 q 1062 36 1025 -1 q 1139 123 1098 74 q 1226 232 1180 171 l 1236 225 q 1150 115 1191 164 q 1073 28 1110 66 q 1002 -38 1036 -10 q 936 -88 968 -66 q 990 -134 964 -112 q 1041 -176 1016 -156 q 1171 -128 1108 -146 q 1289 -110 1233 -110 q 1382 -124 1347 -110 q 1434 -159 1418 -138 q 1445 -205 1449 -180 q 1417 -250 1440 -229 q 1353 -285 1395 -271 q 1255 -300 1312 -300 q 1115 -275 1180 -300 q 994 -211 1051 -251 q 890 -263 942 -235 q 787 -318 838 -291 q 686 -370 735 -345 q 590 -414 636 -395 q 502 -444 544 -433 q 423 -456 460 -456 q 372 -438 390 -456 q 351 -394 354 -421 q 359 -336 348 -368 q 396 -274 371 -304 q 460 -222 421 -245 q 550 -191 498 -199 q 643 -176 600 -182 q 725 -161 686 -169 q 800 -141 763 -152 q 872 -111 836 -129 q 815 -57 843 -84 q 757 -2 786 -29 q 632 -80 692 -52 q 521 -112 573 -109 q 430 -90 465 -114 q 379 -21 396 -66 q 364 86 363 23 q 381 224 365 149 q 323 233 353 230 q 260 237 292 237 q 143 223 194 237 q 56 184 92 208 q -1 129 20 160 q -30 66 -22 99 q -33 0 -38 33 q -9 -60 -27 -33 q 38 -108 8 -88 q 111 -136 69 -128 l 108 -140 m 1324 1403 q 1188 1370 1258 1403 q 1050 1279 1119 1337 q 912 1143 980 1221 q 782 974 845 1065 q 665 785 720 883 q 565 588 610 686 q 490 396 521 490 q 443 221 458 302 q 538 187 492 207 q 626 143 583 167 q 710 91 670 119 q 787 35 750 64 q 915 157 850 87 q 1043 310 980 228 q 1165 483 1106 392 q 1276 666 1225 573 q 1368 848 1327 758 q 1435 1021 1409 939 q 1471 1173 1461 1103 q 1468 1294 1480 1242 q 1421 1374 1456 1345 q 1324 1403 1386 1403 m 983 -203 q 931 -163 956 -184 q 881 -120 906 -142 q 807 -149 844 -138 q 732 -169 771 -161 q 652 -183 693 -177 q 565 -197 611 -189 q 480 -227 515 -206 q 424 -275 445 -248 q 395 -331 403 -302 q 391 -383 387 -360 q 409 -423 395 -407 q 446 -438 423 -438 q 515 -428 477 -438 q 595 -399 552 -417 q 685 -357 638 -381 q 781 -307 732 -333 q 882 -254 831 -281 q 983 -203 932 -227 m 558 -77 q 648 -55 600 -77 q 748 5 696 -33 q 679 66 715 36 q 606 122 644 96 q 527 171 568 149 q 441 208 486 193 q 430 92 430 145 q 445 2 431 40 q 486 -56 458 -35 q 558 -77 515 -77 m 1290 -123 q 1176 -140 1236 -123 q 1052 -185 1116 -157 q 1158 -256 1107 -228 q 1258 -283 1210 -283 q 1343 -271 1306 -283 q 1401 -241 1379 -259 q 1430 -203 1424 -223 q 1425 -164 1437 -182 q 1379 -135 1412 -147 q 1290 -123 1346 -123 "},"M":{"x_min":-28.40625,"x_max":3029.0625,"ha":1807,"o":"m 1228 663 q 1105 448 1167 554 q 975 249 1042 343 q 836 75 908 155 q 681 -62 763 -4 q 506 -153 599 -120 q 305 -186 412 -186 q 152 -169 215 -186 q 50 -122 90 -152 q -8 -54 10 -93 q -28 27 -27 -16 q -15 117 -29 71 q 25 207 0 163 q 88 289 52 251 q 168 357 125 328 q 258 404 211 387 q 355 421 306 421 q 443 403 410 421 q 489 358 475 385 q 500 301 502 332 q 485 244 498 270 q 451 199 472 217 q 406 182 430 182 l 407 186 q 448 202 429 186 q 478 243 467 219 q 490 296 489 268 q 478 349 491 324 q 434 390 465 373 q 352 406 404 406 q 236 381 290 406 q 140 315 182 356 q 69 222 97 274 q 30 115 41 170 q 28 9 20 61 q 70 -83 37 -43 q 161 -149 103 -124 q 306 -174 219 -174 q 499 -141 409 -174 q 671 -48 590 -108 q 825 91 752 10 q 965 268 897 172 q 1095 472 1032 364 q 1220 690 1158 579 q 1328 881 1277 792 q 1424 1048 1379 971 q 1506 1187 1469 1124 q 1572 1297 1544 1250 q 1599 1349 1587 1326 q 1621 1389 1612 1373 q 1639 1424 1631 1409 l 1719 1424 q 1507 1023 1597 1209 q 1356 685 1417 838 q 1258 414 1294 532 q 1209 215 1222 296 q 1202 91 1195 133 q 1232 50 1208 50 q 1285 73 1253 50 q 1360 138 1318 96 q 1450 236 1401 180 q 1553 360 1499 293 q 1663 502 1606 427 q 1778 652 1720 576 q 1892 804 1835 729 q 2002 950 1949 880 q 2103 1081 2055 1020 q 2191 1190 2151 1143 q 2217 1218 2206 1207 q 2237 1233 2229 1228 q 2337 1324 2285 1283 q 2446 1395 2389 1365 q 2567 1440 2504 1424 q 2703 1456 2631 1456 q 2869 1434 2803 1456 q 2974 1375 2936 1412 q 3023 1293 3013 1339 q 3023 1199 3034 1247 q 2978 1104 3011 1150 q 2897 1022 2946 1058 q 2784 964 2848 986 q 2645 942 2720 942 q 2532 955 2581 942 q 2453 990 2484 968 q 2410 1039 2422 1011 q 2409 1096 2399 1067 q 2452 1153 2419 1125 q 2545 1204 2486 1181 l 2546 1200 q 2499 1177 2521 1192 q 2462 1143 2477 1162 q 2437 1103 2446 1124 q 2429 1060 2429 1082 q 2442 1020 2430 1039 q 2480 986 2454 1000 q 2546 962 2505 971 q 2644 953 2586 953 q 2771 974 2713 953 q 2876 1029 2830 995 q 2951 1107 2921 1063 q 2991 1196 2980 1150 q 2991 1286 3001 1242 q 2944 1364 2980 1329 q 2846 1419 2909 1398 q 2690 1439 2784 1439 q 2524 1405 2601 1439 q 2378 1310 2447 1370 q 2246 1168 2309 1250 q 2124 991 2184 1086 q 2004 791 2064 895 q 1884 583 1945 688 q 1796 424 1836 502 q 1720 270 1755 345 q 1653 122 1684 194 q 1593 -16 1622 51 q 1716 81 1666 35 q 1797 164 1766 128 q 1857 243 1835 206 l 1867 233 q 1802 152 1841 195 q 1715 66 1768 115 q 1585 -34 1661 17 q 1513 -200 1548 -122 q 1442 -344 1478 -278 q 1366 -463 1406 -410 q 1281 -553 1327 -516 q 1179 -610 1235 -590 q 1056 -630 1124 -630 q 972 -616 1005 -630 q 922 -580 938 -602 q 906 -526 906 -557 q 918 -462 905 -496 q 958 -393 932 -428 q 1020 -325 983 -357 q 1102 -264 1056 -292 q 1202 -216 1148 -236 q 1370 -146 1294 -183 q 1508 -71 1445 -109 q 1585 103 1546 14 q 1662 279 1623 192 q 1740 449 1700 367 q 1822 603 1780 531 q 1912 759 1867 681 q 2002 912 1956 837 q 1889 765 1947 841 q 1772 612 1831 689 q 1657 462 1714 536 q 1545 322 1599 388 q 1442 200 1491 256 q 1352 103 1393 144 q 1278 40 1311 63 q 1226 17 1246 17 q 1161 42 1183 17 q 1133 113 1138 68 q 1138 221 1128 159 q 1168 357 1147 284 q 1218 513 1188 431 q 1282 679 1247 595 q 1354 848 1317 764 q 1429 1010 1392 932 q 1334 847 1384 934 q 1228 663 1284 760 m 1202 -230 q 1117 -272 1157 -247 q 1044 -329 1077 -298 q 988 -393 1012 -359 q 951 -459 964 -427 q 936 -521 937 -492 q 946 -573 934 -550 q 986 -608 958 -595 q 1057 -622 1013 -622 q 1142 -602 1101 -622 q 1221 -548 1182 -583 q 1295 -464 1259 -513 q 1366 -355 1331 -415 q 1434 -228 1401 -296 q 1501 -88 1468 -161 q 1364 -161 1438 -125 q 1202 -230 1290 -197 "},"C":{"x_min":12.609375,"x_max":1266.390625,"ha":743,"o":"m 791 219 q 585 -15 686 87 q 496 -101 542 -59 q 405 -176 450 -143 q 317 -229 360 -209 q 240 -250 275 -250 q 91 -203 145 -250 q 21 -76 38 -156 q 20 110 4 3 q 76 337 35 217 q 181 584 117 457 q 325 830 245 710 q 497 1057 405 950 q 688 1244 590 1164 q 887 1371 786 1324 q 1085 1418 988 1418 q 1185 1396 1146 1418 q 1244 1338 1225 1375 q 1266 1253 1264 1302 q 1254 1150 1267 1205 q 1214 1037 1241 1095 q 1150 924 1187 979 q 1067 821 1113 870 q 970 736 1021 772 q 862 678 918 700 q 749 657 806 657 q 660 674 692 657 q 615 720 627 692 q 609 785 603 749 q 633 860 615 822 q 681 935 652 899 q 744 1000 710 971 q 815 1046 778 1029 q 887 1064 852 1064 q 921 1058 907 1064 q 944 1044 935 1053 q 958 1025 953 1036 q 966 1003 963 1014 q 965 943 971 976 l 952 937 q 957 994 960 969 q 951 1015 955 1005 q 938 1033 946 1025 q 915 1046 929 1041 q 882 1051 902 1051 q 830 1035 858 1051 q 775 992 802 1019 q 722 931 747 965 q 680 862 697 897 q 655 792 662 826 q 653 732 647 759 q 683 689 660 705 q 752 672 707 672 q 841 693 795 672 q 933 748 887 713 q 1023 830 980 783 q 1104 929 1067 876 q 1170 1037 1141 981 q 1216 1144 1200 1092 q 1235 1244 1232 1197 q 1221 1325 1237 1290 q 1169 1381 1205 1360 q 1072 1401 1132 1401 q 917 1353 1000 1400 q 747 1228 833 1307 q 573 1044 660 1149 q 408 822 487 940 q 263 581 330 705 q 150 340 197 457 q 80 119 103 223 q 64 -63 56 15 q 115 -186 72 -141 q 244 -232 158 -232 q 321 -212 279 -232 q 407 -160 362 -192 q 496 -86 451 -127 q 583 -2 541 -45 q 782 228 681 98 l 791 219 "},"[":{"x_min":-21.671875,"x_max":626.15625,"ha":373,"o":"m -16 -229 l -21 -228 l 370 689 l 385 689 l 385 688 l 626 688 l 622 669 l 377 669 l -1 -214 l 260 -214 l 258 -230 l -16 -230 l -16 -229 "},"L":{"x_min":-2.375,"x_max":2374.234375,"ha":1268,"o":"m 1331 243 q 1242 130 1283 178 q 1166 45 1201 81 q 1247 -81 1206 -18 q 1333 -203 1288 -144 q 1430 -311 1379 -261 q 1544 -399 1482 -362 q 1682 -458 1607 -436 q 1850 -479 1757 -479 q 1981 -464 1925 -479 q 2077 -424 2037 -449 q 2139 -368 2116 -399 q 2170 -302 2161 -336 q 2175 -236 2179 -269 q 2155 -177 2170 -204 q 2114 -134 2139 -151 q 2054 -114 2088 -117 q 1979 -126 2020 -111 q 1892 -177 1938 -140 l 1889 -167 q 1937 -133 1910 -148 q 1991 -109 1960 -120 q 2059 -98 2022 -98 q 2138 -115 2104 -98 q 2193 -160 2172 -132 q 2220 -223 2214 -187 q 2218 -295 2227 -258 q 2182 -367 2209 -331 q 2109 -430 2155 -403 q 1997 -475 2064 -458 q 1843 -492 1931 -492 q 1652 -471 1736 -492 q 1500 -416 1568 -451 q 1380 -332 1433 -380 q 1283 -228 1327 -284 q 1203 -111 1240 -172 q 1131 11 1166 -50 q 1058 -47 1090 -26 q 1004 -78 1027 -68 q 967 -90 981 -88 q 946 -90 953 -91 q 945 -90 946 -90 q 943 -90 945 -90 q 942 -89 942 -90 q 942 -89 942 -89 l 941 -89 q 930 -80 933 -86 q 927 -65 926 -73 q 938 -47 929 -54 q 957 -39 947 -39 q 973 -46 967 -39 q 978 -64 980 -54 q 1012 -54 994 -61 q 1048 -34 1030 -46 q 1085 -8 1066 -23 q 1123 24 1105 6 q 1071 113 1097 69 q 1016 198 1045 157 q 878 37 949 111 q 731 -89 807 -35 q 572 -173 655 -143 q 401 -204 490 -204 q 200 -175 282 -204 q 70 -98 118 -146 q 5 9 21 -51 q 4 133 -10 69 q 63 257 19 196 q 178 365 107 317 q 346 441 249 412 q 564 470 443 470 q 698 455 637 470 q 812 415 760 441 q 910 353 865 389 q 995 275 955 318 q 1118 466 1057 367 q 1241 666 1180 565 q 1366 864 1303 767 q 1495 1050 1429 962 q 1629 1213 1560 1138 q 1773 1343 1699 1288 q 1927 1429 1847 1398 q 2093 1460 2006 1460 q 2249 1436 2189 1460 q 2339 1376 2309 1413 q 2373 1290 2369 1338 q 2360 1192 2377 1242 q 2309 1094 2343 1142 q 2229 1008 2275 1046 q 2129 947 2183 971 q 2019 924 2075 924 q 1915 941 1957 924 q 1852 986 1874 957 q 1831 1056 1831 1015 q 1854 1145 1831 1096 l 1857 1141 q 1842 1038 1835 1083 q 1855 1000 1846 1018 q 1885 967 1865 982 q 1936 945 1905 953 q 2014 937 1967 936 q 2120 959 2069 937 q 2213 1017 2171 982 q 2287 1099 2256 1053 q 2333 1193 2319 1145 q 2344 1286 2348 1241 q 2310 1368 2339 1332 q 2224 1425 2281 1403 q 2079 1447 2168 1447 q 1937 1414 2006 1447 q 1803 1325 1869 1382 q 1674 1190 1737 1268 q 1549 1020 1611 1112 q 1425 828 1487 929 q 1300 624 1363 727 q 1171 419 1236 520 q 1037 227 1106 318 q 1100 144 1070 187 q 1158 56 1130 101 q 1222 124 1192 90 q 1275 185 1251 158 q 1324 248 1301 218 l 1331 243 m 403 -191 q 560 -157 485 -191 q 707 -64 636 -123 q 845 74 778 -5 q 977 249 912 155 q 900 329 941 292 q 807 393 858 366 q 693 435 755 420 q 556 450 631 450 q 395 432 468 450 q 263 383 322 414 q 161 311 204 352 q 90 224 117 270 q 52 129 62 178 q 48 34 41 80 q 80 -52 55 -11 q 148 -124 105 -93 q 256 -172 192 -154 q 403 -191 319 -191 "},"!":{"x_min":-69.3125,"x_max":468.109375,"ha":217,"o":"m 5 -101 q -16 -128 -1 -117 q -46 -140 -31 -140 q -66 -128 -61 -140 q -66 -100 -72 -116 q -43 -73 -58 -84 q -12 -62 -27 -62 q 6 -73 1 -62 q 5 -101 12 -85 m 116 233 q 198 420 161 332 q 266 584 235 509 q 323 718 297 658 q 372 819 350 778 q 414 883 395 861 q 452 906 433 906 q 467 883 471 906 q 443 818 463 860 q 389 715 423 776 q 313 580 355 655 q 225 418 272 505 q 133 233 179 330 l 116 233 "}," ":{"x_min":0,"x_max":0,"ha":278},"ﬁ":{"x_min":-340.578125,"x_max":744.609375,"ha":427,"o":"m 233 220 l 361 388 l 437 388 q 352 233 388 303 q 322 174 337 203 q 297 120 308 145 q 282 77 287 95 q 280 53 277 60 q 292 51 282 47 q 315 66 301 55 q 346 93 329 77 q 379 127 362 110 q 467 227 418 170 l 473 218 q 378 112 423 159 q 338 73 358 92 q 299 38 318 53 q 264 12 281 22 q 236 0 247 1 q 204 9 213 -3 q 203 57 195 21 q 240 158 211 93 q 323 321 268 222 l 238 210 l 233 220 m 583 646 q 567 620 580 631 q 540 610 555 610 q 515 620 524 610 q 510 646 507 631 q 525 672 512 661 q 552 683 537 683 q 576 672 567 683 q 583 646 586 661 m 726 1240 q 744 1200 747 1230 q 720 1122 741 1169 q 663 1016 699 1076 q 581 890 627 957 q 483 751 536 823 q 375 609 430 679 q 267 471 321 538 q 166 346 213 403 q 116 248 141 296 q 66 151 91 199 q 49 100 54 123 q 47 64 44 77 q 62 50 50 51 q 98 67 75 49 q 155 124 121 85 q 238 227 190 162 l 245 218 q 153 102 193 146 q 84 43 112 59 q 43 38 56 27 q 33 85 30 49 q -27 -35 2 23 q -83 -148 -56 -94 q -134 -250 -110 -202 q -178 -340 -158 -299 q -265 -519 -225 -437 l -340 -519 q 126 391 -88 -5 q 249 613 187 503 q 371 820 311 722 q 485 999 430 917 q 585 1138 539 1081 q 668 1222 632 1195 q 726 1240 704 1250 m 720 1219 q 676 1202 705 1229 q 608 1119 647 1175 q 519 983 568 1063 q 416 808 470 903 q 303 605 361 712 q 187 387 245 497 q 284 508 233 444 q 384 638 334 572 q 482 770 434 704 q 572 898 531 836 q 647 1013 614 959 q 701 1110 681 1067 q 727 1181 722 1152 q 720 1219 733 1210 "},"{":{"x_min":54.453125,"x_max":452.265625,"ha":319,"o":"m 452 613 l 447 602 q 391 585 417 602 q 343 541 366 569 q 301 479 321 514 q 263 408 282 444 q 227 336 245 371 q 190 274 209 301 q 151 230 171 247 q 108 213 131 213 q 140 197 131 213 q 147 155 148 181 q 139 96 146 129 q 125 27 132 62 q 111 -40 117 -7 q 108 -100 106 -74 q 123 -142 111 -126 q 165 -158 136 -158 l 160 -173 q 103 -162 125 -173 q 72 -133 82 -151 q 61 -91 62 -115 q 64 -39 60 -66 q 75 16 68 -12 q 88 72 82 44 q 99 123 95 99 q 101 166 103 147 q 88 194 98 184 q 55 205 77 205 q 54 211 54 204 l 54 218 q 107 235 85 218 q 149 280 130 252 q 185 343 168 308 q 219 415 201 378 q 258 488 237 452 q 306 551 279 523 q 369 596 333 579 q 452 613 405 613 "},"X":{"x_min":-12.8125,"x_max":2656.59375,"ha":1691,"o":"m 1321 1334 q 1322 1126 1319 1237 q 1325 1023 1323 1078 q 1331 906 1328 967 q 1341 780 1335 846 q 1355 648 1347 715 q 1515 850 1434 751 q 1680 1039 1596 950 q 1852 1204 1765 1128 q 2033 1335 1940 1280 q 2225 1421 2126 1390 q 2428 1453 2323 1453 q 2556 1429 2507 1453 q 2630 1369 2606 1406 q 2656 1283 2655 1331 q 2640 1184 2657 1235 q 2587 1085 2622 1133 q 2505 1000 2552 1037 q 2399 939 2457 962 q 2275 916 2341 916 q 2207 921 2237 916 q 2153 937 2177 927 q 2112 959 2130 946 q 2081 984 2093 971 q 2036 1052 2050 1014 l 2043 1058 q 2085 993 2056 1022 q 2115 970 2097 981 q 2156 949 2132 958 q 2209 934 2179 940 q 2276 928 2239 928 q 2380 950 2329 928 q 2475 1009 2431 972 q 2552 1091 2518 1045 q 2606 1185 2586 1137 q 2627 1280 2625 1234 q 2610 1362 2630 1326 q 2545 1421 2590 1399 q 2426 1443 2500 1443 q 2234 1407 2327 1443 q 2051 1310 2141 1372 q 1875 1163 1961 1248 q 1703 981 1788 1079 q 1535 774 1618 882 q 1366 555 1451 665 q 1390 406 1377 480 q 1422 260 1404 331 q 1462 121 1440 188 q 1511 -4 1484 54 q 1621 97 1563 36 q 1745 245 1680 158 l 1755 237 q 1629 86 1687 149 q 1517 -16 1571 24 q 1586 -136 1548 -83 q 1669 -227 1623 -190 q 1768 -282 1714 -264 q 1883 -295 1821 -300 q 2018 -259 1946 -290 q 2172 -168 2090 -228 l 2175 -172 q 2012 -275 2088 -239 q 1870 -318 1936 -310 q 1748 -308 1805 -325 q 1645 -254 1692 -291 q 1558 -162 1597 -217 q 1486 -39 1518 -107 q 1381 -95 1431 -78 q 1286 -113 1331 -113 q 1198 -98 1240 -113 q 1116 -59 1156 -84 q 1036 -1 1075 -34 q 956 68 996 31 q 800 -73 879 -9 q 638 -185 721 -138 q 469 -257 555 -231 q 290 -283 382 -283 q 152 -264 210 -283 q 58 -213 95 -245 q 4 -137 21 -180 q -12 -45 -12 -94 q 2 54 -13 3 q 46 154 18 105 q 115 246 75 203 q 206 321 156 289 q 314 373 256 354 q 436 392 372 392 q 537 380 489 392 q 628 350 585 369 q 712 304 672 330 q 790 247 752 277 q 862 183 827 216 q 931 118 898 150 q 1127 353 1030 228 q 1325 609 1224 479 q 1309 748 1316 679 q 1299 881 1303 817 q 1292 1004 1295 945 q 1289 1113 1290 1062 q 1288 1334 1285 1231 l 1321 1334 m 294 -270 q 458 -242 378 -270 q 615 -165 538 -214 q 768 -47 693 -115 q 917 102 843 21 q 814 192 867 147 q 701 271 761 236 q 573 328 641 306 q 427 350 506 350 q 286 323 351 350 q 171 253 221 296 q 85 153 120 209 q 35 39 51 98 q 26 -73 20 -18 q 63 -173 32 -129 q 150 -243 93 -216 q 294 -270 207 -270 m 1336 517 q 1155 290 1246 400 q 970 81 1065 179 q 1045 13 1007 45 q 1122 -42 1083 -18 q 1201 -80 1161 -66 q 1286 -95 1242 -95 q 1378 -78 1330 -95 q 1480 -26 1426 -62 q 1432 95 1454 31 q 1392 229 1410 160 q 1360 371 1375 298 q 1336 517 1346 444 "},"P":{"x_min":33.140625,"x_max":2104.9375,"ha":1619,"o":"m 1682 240 q 1499 2 1565 106 q 1597 -32 1555 -6 q 1662 -90 1642 -59 q 1683 -151 1682 -121 q 1667 -208 1683 -181 q 1624 -255 1651 -235 q 1564 -285 1598 -275 q 1495 -292 1530 -295 q 1430 -269 1454 -288 q 1402 -216 1406 -251 q 1415 -133 1398 -182 q 1473 -17 1432 -83 q 1367 -9 1424 -8 q 1249 -17 1310 -10 q 1126 -37 1188 -25 q 1006 -64 1064 -50 q 897 -95 948 -79 q 806 -123 846 -110 q 666 -168 741 -153 q 498 -184 590 -184 q 301 -160 385 -184 q 161 -96 217 -137 q 73 -2 104 -56 q 35 111 42 51 q 42 236 28 172 q 91 361 57 300 q 178 475 125 421 q 298 569 230 529 q 450 633 367 610 q 627 657 532 657 l 627 652 q 457 629 535 652 q 315 566 378 606 q 205 474 252 527 q 128 362 158 421 q 87 240 98 302 q 84 118 76 177 q 122 6 93 58 q 203 -86 151 -46 q 329 -149 254 -126 q 502 -172 403 -172 q 637 -160 576 -172 q 752 -123 698 -147 q 852 -61 805 -98 q 941 24 898 -25 q 1026 136 984 73 q 1111 273 1067 198 q 1043 270 1079 270 q 913 286 970 270 q 812 333 855 303 q 741 403 769 362 q 700 490 713 443 q 688 589 686 537 q 705 694 689 641 q 760 802 722 751 q 850 898 797 853 q 967 983 902 943 q 1104 1058 1032 1023 q 1252 1124 1176 1093 q 1405 1182 1329 1155 q 1554 1234 1481 1210 q 1692 1280 1627 1258 q 1777 1381 1735 1336 q 1855 1451 1818 1425 q 1926 1482 1893 1477 q 1984 1462 1959 1486 q 1999 1420 2006 1441 q 1959 1377 1991 1399 q 1874 1332 1926 1355 q 1755 1285 1821 1310 q 1636 1086 1700 1201 q 1497 833 1571 971 q 1585 937 1536 885 q 1693 1031 1635 989 q 1817 1099 1751 1073 q 1955 1125 1882 1125 q 2040 1103 2007 1125 q 2089 1042 2074 1080 q 2104 955 2105 1005 q 2088 850 2104 905 q 2044 739 2073 795 q 1974 632 2015 683 q 1882 540 1934 582 q 1770 473 1831 498 q 1641 441 1710 447 q 1498 456 1572 435 l 1502 462 q 1619 454 1561 446 q 1730 488 1676 462 q 1833 556 1784 515 q 1922 646 1881 597 q 1994 749 1962 695 q 2045 855 2025 803 q 2070 955 2064 907 q 2066 1038 2076 1002 q 2028 1096 2056 1075 q 1952 1117 2000 1117 q 1860 1103 1905 1117 q 1772 1065 1815 1089 q 1690 1010 1730 1042 q 1615 943 1651 978 q 1548 869 1580 907 q 1490 794 1517 831 q 1443 725 1464 758 q 1407 667 1422 692 q 1388 633 1397 650 q 1369 599 1379 616 q 1380 513 1382 558 q 1359 427 1379 468 q 1302 350 1340 385 q 1205 295 1264 316 q 1127 170 1167 228 q 1044 60 1087 111 q 951 -32 1000 9 q 844 -104 901 -73 q 938 -74 887 -90 q 1045 -44 990 -58 q 1159 -17 1101 -29 q 1274 1 1217 -5 q 1385 10 1331 9 q 1487 4 1440 11 q 1566 114 1520 55 q 1672 243 1612 173 l 1682 240 m 1287 597 q 1303 627 1294 610 q 1321 663 1312 644 q 1267 715 1300 695 q 1188 734 1233 734 q 1138 729 1160 734 q 1098 716 1116 724 q 1068 697 1081 707 q 1046 675 1055 686 q 1015 617 1023 649 l 1012 618 q 1041 681 1020 653 q 1063 703 1050 692 q 1095 723 1077 715 q 1136 738 1112 732 q 1189 743 1159 743 q 1267 725 1232 743 q 1328 676 1302 706 q 1396 803 1357 731 q 1480 952 1435 875 q 1574 1108 1525 1030 q 1675 1256 1624 1187 q 1542 1208 1611 1233 q 1400 1156 1472 1183 q 1258 1098 1329 1128 q 1120 1033 1187 1067 q 995 961 1054 999 q 887 881 935 923 q 804 791 838 838 q 752 692 769 744 q 731 570 731 626 q 748 468 731 514 q 795 386 765 422 q 865 326 826 351 q 951 289 905 302 q 1044 277 997 277 q 1082 278 1063 277 q 1116 282 1100 280 q 1198 430 1156 351 q 1287 597 1240 508 m 1494 -280 q 1549 -276 1522 -283 q 1597 -252 1576 -268 q 1631 -213 1618 -236 q 1644 -165 1644 -191 q 1628 -111 1644 -139 q 1577 -58 1612 -84 q 1535 -35 1558 -44 q 1484 -19 1511 -25 q 1413 -203 1411 -137 q 1494 -280 1415 -270 m 1976 1445 q 1938 1470 1960 1469 q 1891 1452 1917 1471 q 1834 1396 1865 1434 q 1768 1306 1803 1359 q 1867 1343 1823 1325 q 1939 1378 1910 1361 q 1977 1412 1967 1395 q 1976 1445 1988 1428 m 1218 317 q 1283 368 1256 338 q 1327 430 1311 397 q 1350 500 1344 464 q 1353 570 1356 535 q 1285 439 1318 502 q 1218 317 1251 376 "},"%":{"x_min":-71.109375,"x_max":788.953125,"ha":632,"o":"m 418 719 q 462 697 448 714 q 476 655 476 680 q 466 601 477 630 q 435 542 455 571 q 390 485 416 512 q 335 439 364 458 q 275 410 306 420 q 216 405 245 400 q 175 426 187 410 q 164 468 163 443 q 178 521 166 492 q 211 580 191 551 q 256 636 231 609 q 310 683 282 663 q 366 713 338 702 q 418 719 393 723 m 227 416 q 275 422 250 412 q 323 451 300 432 q 368 495 347 470 q 407 548 390 521 q 436 603 425 576 q 449 653 447 631 q 445 691 452 676 q 418 710 437 706 q 370 704 394 713 q 322 675 345 694 q 278 630 299 656 q 242 577 258 605 q 215 521 226 549 q 202 471 205 494 q 205 434 199 449 q 227 416 211 419 m 496 233 q 540 211 527 228 q 555 169 554 194 q 544 115 555 145 q 513 56 532 86 q 468 0 494 27 q 413 -46 442 -26 q 353 -75 383 -65 q 293 -80 322 -85 q 253 -58 265 -75 q 242 -17 241 -41 q 256 36 243 6 q 289 94 268 65 q 335 150 309 123 q 388 197 361 177 q 444 227 416 217 q 496 233 472 237 m 305 -68 q 353 -63 328 -72 q 401 -34 377 -53 q 447 10 425 -15 q 486 63 468 35 q 514 118 503 91 q 528 168 525 145 q 523 205 530 190 q 496 224 516 221 q 448 218 472 228 q 400 190 423 208 q 356 145 377 171 q 320 91 336 119 q 293 36 303 63 q 280 -13 282 8 q 283 -51 277 -36 q 305 -68 288 -66 m 788 722 l -57 -98 l -71 -96 l 775 725 l 788 722 "},"#":{"x_min":-29.453125,"x_max":408.921875,"ha":325,"o":"m 305 118 l 250 118 l 162 -84 l 147 -84 l 235 118 l 72 118 l -14 -84 l -29 -84 l 57 118 l 10 118 l 12 131 l 63 131 l 139 307 l 98 307 l 100 321 l 145 321 l 216 484 l 231 484 l 160 321 l 323 321 l 393 484 l 408 484 l 338 321 l 395 321 l 393 307 l 332 307 l 256 131 l 307 131 l 305 118 m 78 131 l 241 131 l 317 307 l 154 307 l 78 131 "},"_":{"x_min":-56.109375,"x_max":234.46875,"ha":326,"o":"m 232 -36 l -56 -36 l -53 -23 l 234 -23 l 232 -36 "},"+":{"x_min":58.890625,"x_max":278.359375,"ha":258,"o":"m 193 324 l 175 221 l 278 221 l 276 208 l 173 208 l 155 107 l 142 107 l 160 208 l 58 208 l 61 221 l 162 221 l 180 324 l 193 324 "},")":{"x_min":-218.90625,"x_max":381.203125,"ha":303,"o":"m -218 -283 l -207 -268 q -28 -124 -116 -206 q 48 -46 8 -89 q 127 47 88 -3 q 203 154 166 97 q 268 276 239 212 q 315 399 298 340 q 341 510 333 458 q 349 607 349 562 q 346 690 350 652 q 304 847 336 778 l 316 863 q 371 691 355 786 q 380 603 378 651 q 376 499 382 554 q 355 382 371 444 q 310 254 339 321 q 242 129 281 187 q 161 20 204 70 q 74 -71 118 -29 q -12 -147 29 -113 q -218 -283 -112 -226 "},"'":{"x_min":31.109375,"x_max":145.015625,"ha":0,"o":"m 93 513 l 145 513 l 44 344 l 31 344 l 93 513 "},"}":{"x_min":-107.234375,"x_max":290.015625,"ha":293,"o":"m -107 -173 l -102 -162 q -47 -145 -72 -162 q 0 -101 -21 -129 q 42 -39 22 -74 q 80 31 62 -4 q 116 103 98 68 q 153 165 135 138 q 192 209 172 192 q 235 226 212 226 q 203 242 212 226 q 196 284 195 258 q 204 343 197 310 q 218 412 211 377 q 231 480 226 447 q 235 540 237 514 q 220 582 232 566 q 178 598 207 598 l 183 613 q 240 602 219 613 q 271 573 261 591 q 283 531 282 555 q 280 479 284 506 q 269 423 276 452 q 255 367 262 395 q 245 316 248 340 q 243 273 241 292 q 256 245 245 255 q 289 234 266 234 q 289 233 289 235 q 290 228 290 231 l 290 221 q 236 204 259 221 q 195 159 213 187 q 159 96 176 131 q 125 24 142 61 q 86 -48 107 -12 q 38 -111 65 -83 q -24 -156 10 -139 q -107 -173 -60 -173 "},"a":{"x_min":-24.46875,"x_max":395.03125,"ha":349,"o":"m 376 388 q 291 233 327 303 q 261 174 276 203 q 236 120 247 144 q 220 77 226 95 q 218 53 215 59 q 230 51 221 47 q 251 66 238 55 q 278 93 263 77 q 309 127 293 109 q 389 227 345 169 l 395 218 q 308 112 350 159 q 271 73 290 92 q 235 38 253 53 q 201 12 217 22 q 174 0 186 1 q 150 2 160 -2 q 138 19 141 6 q 141 56 136 33 q 160 114 146 79 q 121 68 141 89 q 83 31 102 47 q 46 8 63 16 q 13 0 28 0 q -15 15 -6 0 q -24 56 -25 30 q -13 118 -23 83 q 18 194 -2 154 q 65 269 39 234 q 118 331 91 305 q 170 372 145 357 q 215 388 195 388 q 249 362 241 388 q 248 295 257 337 q 272 339 260 316 q 300 388 285 363 l 376 388 m 53 29 q 75 37 62 29 q 105 62 89 46 q 139 99 121 77 q 173 146 156 120 q 230 262 195 194 q 242 332 244 305 q 225 359 241 359 q 200 345 215 359 q 167 310 185 332 q 132 258 150 288 q 96 194 113 227 q 65 129 78 159 q 46 77 52 99 q 41 42 40 55 q 53 29 42 29 "},"T":{"x_min":-25.640625,"x_max":2075.171875,"ha":1100,"o":"m 1171 254 q 1083 153 1127 198 q 1042 116 1063 134 q 999 84 1021 98 q 955 61 977 69 q 911 52 932 52 q 882 61 892 52 q 868 86 871 71 q 868 122 865 102 q 877 164 871 142 q 764 23 824 88 q 635 -87 704 -40 q 484 -159 565 -133 q 307 -186 403 -186 q 155 -169 218 -186 q 52 -122 92 -152 q -5 -54 12 -93 q -25 27 -24 -16 q -12 117 -26 71 q 28 207 2 163 q 91 289 55 251 q 171 357 128 328 q 261 404 213 387 q 357 421 309 421 q 428 410 399 421 q 473 383 456 400 q 497 345 490 366 q 503 301 504 323 q 494 257 502 279 q 473 219 486 236 q 443 192 460 202 q 408 182 427 182 l 410 186 q 451 202 432 186 q 481 243 470 219 q 493 296 492 268 q 481 349 494 324 q 437 390 467 373 q 355 406 407 406 q 239 381 293 406 q 142 315 185 356 q 72 222 100 274 q 33 115 43 170 q 31 9 22 61 q 73 -83 40 -43 q 164 -149 106 -124 q 309 -174 222 -174 q 484 -144 405 -174 q 630 -59 563 -113 q 755 69 697 -4 q 863 231 812 143 q 961 415 914 318 q 1055 612 1008 512 q 1151 809 1102 711 q 1256 998 1200 908 q 1375 1168 1311 1089 q 1515 1307 1439 1247 q 1390 1335 1450 1318 q 1270 1373 1330 1353 q 1147 1412 1210 1392 q 1014 1448 1085 1432 q 864 1473 944 1463 q 688 1483 783 1483 q 548 1456 613 1483 q 430 1383 483 1428 q 339 1279 378 1337 q 278 1161 300 1222 q 253 1043 257 1101 q 268 940 250 985 q 326 867 286 895 q 434 840 367 840 q 489 846 463 840 q 537 863 515 853 q 577 887 559 874 q 611 915 596 900 q 670 990 645 948 l 675 991 q 615 911 650 946 q 581 882 600 896 q 538 856 562 868 q 488 838 515 845 q 429 831 461 831 q 315 860 360 831 q 249 937 271 889 q 227 1045 227 984 q 247 1168 227 1105 q 306 1292 267 1232 q 403 1400 346 1352 q 534 1477 460 1448 q 696 1506 607 1506 q 859 1495 782 1506 q 1008 1467 937 1484 q 1145 1429 1079 1450 q 1275 1387 1212 1408 q 1402 1348 1339 1367 q 1529 1318 1465 1329 q 1617 1375 1571 1350 q 1716 1419 1664 1401 q 1824 1446 1767 1437 q 1944 1456 1881 1456 q 2037 1443 2005 1456 q 2074 1413 2069 1431 q 2057 1374 2079 1395 q 1986 1334 2035 1352 q 1863 1304 1937 1316 q 1690 1292 1789 1292 q 1562 1300 1622 1292 q 1434 1164 1493 1241 q 1322 998 1375 1087 q 1221 812 1269 909 q 1124 616 1172 714 q 1027 420 1076 517 q 923 235 977 323 q 901 174 910 204 q 890 119 892 143 q 896 80 888 95 q 925 66 904 66 q 961 74 942 66 q 1000 96 980 82 q 1040 127 1020 109 q 1078 162 1060 144 q 1166 259 1121 205 l 1171 254 m 1932 1439 q 1737 1405 1825 1439 q 1575 1310 1649 1370 q 1631 1305 1603 1307 q 1689 1303 1659 1303 q 1845 1313 1780 1303 q 1952 1338 1911 1323 q 2010 1371 1992 1353 q 2024 1404 2028 1389 q 1997 1429 2021 1419 q 1932 1439 1974 1439 "},"=":{"x_min":53.890625,"x_max":283.359375,"ha":258,"o":"m 280 236 l 63 236 l 66 250 l 283 250 l 280 236 m 271 181 l 53 181 l 56 194 l 273 194 l 271 181 "},"N":{"x_min":-83.984375,"x_max":2591.140625,"ha":1507,"o":"m 1425 54 q 1366 -18 1397 20 q 1301 -93 1335 -56 q 1231 -164 1267 -131 q 1159 -224 1196 -198 q 1085 -265 1122 -250 q 1011 -281 1047 -281 q 914 -266 958 -281 q 831 -228 870 -252 q 759 -172 793 -204 q 694 -104 725 -140 q 632 -29 662 -67 q 570 44 602 8 q 473 -54 522 -9 q 371 -130 423 -98 q 265 -179 319 -162 q 153 -196 210 -196 q 30 -177 79 -196 q -46 -126 -19 -157 q -81 -53 -74 -94 q -76 29 -88 -13 q -36 112 -65 71 q 35 184 -7 152 q 134 235 78 216 q 258 255 191 255 q 346 242 305 255 q 423 208 386 229 q 492 156 459 186 q 556 92 525 126 q 655 241 606 161 q 751 408 703 322 q 844 583 798 493 q 937 759 891 672 q 1029 930 983 847 q 1122 1087 1076 1013 q 1217 1222 1169 1161 q 1315 1328 1265 1284 q 1416 1398 1365 1373 q 1522 1422 1468 1422 l 1521 1415 q 1440 1389 1481 1415 q 1357 1317 1399 1363 q 1272 1207 1315 1271 q 1185 1067 1230 1143 q 1103 866 1141 971 q 1037 655 1066 761 q 987 445 1008 548 q 954 248 966 341 q 939 74 942 154 q 945 -63 937 -4 q 971 -154 953 -121 q 1020 -187 990 -187 q 1088 -140 1048 -187 q 1176 -15 1127 -94 q 1281 168 1224 63 q 1401 392 1337 273 q 1535 636 1465 510 q 1680 879 1605 761 q 1835 1103 1755 998 q 1997 1287 1914 1208 q 2166 1412 2080 1366 q 2337 1459 2251 1459 q 2472 1438 2419 1459 q 2554 1383 2526 1417 q 2589 1305 2583 1348 q 2581 1216 2595 1262 q 2537 1127 2568 1170 q 2462 1049 2506 1084 q 2360 994 2417 1015 q 2239 974 2304 974 q 2156 991 2186 974 q 2113 1035 2125 1009 q 2104 1092 2100 1061 q 2126 1148 2109 1122 q 2173 1192 2144 1174 q 2240 1210 2202 1210 l 2239 1206 q 2181 1189 2206 1206 q 2141 1149 2155 1173 q 2123 1096 2126 1124 q 2131 1043 2120 1068 q 2169 1003 2142 1019 q 2239 987 2195 987 q 2350 1006 2298 987 q 2444 1059 2402 1026 q 2513 1132 2485 1091 q 2555 1217 2542 1173 q 2563 1301 2567 1260 q 2532 1375 2558 1342 q 2458 1427 2506 1407 q 2336 1447 2410 1447 q 2177 1400 2255 1447 q 2022 1273 2098 1353 q 1873 1086 1946 1193 q 1730 859 1800 979 q 1593 613 1660 739 q 1464 366 1526 486 q 1342 139 1401 246 q 1228 -47 1283 32 q 1124 -174 1174 -127 q 1030 -221 1075 -221 q 966 -190 991 -221 q 929 -105 941 -159 q 916 21 917 -52 q 924 179 916 94 q 949 358 932 265 q 988 546 966 451 q 1037 731 1010 640 q 1093 903 1064 822 q 977 685 1037 798 q 853 461 917 571 q 723 247 790 350 q 584 60 656 145 q 646 -16 616 22 q 709 -92 677 -55 q 773 -161 740 -128 q 843 -218 806 -193 q 919 -256 879 -242 q 1006 -271 960 -271 q 1081 -255 1043 -271 q 1155 -214 1118 -240 q 1228 -154 1192 -188 q 1297 -83 1263 -121 q 1360 -9 1330 -46 q 1416 61 1390 28 q 1484 147 1456 111 q 1530 205 1512 182 q 1564 250 1551 232 l 1571 241 q 1540 199 1560 225 q 1494 142 1522 177 q 1425 54 1466 106 m 252 220 q 152 202 200 220 q 65 156 105 185 q -3 91 25 127 q -47 17 -32 55 q -59 -57 -62 -21 q -33 -122 -57 -93 q 35 -168 -10 -151 q 156 -186 82 -186 q 260 -167 210 -186 q 358 -114 310 -148 q 452 -31 406 -79 q 542 75 498 16 q 482 131 513 105 q 415 178 451 158 q 339 208 380 197 q 252 220 299 220 "},"2":{"x_min":-28.328125,"x_max":598.265625,"ha":503,"o":"m 267 317 q 257 299 266 307 q 237 292 248 292 q 225 295 230 292 q 185 336 194 308 q 185 399 176 365 q 222 469 195 433 q 289 535 248 505 q 381 584 329 565 q 494 603 433 603 q 565 584 540 603 q 596 534 590 565 q 589 459 602 502 q 546 369 576 417 q 468 272 516 322 q 358 174 421 221 q 217 85 295 126 q 47 12 139 43 q 122 2 93 12 q 170 -22 151 -6 q 199 -57 188 -38 q 219 -98 210 -77 q 236 -138 227 -118 q 261 -173 246 -158 q 300 -198 276 -189 q 363 -208 325 -208 l 362 -217 q 280 -210 314 -217 q 224 -194 247 -204 q 186 -170 201 -184 q 161 -140 171 -156 q 145 -108 152 -125 q 130 -76 138 -91 q 111 -46 122 -60 q 82 -22 100 -32 q 37 -6 64 -12 q -28 0 11 0 l -27 11 q 89 44 29 17 q 208 114 150 72 q 319 206 266 155 q 415 309 372 257 q 485 411 457 361 q 522 499 513 460 q 516 560 531 537 q 459 584 502 584 q 375 570 415 584 q 304 535 336 556 q 250 485 272 513 q 215 430 227 458 q 205 376 204 402 q 224 332 207 350 q 246 343 233 343 q 263 335 257 343 q 267 317 270 328 "},"j":{"x_min":-574.765625,"x_max":373.453125,"ha":174,"o":"m 33 220 l 160 386 q 160 387 160 387 q 161 388 161 388 q 161 389 161 389 l 237 389 q 189 296 216 347 q 135 192 166 252 q 66 63 103 133 l 229 246 l 235 241 l 47 27 q -33 -121 9 -43 q -121 -276 -76 -198 q -210 -429 -165 -353 q -298 -570 -256 -504 q -381 -692 -341 -637 q -454 -785 -420 -747 q -513 -841 -487 -823 q -556 -850 -540 -858 q -574 -817 -574 -841 q -560 -758 -575 -793 q -518 -677 -545 -722 q -455 -581 -491 -632 q -375 -473 -418 -529 q -285 -358 -332 -416 q -191 -242 -238 -300 q -97 -129 -143 -184 q -23 15 -58 -54 q 42 146 12 86 q 97 256 73 207 q 136 337 121 306 l 38 210 l 33 220 m -549 -829 q -511 -816 -536 -838 q -453 -748 -487 -793 q -380 -638 -420 -703 q -297 -498 -341 -574 q -208 -338 -253 -422 q -118 -169 -162 -253 q -206 -276 -162 -221 q -292 -383 -250 -330 q -373 -488 -335 -437 q -445 -586 -412 -540 q -503 -673 -478 -633 q -542 -746 -528 -714 q -559 -799 -557 -777 q -549 -829 -562 -820 m 372 646 q 357 620 370 631 q 329 610 344 610 q 305 620 313 610 q 299 646 296 631 q 314 672 302 661 q 342 683 326 683 q 366 672 357 683 q 372 646 375 661 "},"Z":{"x_min":-146.125,"x_max":1847.375,"ha":753,"o":"m 818 259 q 821 255 820 258 q 822 252 822 254 q 822 250 823 250 q 761 175 792 213 q 697 100 730 137 q 630 30 663 64 q 562 -32 596 -3 q 667 -108 616 -66 q 768 -195 718 -150 q 867 -285 817 -240 q 969 -369 917 -330 q 1079 -277 1026 -322 q 1184 -195 1132 -231 q 1288 -138 1236 -160 q 1399 -117 1341 -117 q 1495 -134 1455 -117 q 1560 -180 1536 -151 q 1592 -245 1584 -209 q 1594 -320 1601 -281 q 1566 -394 1587 -358 q 1510 -459 1545 -431 q 1427 -505 1475 -488 q 1317 -523 1378 -523 q 1214 -514 1263 -523 q 1120 -488 1165 -505 q 1032 -449 1074 -472 q 949 -400 989 -427 q 832 -485 893 -444 q 701 -558 771 -526 q 551 -610 631 -591 q 378 -630 471 -630 q 260 -611 310 -630 q 175 -561 209 -592 q 125 -492 142 -530 q 109 -412 109 -453 q 125 -332 109 -371 q 175 -261 142 -292 q 256 -212 207 -231 q 368 -193 304 -193 l 365 -201 q 260 -218 305 -201 q 185 -265 215 -236 q 140 -332 155 -295 q 125 -409 125 -369 q 141 -485 125 -448 q 188 -551 157 -522 q 267 -598 220 -581 q 377 -616 314 -616 q 548 -598 469 -616 q 696 -548 627 -579 q 825 -477 765 -517 q 939 -393 885 -437 q 831 -312 883 -356 q 728 -225 779 -268 q 626 -140 677 -181 q 523 -64 576 -98 q 463 -106 492 -88 q 406 -134 433 -124 q 352 -146 378 -144 q 305 -138 327 -148 q 265 -108 278 -127 q 250 -67 252 -90 q 256 -21 248 -45 q 277 25 263 3 q 186 22 233 29 q 87 -1 138 16 q -18 -49 36 -19 q -134 -125 -73 -80 l -146 -115 l 1431 1149 q 1276 1089 1347 1105 q 1143 1074 1205 1072 q 1027 1093 1081 1076 q 923 1134 972 1110 q 827 1185 873 1158 q 734 1234 781 1212 q 640 1270 688 1257 q 539 1281 592 1284 q 425 1252 475 1277 q 339 1189 375 1228 q 281 1104 303 1151 q 254 1008 260 1057 q 257 914 248 959 q 292 833 267 868 q 359 779 317 799 q 460 763 401 760 q 537 783 504 766 q 590 823 570 799 q 616 872 610 846 q 614 920 622 899 q 583 955 606 942 q 518 967 559 969 l 520 971 q 582 965 557 973 q 620 942 606 957 q 636 908 633 927 q 632 867 638 888 q 611 825 626 846 q 575 788 596 805 q 525 760 553 771 q 463 748 496 749 q 353 765 400 744 q 277 823 307 786 q 235 909 247 860 q 227 1009 222 957 q 255 1112 232 1061 q 319 1204 278 1163 q 421 1273 361 1246 q 560 1305 481 1300 q 686 1296 627 1308 q 801 1263 746 1284 q 908 1218 856 1243 q 1013 1172 960 1193 q 1120 1136 1065 1150 q 1233 1121 1174 1121 q 1359 1141 1293 1122 q 1501 1206 1425 1161 l 1737 1395 q 1739 1397 1738 1396 q 1742 1399 1741 1398 l 1742 1399 l 1834 1472 l 1847 1460 q 1820 1439 1835 1451 q 1788 1413 1807 1428 q 1746 1380 1770 1399 q 1639 1288 1690 1329 q 1540 1214 1587 1247 q 1369 1078 1461 1152 q 1177 924 1277 1004 q 973 761 1077 845 q 766 595 868 677 q 565 434 663 512 q 380 286 467 356 q 220 157 293 216 q 94 56 147 99 q 12 -9 41 14 q -17 -34 -17 -33 q 149 34 71 14 q 296 53 226 54 q 322 79 308 67 q 350 99 336 91 q 380 111 365 108 q 408 112 395 114 l 405 106 q 382 105 395 108 q 357 95 370 102 q 332 76 345 87 q 309 52 320 65 q 436 27 376 48 q 552 -26 496 6 q 602 18 577 -4 q 651 66 627 42 q 696 113 674 90 q 736 159 717 137 q 818 259 779 209 m 1320 -506 q 1412 -491 1371 -506 q 1483 -451 1453 -476 q 1530 -393 1512 -426 q 1554 -328 1549 -361 q 1553 -262 1560 -295 q 1526 -205 1546 -230 q 1472 -165 1506 -180 q 1390 -150 1438 -150 q 1285 -169 1335 -150 q 1184 -220 1234 -188 q 1083 -292 1134 -251 q 979 -376 1033 -333 q 1057 -428 1017 -405 q 1138 -469 1096 -452 q 1226 -496 1181 -487 q 1320 -506 1271 -506 m 291 25 q 276 -12 281 7 q 274 -52 271 -32 q 289 -88 277 -71 q 326 -118 301 -105 q 365 -127 343 -127 q 410 -117 386 -126 q 460 -93 435 -109 q 513 -57 486 -77 q 406 -3 461 -25 q 291 25 351 18 "},"u":{"x_min":-24.46875,"x_max":395.59375,"ha":349,"o":"m 300 388 l 376 388 q 291 233 327 303 q 261 174 276 203 q 236 120 247 144 q 221 77 226 95 q 218 53 216 59 q 230 51 221 47 q 251 66 238 55 q 278 93 263 77 q 309 127 293 109 q 389 227 345 169 l 395 218 q 308 112 350 159 q 272 73 291 92 q 235 38 253 53 q 201 12 217 22 q 174 0 186 1 q 150 2 160 -2 q 138 19 141 6 q 141 56 136 33 q 160 114 146 79 q 121 68 141 89 q 83 31 102 47 q 46 8 63 16 q 13 0 28 0 q -15 15 -6 0 q -24 56 -25 30 q -13 117 -23 82 q 18 194 -2 153 q 61 271 40 236 q 101 332 83 306 q 140 388 121 362 l 212 388 q 170 323 191 356 q 132 260 152 295 q 96 194 112 226 q 67 132 80 162 q 48 79 55 102 q 42 42 41 56 q 53 29 43 29 q 76 37 62 29 q 106 61 90 46 q 139 98 122 77 q 173 145 157 120 q 224 249 193 189 q 300 388 255 308 "},"1":{"x_min":-5.5625,"x_max":497.8125,"ha":420,"o":"m 131 272 q 179 282 154 272 q 228 311 203 293 q 278 352 253 329 q 325 401 302 375 l 326 403 l 465 591 l 465 592 l 476 591 q 385 458 427 513 q 306 365 342 403 l 325 401 q 380 468 355 434 q 424 530 405 502 q 465 592 446 562 l 472 603 l 497 603 l 192 12 l 305 12 l 302 -1 l -5 -1 l -3 12 l 123 12 l 306 365 q 229 297 262 320 q 173 264 196 274 q 126 254 146 253 l 131 272 l 131 272 "},"k":{"x_min":-78.890625,"x_max":732.1875,"ha":377,"o":"m -78 0 q 268 645 107 365 q 360 802 313 725 q 450 949 406 880 q 535 1075 494 1018 q 610 1172 575 1132 q 671 1230 644 1211 q 715 1240 698 1248 q 732 1201 733 1230 q 711 1129 730 1172 q 659 1030 692 1085 q 584 911 626 974 q 492 780 542 848 q 391 645 443 713 q 287 511 339 577 q 188 387 235 445 q 103 218 141 295 q 38 87 65 140 q 83 148 58 115 q 135 215 107 182 q 190 280 162 249 q 246 336 219 312 q 299 375 274 360 q 345 390 325 390 q 381 375 370 390 q 391 338 392 360 q 379 291 391 316 q 345 245 367 266 q 293 211 323 224 q 227 202 263 199 q 196 132 206 165 q 189 104 192 118 q 188 77 187 90 q 195 54 190 64 q 212 38 200 44 q 238 37 223 32 q 270 55 253 42 q 303 85 286 67 q 337 122 321 103 q 416 230 375 168 l 426 225 q 344 113 387 162 q 305 72 326 92 q 263 36 285 52 q 219 11 241 20 q 176 2 197 2 q 142 12 153 2 q 126 38 130 22 q 125 75 122 54 q 133 117 127 95 q 179 233 147 168 q 235 218 208 215 q 282 237 261 221 q 318 275 303 252 q 340 320 333 298 q 344 357 347 342 q 328 372 342 372 q 287 356 311 372 q 236 314 263 340 q 181 254 210 288 q 126 186 153 221 q -3 0 63 104 l -78 0 m 708 1219 q 678 1211 697 1226 q 632 1163 658 1196 q 574 1083 606 1131 q 507 976 542 1035 q 434 850 472 917 q 358 712 396 782 q 282 568 320 641 q 209 427 244 496 q 303 547 255 485 q 399 672 352 609 q 492 798 447 736 q 576 919 537 861 q 645 1027 615 976 q 694 1117 676 1078 q 717 1183 712 1157 q 708 1219 721 1210 "},"€":{"x_min":12.984375,"x_max":1266.390625,"ha":742,"o":"m 414 273 l 125 273 q 84 137 100 202 q 64 17 68 73 q 67 -85 60 -39 q 96 -163 75 -131 q 154 -214 118 -196 q 244 -232 191 -232 q 321 -212 279 -232 q 407 -160 362 -192 q 496 -86 451 -127 q 583 -2 541 -45 q 782 228 681 98 l 791 219 q 585 -15 686 87 q 496 -101 542 -59 q 405 -176 450 -143 q 317 -229 360 -209 q 240 -250 275 -250 q 138 -231 181 -250 q 68 -178 95 -212 q 27 -97 40 -145 q 13 8 13 -50 q 23 133 12 66 q 56 273 35 200 l 32 273 l 34 286 l 60 286 q 73 326 66 306 q 87 368 80 346 l 71 368 l 73 381 l 92 381 q 170 561 125 469 q 269 742 215 652 q 385 916 323 831 q 514 1076 447 1001 q 652 1214 581 1151 q 796 1322 723 1277 q 941 1392 868 1367 q 1085 1418 1014 1418 q 1185 1396 1146 1418 q 1244 1338 1225 1375 q 1266 1253 1264 1302 q 1254 1150 1267 1205 q 1214 1037 1241 1095 q 1150 924 1187 979 q 1067 821 1113 870 q 970 736 1021 772 q 862 678 918 700 q 749 657 806 657 q 660 674 692 657 q 615 720 627 692 q 609 785 603 749 q 633 860 615 822 q 681 935 652 899 q 744 1000 710 971 q 815 1046 778 1029 q 887 1064 852 1064 q 921 1058 907 1064 q 944 1044 935 1053 q 958 1025 953 1036 q 966 1003 963 1014 q 965 943 971 976 l 952 937 q 957 994 960 969 q 951 1015 955 1005 q 938 1033 946 1025 q 915 1046 929 1041 q 882 1051 902 1051 q 830 1035 858 1051 q 775 992 802 1019 q 722 931 747 965 q 680 862 697 897 q 655 792 662 826 q 653 732 647 759 q 683 689 660 705 q 752 673 707 673 q 841 693 795 673 q 933 748 887 713 q 1023 830 980 783 q 1104 929 1067 876 q 1170 1037 1141 981 q 1216 1144 1200 1092 q 1235 1244 1232 1197 q 1221 1325 1237 1290 q 1169 1381 1205 1360 q 1072 1401 1132 1401 q 961 1375 1020 1400 q 840 1304 902 1349 q 714 1198 778 1260 q 588 1062 651 1136 q 466 905 526 988 q 351 734 406 822 q 250 557 297 646 q 167 381 203 467 l 455 381 l 453 368 l 161 368 q 145 326 152 346 q 130 286 137 305 l 416 286 l 414 273 "},"<":{"x_min":40.5625,"x_max":361.703125,"ha":254,"o":"m 361 414 l 353 391 l 70 228 l 152 58 l 137 28 l 40 232 l 361 414 "},"t":{"x_min":-95.5625,"x_max":653.796875,"ha":248,"o":"m 615 461 l 247 461 q 213 418 230 439 q 178 376 196 397 q 133 283 152 323 q 105 224 114 244 q 71 146 83 178 q 57 95 60 115 q 60 64 54 75 q 78 48 66 53 q 101 51 87 45 q 131 68 115 56 q 166 96 148 80 q 201 130 183 112 q 287 226 241 171 l 291 217 q 196 110 238 152 q 120 44 154 68 q 60 10 87 19 q 11 1 33 1 q -11 9 -3 1 q -22 33 -20 18 q -23 66 -25 47 q -16 104 -21 84 q -3 143 -11 124 q 11 178 3 162 q 27 210 15 186 q 60 272 40 235 q 106 358 80 310 q 162 461 132 407 l -95 461 l -93 474 l 170 474 q 256 626 211 547 q 347 779 301 704 q 437 921 393 854 q 519 1035 481 987 q 587 1108 557 1083 q 633 1124 617 1132 q 653 1079 656 1112 q 626 997 650 1046 q 564 886 603 948 q 475 757 525 825 q 370 616 426 688 q 258 474 314 544 l 617 474 l 615 461 m 627 1103 q 590 1087 615 1111 q 533 1016 566 1063 q 461 905 500 969 q 383 767 423 840 q 303 619 343 695 q 228 475 263 543 l 245 475 q 353 612 300 542 q 455 748 407 682 q 542 874 503 815 q 605 980 581 933 q 636 1059 630 1027 q 627 1103 643 1091 m 221 461 q 210 438 215 450 q 198 416 204 427 q 216 438 208 427 q 235 461 225 450 l 221 461 "},"W":{"x_min":135.671875,"x_max":2114.484375,"ha":1133,"o":"m 1186 1276 l 1246 1276 q 885 568 1030 879 q 806 392 843 479 q 738 226 768 305 q 688 80 708 148 q 662 -35 668 13 q 667 -113 656 -85 q 707 -140 677 -140 q 777 -102 738 -140 q 862 3 816 -63 q 960 159 907 70 q 1070 348 1012 248 q 1191 554 1128 449 q 1321 760 1254 660 q 1457 949 1387 860 q 1600 1105 1527 1038 q 1746 1211 1672 1172 q 1895 1250 1820 1250 q 2012 1230 1965 1250 q 2083 1179 2058 1211 q 2112 1107 2107 1148 q 2106 1025 2117 1067 q 2068 942 2095 982 q 2003 870 2041 901 q 1915 819 1964 838 q 1811 799 1866 799 q 1735 808 1764 799 q 1690 833 1706 818 q 1669 867 1674 848 q 1665 906 1664 886 q 1706 1014 1670 954 l 1710 1005 q 1679 931 1685 965 q 1685 870 1673 896 q 1726 829 1697 844 q 1802 814 1756 814 q 1894 831 1851 814 q 1970 876 1936 848 q 2028 938 2004 903 q 2063 1010 2052 974 q 2070 1082 2074 1047 q 2047 1145 2067 1118 q 1989 1190 2027 1173 q 1891 1207 1950 1207 q 1769 1181 1829 1207 q 1649 1110 1708 1155 q 1533 1004 1590 1065 q 1421 869 1476 942 q 1314 716 1366 796 q 1210 552 1261 635 q 1113 386 1160 469 q 1021 229 1065 304 q 990 167 1005 200 q 962 104 974 134 q 944 49 951 74 q 941 12 938 24 q 957 2 943 0 q 1000 31 971 5 q 1073 106 1028 56 q 1183 240 1118 157 q 1185 236 1183 240 q 1186 232 1185 234 q 1081 98 1126 150 q 1004 18 1036 46 q 953 -13 972 -8 q 928 -5 935 -18 q 925 35 921 6 q 945 102 930 63 q 874 -4 908 44 q 809 -87 840 -52 q 749 -141 777 -122 q 695 -160 720 -160 q 637 -139 657 -160 q 611 -81 617 -118 q 613 8 606 -43 q 638 124 621 61 q 683 258 656 187 q 741 405 709 329 q 656 263 700 333 q 569 129 613 193 q 483 11 526 65 q 400 -82 440 -43 q 323 -145 360 -122 q 255 -167 286 -167 q 155 -125 178 -167 q 146 -9 132 -82 q 204 160 160 63 q 307 368 248 258 q 431 594 366 478 q 554 822 497 711 q 651 1032 611 933 q 702 1208 692 1132 q 680 1331 711 1284 q 565 1383 650 1377 q 433 1373 493 1387 q 326 1329 373 1358 q 245 1261 279 1301 q 189 1176 211 1222 q 158 1082 167 1131 q 152 987 148 1034 q 171 899 155 941 q 216 826 187 858 q 285 777 244 795 q 379 759 326 759 l 373 752 q 274 771 317 752 q 201 822 231 790 q 155 896 171 854 q 136 987 139 939 q 143 1085 133 1035 q 176 1183 153 1135 q 235 1271 199 1230 q 320 1342 271 1312 q 431 1388 370 1372 q 568 1401 493 1404 q 710 1350 667 1396 q 753 1228 752 1303 q 722 1053 755 1153 q 636 844 688 954 q 520 617 583 733 q 395 391 456 500 q 283 184 333 281 q 208 14 233 86 q 191 -101 183 -58 q 255 -143 199 -143 q 333 -115 291 -143 q 421 -36 375 -86 q 516 78 467 12 q 614 221 565 145 q 709 378 662 296 q 799 537 756 459 q 864 674 831 605 q 930 807 897 742 q 995 932 963 872 q 1056 1044 1027 992 q 1186 1276 1122 1167 m 741 405 q 742 406 741 406 q 741 405 741 406 "},"v":{"x_min":-6.59375,"x_max":369.46875,"ha":304,"o":"m 178 388 q 110 217 136 292 q 90 154 98 185 q 77 100 81 124 q 76 61 73 76 q 92 47 80 47 q 120 58 103 47 q 155 87 136 69 q 194 130 174 105 q 233 180 215 154 q 205 207 216 188 q 191 249 195 226 q 193 296 188 272 q 211 341 197 321 q 247 374 225 361 q 302 388 270 388 q 328 373 322 388 q 328 335 334 359 q 307 280 322 311 q 270 216 292 249 q 308 213 285 207 q 362 252 331 220 l 369 247 q 331 208 349 223 q 298 185 313 193 q 268 175 282 177 q 242 177 254 173 q 188 109 217 142 q 131 52 160 77 q 76 13 102 27 q 30 0 50 -1 q 0 18 8 1 q -6 62 -7 35 q 3 125 -5 90 q 25 196 12 160 q 107 388 55 281 l 178 388 m 294 368 q 268 360 279 368 q 251 338 258 351 q 242 309 245 325 q 241 277 240 293 q 248 246 242 261 q 262 222 253 232 q 293 277 280 251 q 311 323 306 303 q 313 356 317 343 q 294 368 310 368 "},">":{"x_min":4.4375,"x_max":325.578125,"ha":254,"o":"m 4 28 l 12 50 l 296 213 l 213 383 l 228 414 l 325 209 l 4 28 "},"s":{"x_min":-43.171875,"x_max":337.8125,"ha":270,"o":"m 49 107 q 38 89 47 97 q 19 82 30 82 q 0 93 5 82 q -26 67 -19 83 q -29 37 -33 51 q -6 15 -24 23 q 41 14 10 7 q 84 42 65 19 q 117 99 103 65 q 142 172 132 132 q 160 249 153 211 q 171 319 167 287 q 176 369 175 351 l 35 208 l 23 208 q 82 276 55 244 q 131 332 110 308 q 164 371 152 356 q 178 387 177 385 l 178 388 l 247 388 q 223 214 239 283 q 185 101 207 144 l 331 249 l 337 241 l 159 60 q 103 14 133 27 q 41 -1 73 1 q -1 1 16 -4 q -29 17 -18 6 q -42 42 -39 28 q -39 72 -45 56 q -21 102 -34 87 q 12 128 -8 116 q 28 133 20 133 q 45 126 38 133 q 49 107 51 118 m 186 381 q 186 381 186 381 l 186 381 "},"B":{"x_min":30.375,"x_max":2124.0625,"ha":2058,"o":"m 1906 1162 q 1998 1142 1962 1162 q 2051 1088 2034 1122 q 2064 1012 2067 1055 q 2042 923 2062 969 q 1984 831 2022 877 q 1894 748 1947 786 q 1772 682 1841 709 q 1620 646 1703 655 q 1806 609 1729 637 q 1932 539 1884 581 q 2002 443 1981 497 q 2021 331 2024 389 q 1993 211 2019 272 q 1921 93 1967 150 q 2019 148 1971 111 q 2115 249 2067 186 l 2124 243 q 2015 129 2071 171 q 1901 69 1959 87 q 1789 -30 1854 16 q 1647 -111 1725 -77 q 1476 -166 1568 -146 q 1282 -187 1385 -187 q 1044 -159 1146 -187 q 870 -87 941 -132 q 702 -159 794 -134 q 496 -184 611 -184 q 298 -160 382 -184 q 158 -96 215 -136 q 70 -2 101 -56 q 32 112 40 51 q 40 236 25 172 q 88 361 54 301 q 175 476 122 422 q 296 570 227 529 q 447 634 364 610 q 625 657 530 657 q 765 641 707 657 q 861 598 824 625 q 915 538 898 572 q 930 467 931 503 q 934 467 932 467 q 939 468 936 468 q 1056 447 997 468 q 1175 394 1115 427 q 1231 498 1202 444 q 1292 611 1260 552 l 1292 611 q 1294 612 1292 611 q 1327 681 1307 641 q 1372 769 1347 721 q 1425 869 1397 816 q 1486 978 1454 922 q 1552 1089 1517 1033 q 1621 1198 1586 1146 q 1499 1143 1557 1171 q 1393 1086 1440 1115 q 1316 1027 1346 1057 q 1280 965 1286 997 q 1278 937 1277 949 q 1283 915 1279 924 q 1292 900 1286 906 q 1303 891 1297 894 q 1337 882 1317 882 l 1335 876 q 1273 879 1300 872 q 1252 888 1262 883 q 1235 904 1242 894 q 1225 927 1228 913 q 1226 960 1222 941 q 1249 1008 1230 984 q 1297 1054 1267 1032 q 1365 1099 1326 1077 q 1448 1142 1404 1121 q 1541 1184 1492 1163 q 1638 1224 1589 1204 q 1743 1365 1690 1301 q 1845 1468 1796 1429 q 1939 1517 1895 1508 q 2017 1493 1982 1526 q 2040 1453 2039 1473 q 2026 1413 2041 1433 q 1983 1373 2011 1393 q 1916 1332 1955 1352 q 1832 1290 1878 1311 q 1737 1248 1786 1270 q 1666 1131 1702 1194 q 1589 997 1629 1068 q 1651 1059 1617 1029 q 1724 1111 1685 1088 q 1809 1148 1764 1134 q 1906 1162 1855 1162 m 500 -172 q 600 -165 553 -172 q 688 -146 647 -159 q 768 -113 730 -133 q 840 -68 805 -94 q 759 7 791 -33 q 708 92 726 48 q 685 181 690 136 q 689 266 681 225 q 680 266 685 266 q 672 266 676 266 q 581 278 613 266 q 536 311 550 291 q 526 354 523 331 q 541 398 530 377 q 569 435 552 420 q 601 456 586 451 l 603 452 q 576 435 590 448 q 553 403 562 421 q 543 365 544 385 q 555 328 542 345 q 599 301 568 312 q 684 290 630 290 l 695 290 q 724 354 705 324 q 769 407 742 384 q 830 445 796 430 q 904 465 863 460 q 896 532 908 499 q 850 590 883 565 q 761 632 817 616 q 623 648 705 648 q 453 625 531 648 q 311 562 375 602 q 201 470 248 523 q 125 359 154 418 q 84 238 95 300 q 81 116 72 175 q 119 5 90 57 q 200 -86 148 -47 q 326 -149 251 -126 q 500 -172 401 -172 m 1331 533 q 1284 443 1307 487 q 1237 357 1261 400 q 1339 293 1288 327 q 1441 225 1390 258 q 1543 163 1492 192 q 1646 112 1595 133 q 1748 81 1697 91 q 1849 75 1799 70 q 1915 200 1893 135 q 1936 328 1937 265 q 1911 448 1935 391 q 1838 547 1887 505 q 1715 615 1789 590 q 1543 641 1642 641 l 1540 648 q 1692 670 1622 648 q 1816 727 1761 692 q 1911 807 1871 762 q 1977 899 1952 852 q 2010 991 2001 946 q 2011 1072 2019 1036 q 1977 1128 2002 1107 q 1907 1150 1951 1150 q 1800 1135 1850 1150 q 1702 1084 1750 1119 q 1607 992 1655 1049 q 1508 851 1560 935 q 1423 696 1466 776 q 1333 533 1379 617 l 1331 533 m 1215 317 q 1142 195 1179 253 q 1063 87 1104 137 q 978 -5 1023 37 q 881 -81 932 -47 q 1051 -147 951 -122 q 1284 -172 1151 -172 q 1463 -154 1380 -172 q 1614 -106 1546 -137 q 1737 -34 1683 -76 q 1832 54 1792 6 q 1727 58 1780 49 q 1621 85 1674 66 q 1516 131 1568 105 q 1412 189 1464 158 q 1312 253 1361 220 q 1215 317 1262 286 m 849 -61 q 928 13 890 -28 q 1003 107 966 55 q 1077 221 1040 160 q 1155 355 1115 283 q 1033 421 1090 395 q 928 447 976 447 q 905 385 923 415 q 858 329 887 354 q 790 288 829 305 q 703 267 750 272 q 697 184 693 227 q 718 97 700 140 q 767 13 735 54 q 849 -61 800 -27 m 2010 1475 q 1964 1498 1991 1501 q 1905 1467 1938 1495 q 1834 1389 1873 1440 q 1751 1270 1795 1339 q 1833 1305 1794 1287 q 1905 1340 1872 1322 q 1964 1374 1939 1357 q 2003 1408 1989 1391 q 2020 1442 2017 1425 q 2010 1475 2022 1459 m 709 291 q 777 309 745 295 q 833 344 808 323 q 876 391 858 365 q 900 446 893 417 q 834 429 865 442 q 779 395 803 416 q 737 348 755 375 q 709 291 720 321 "},"?":{"x_min":-69.125,"x_max":710.9375,"ha":436,"o":"m 345 616 q 335 599 343 606 q 317 591 326 592 l 316 591 l 315 591 l 311 591 q 239 610 268 592 q 195 657 210 628 q 177 723 179 686 q 187 797 175 759 q 225 871 199 835 q 293 936 252 907 q 390 981 333 964 q 517 999 446 999 q 626 982 583 999 q 689 938 668 966 q 710 872 710 910 q 695 792 711 835 q 646 702 678 749 q 569 610 614 656 q 466 522 523 565 q 343 446 410 480 q 246 378 291 418 q 168 294 202 338 q 110 208 133 251 q 75 132 86 166 q 70 134 72 133 q 65 134 68 134 q 62 132 63 134 q 99 216 75 170 q 157 308 123 262 q 234 397 191 354 q 328 472 277 440 q 437 552 387 510 q 526 638 487 595 q 594 724 566 681 q 636 806 622 767 q 652 878 651 845 q 638 935 653 911 q 592 974 623 960 q 511 987 561 987 q 397 972 448 987 q 309 932 347 957 q 245 876 271 907 q 206 811 220 844 q 192 744 193 777 q 202 686 191 712 q 236 643 213 660 q 295 623 260 625 q 307 636 299 631 q 323 642 315 642 q 340 634 334 642 q 345 616 347 627 m 6 -99 q -15 -126 0 -115 q -46 -138 -31 -138 q -66 -126 -60 -138 q -65 -98 -72 -114 q -43 -71 -58 -82 q -12 -60 -27 -60 q 7 -71 1 -60 q 6 -99 13 -83 "},"H":{"x_min":-77.875,"x_max":2978.1875,"ha":1662,"o":"m 1721 250 l 1722 233 q 1567 78 1651 151 q 1489 13 1531 46 q 1399 -49 1447 -18 q 1300 -105 1352 -79 q 1193 -149 1248 -131 q 1313 -283 1250 -220 q 1450 -395 1376 -347 q 1612 -472 1524 -444 q 1809 -500 1701 -500 q 1994 -483 1914 -500 q 2132 -436 2074 -465 q 2226 -369 2190 -406 q 2279 -294 2262 -333 q 2295 -218 2296 -255 q 2277 -152 2294 -181 q 2227 -105 2260 -123 q 2150 -87 2195 -87 q 2101 -91 2123 -87 q 2059 -103 2078 -96 q 2025 -120 2040 -111 q 2000 -139 2011 -129 q 1957 -191 1973 -162 l 1950 -190 q 1993 -132 1966 -158 q 2020 -111 2005 -121 q 2055 -92 2036 -100 q 2099 -79 2075 -84 q 2152 -74 2123 -74 q 2235 -93 2200 -74 q 2291 -144 2271 -112 q 2316 -216 2312 -175 q 2305 -298 2320 -256 q 2253 -381 2289 -340 q 2156 -453 2216 -421 q 2011 -503 2096 -484 q 1811 -523 1925 -523 q 1600 -493 1694 -523 q 1429 -413 1506 -463 q 1288 -296 1352 -362 q 1166 -158 1224 -230 q 1115 -170 1141 -165 q 1063 -178 1090 -175 q 1063 -178 1063 -178 q 1017 -183 1040 -180 q 971 -185 995 -185 q 846 -170 902 -185 q 746 -127 790 -154 q 629 -230 688 -184 q 506 -308 569 -275 q 377 -358 443 -340 q 242 -376 311 -376 q 105 -354 163 -376 q 7 -294 46 -332 q -53 -206 -32 -256 q -77 -99 -73 -155 q -66 17 -80 -42 q -23 133 -53 76 q 51 240 6 190 q 156 328 96 291 q 291 388 216 366 q 452 410 365 410 q 581 396 522 410 q 695 357 641 382 q 766 427 725 393 q 858 490 806 460 q 996 537 920 524 q 1152 544 1072 550 q 1288 760 1220 653 q 1427 964 1357 867 q 1568 1143 1496 1060 q 1714 1285 1639 1225 q 1867 1380 1789 1345 q 2027 1414 1945 1414 l 2023 1407 q 1887 1372 1954 1407 q 1755 1278 1821 1338 q 1625 1135 1690 1217 q 1496 955 1561 1052 q 1365 750 1431 858 q 1231 533 1299 643 q 1353 496 1295 520 q 1457 437 1411 472 q 1533 358 1503 403 q 1569 259 1562 313 q 1687 449 1630 350 q 1802 650 1745 549 q 1918 850 1860 751 q 2037 1039 1976 949 q 2164 1205 2099 1129 q 2303 1338 2230 1282 q 2456 1426 2375 1394 q 2629 1458 2537 1458 q 2799 1436 2729 1458 q 2911 1378 2869 1414 q 2968 1296 2953 1342 q 2975 1202 2983 1250 q 2936 1108 2966 1154 q 2854 1026 2905 1062 q 2736 968 2804 990 q 2584 946 2667 946 q 2487 955 2526 946 q 2425 978 2449 964 q 2392 1010 2402 992 q 2379 1047 2381 1028 q 2406 1148 2374 1091 l 2410 1148 q 2412 1148 2411 1148 q 2415 1148 2414 1148 q 2388 1077 2391 1112 q 2404 1016 2384 1043 q 2468 972 2424 989 q 2584 955 2512 955 q 2724 976 2661 955 q 2834 1032 2787 998 q 2910 1110 2881 1066 q 2949 1200 2940 1154 q 2945 1290 2958 1246 q 2895 1369 2933 1334 q 2795 1424 2858 1403 q 2639 1445 2731 1445 q 2474 1412 2551 1445 q 2330 1319 2398 1378 q 2201 1179 2262 1260 q 2082 1005 2140 1099 q 1968 808 2024 911 q 1855 600 1912 705 q 1737 395 1797 496 q 1610 203 1677 293 q 1468 37 1543 112 q 1307 -90 1393 -38 q 1398 -38 1350 -68 q 1500 33 1447 -7 q 1608 128 1552 75 q 1721 250 1664 182 m 677 335 q 567 370 625 358 q 442 383 509 383 q 286 362 357 383 q 158 306 215 341 q 58 223 101 270 q -11 122 15 175 q -51 12 -39 68 q -59 -97 -63 -44 q -35 -198 -55 -151 q 23 -281 -14 -246 q 117 -338 61 -317 q 246 -358 172 -358 q 367 -340 308 -358 q 483 -287 426 -321 q 595 -205 540 -253 q 703 -97 650 -156 q 633 -8 658 -59 q 603 100 607 42 q 616 217 598 157 q 677 335 635 277 m 1218 512 q 1095 318 1157 414 q 967 133 1033 223 q 1072 5 1021 71 q 1175 -127 1122 -61 q 1269 -73 1223 -105 q 1357 0 1314 -41 q 1440 86 1400 39 q 1519 187 1480 134 q 1503 297 1524 245 q 1440 392 1481 350 q 1342 466 1399 435 q 1218 512 1285 497 m 882 480 q 783 421 826 453 q 708 350 740 388 q 821 277 769 320 q 921 184 873 235 q 1031 351 977 266 q 1140 525 1085 437 q 1010 520 1076 530 q 882 480 945 509 m 715 -85 q 812 32 765 -30 q 907 164 860 95 q 806 257 859 215 q 691 328 753 299 q 636 219 653 276 q 622 107 618 162 q 649 2 625 52 q 715 -85 672 -47 m 973 -172 q 1064 -163 1020 -172 q 1150 -137 1108 -154 q 1052 -9 1100 -73 q 953 114 1004 54 q 857 -7 905 50 q 757 -116 808 -65 q 852 -158 798 -143 q 973 -172 906 -172 m 2415 1148 l 2415 1148 q 2416 1148 2415 1148 q 2415 1148 2416 1148 "},"c":{"x_min":-20.78125,"x_max":343.921875,"ha":284,"o":"m 265 390 q 293 378 286 390 q 298 349 300 367 q 286 311 296 332 q 263 271 276 290 q 235 237 250 252 q 208 217 220 222 q 196 215 203 215 q 179 222 186 215 q 175 240 173 230 q 186 258 177 251 q 205 266 195 266 q 225 253 219 266 q 245 269 234 258 q 266 295 256 281 q 281 323 275 308 q 288 350 288 338 q 281 370 288 362 q 255 377 273 377 q 220 365 240 377 q 181 332 201 353 q 139 285 160 312 q 100 228 118 258 q 68 169 82 199 q 46 113 54 140 q 39 66 38 87 q 51 34 40 46 q 80 25 62 22 q 121 41 98 28 q 168 74 143 54 q 216 117 192 94 q 337 245 272 170 l 343 238 q 235 118 289 171 q 187 75 212 96 q 137 37 162 53 q 88 10 112 20 q 44 0 65 0 q -3 16 12 0 q -20 60 -18 33 q -11 123 -22 88 q 18 195 -1 158 q 66 266 38 231 q 126 329 93 301 q 193 373 158 356 q 265 390 229 390 "},"&":{"x_min":-11.765625,"x_max":1198.015625,"ha":931,"o":"m 508 339 q 582 386 541 369 q 622 397 600 393 q 667 402 643 402 q 719 395 692 401 q 776 373 746 388 q 832 350 806 358 q 879 339 857 342 q 919 337 901 336 q 951 343 937 339 q 1005 372 983 351 l 1016 370 q 942 316 985 335 q 901 301 923 307 q 853 295 879 296 q 796 300 826 295 q 732 321 766 306 q 676 343 700 335 q 631 355 652 350 q 665 296 653 333 q 676 213 676 259 q 664 116 676 167 q 628 14 652 65 q 565 -81 603 -35 q 473 -162 526 -127 q 353 -218 421 -197 q 202 -239 285 -239 q 104 -221 145 -239 q 37 -173 63 -204 q 0 -100 11 -142 q -11 -10 -12 -59 q 3 90 -10 37 q 42 196 16 143 q 104 300 67 249 q 187 395 140 351 q 114 452 144 417 q 71 530 85 487 q 61 619 57 572 q 90 710 65 665 q 162 794 115 755 q 282 860 209 833 q 391 886 342 883 q 480 878 439 888 q 541 978 502 929 q 636 1063 581 1026 q 765 1124 692 1101 q 925 1147 837 1147 q 1063 1127 1007 1147 q 1151 1075 1119 1107 q 1193 1002 1183 1043 q 1193 920 1202 962 q 1155 838 1183 878 q 1084 768 1127 798 q 985 722 1041 738 q 860 709 928 705 q 759 727 802 712 q 680 761 716 742 q 613 803 644 781 q 548 841 581 824 q 535 743 534 791 q 555 658 537 696 q 611 599 574 621 q 705 576 648 576 l 706 569 q 568 556 632 569 q 447 521 503 543 q 344 467 391 498 q 257 398 296 435 q 342 389 296 386 q 443 414 388 392 q 492 437 468 424 q 535 468 516 451 q 570 504 555 484 q 592 544 585 523 l 595 543 q 580 510 590 529 q 551 473 569 492 q 507 435 533 454 q 445 400 481 415 q 334 370 386 374 q 236 377 281 365 q 163 284 195 333 q 111 185 132 235 q 80 85 91 134 q 68 -9 69 35 q 75 -94 66 -55 q 100 -161 83 -133 q 145 -206 118 -190 q 207 -223 171 -223 q 343 -199 281 -224 q 457 -135 406 -175 q 545 -44 507 -95 q 608 60 583 6 q 642 166 632 114 q 647 260 652 218 q 620 328 641 302 q 561 357 599 354 q 540 350 548 354 q 526 341 531 345 q 516 330 520 336 l 508 339 m 861 721 q 957 738 911 721 q 1038 785 1002 756 q 1101 851 1075 814 q 1139 927 1127 888 q 1145 1003 1150 966 q 1116 1069 1141 1040 q 1044 1116 1091 1098 q 925 1134 997 1134 q 790 1109 851 1134 q 682 1045 729 1085 q 601 955 634 1006 q 551 851 568 904 q 621 810 587 833 q 692 768 656 788 q 770 734 728 748 q 861 721 811 721 m 613 571 q 546 582 575 571 q 497 615 517 594 q 465 664 477 636 q 451 725 454 692 q 455 795 449 758 q 476 868 461 831 q 391 872 438 876 q 282 847 345 869 q 193 796 229 828 q 137 723 157 763 q 113 639 117 683 q 119 553 109 594 q 152 476 128 512 q 212 418 176 440 q 296 480 251 452 q 391 528 341 508 q 497 559 442 548 q 613 571 553 571 "},"−":{"x_min":58.890625,"x_max":278.359375,"ha":258,"o":"m 276 208 l 58 208 l 61 222 l 278 222 l 276 208 "},"I":{"x_min":-228.359375,"x_max":1528.828125,"ha":741,"o":"m 798 232 q 588 23 708 115 q 475 -53 537 -15 q 340 -119 412 -90 q 183 -166 267 -148 q 7 -185 100 -185 l 7 -184 q -2 -185 2 -185 q -13 -186 -7 -186 q -110 -174 -70 -186 q -177 -148 -150 -162 q -228 -111 -207 -132 l -219 -103 q -193 -128 -210 -117 q -156 -147 -176 -140 q -113 -160 -135 -155 q -70 -169 -90 -166 q -35 -173 -50 -172 q -12 -174 -20 -174 q 151 -144 75 -174 q 297 -61 228 -114 q 426 63 365 -8 q 544 222 487 136 q 653 403 600 308 q 758 597 706 498 q 862 793 810 695 q 969 981 914 891 q 1083 1152 1024 1072 q 1208 1294 1142 1231 q 990 1277 1082 1291 q 834 1241 898 1262 q 732 1192 771 1220 q 673 1136 693 1165 q 648 1078 652 1107 q 647 1023 643 1049 q 674 968 653 989 q 723 939 695 947 q 782 935 751 931 q 842 958 814 940 q 890 1005 870 975 q 916 1077 910 1035 l 925 1079 q 896 1000 919 1034 q 841 945 873 966 q 772 918 809 925 q 703 919 736 911 q 647 953 671 928 q 616 1022 623 978 q 643 1146 605 1094 q 762 1232 682 1198 q 958 1284 841 1266 q 1218 1304 1074 1301 q 1305 1373 1260 1342 q 1399 1424 1350 1403 q 1462 1442 1435 1440 q 1505 1439 1489 1445 q 1526 1419 1521 1432 q 1525 1390 1531 1406 q 1500 1357 1518 1374 q 1450 1327 1481 1341 q 1375 1304 1419 1313 q 1272 1295 1331 1295 l 1260 1295 q 1155 1170 1205 1240 q 1059 1020 1106 1100 q 968 853 1013 940 q 878 676 923 766 q 787 498 833 587 q 690 325 741 408 q 584 166 640 241 q 466 27 528 90 q 332 -81 403 -34 q 179 -155 261 -128 q 251 -137 210 -149 q 340 -105 292 -126 q 444 -55 389 -85 q 558 17 499 -25 q 678 118 617 60 q 800 250 739 175 l 798 232 m 1405 1404 q 1335 1360 1369 1385 q 1269 1304 1301 1335 l 1271 1304 q 1388 1317 1340 1304 q 1464 1348 1436 1330 q 1502 1385 1492 1366 q 1503 1415 1511 1404 q 1470 1425 1495 1426 q 1405 1404 1445 1425 "},"G":{"x_min":-308.6875,"x_max":1294.375,"ha":853,"o":"m 882 387 q 706 85 800 236 q 620 -50 666 20 q 522 -193 573 -121 q 415 -334 471 -265 q 303 -466 360 -403 q 487 -562 398 -528 q 658 -606 577 -596 q 810 -608 739 -617 q 940 -575 882 -598 q 1041 -518 998 -552 q 1108 -445 1083 -484 q 1136 -365 1132 -406 q 1120 -286 1140 -323 q 1077 -234 1101 -252 q 1027 -211 1053 -216 q 975 -211 1001 -205 q 927 -229 950 -216 q 888 -261 905 -242 q 863 -301 871 -280 q 857 -343 855 -322 q 877 -384 860 -365 q 876 -388 879 -387 q 873 -388 875 -388 q 851 -345 854 -368 q 857 -298 848 -321 q 884 -253 865 -274 q 927 -216 902 -231 q 980 -194 951 -201 q 1036 -192 1008 -187 q 1091 -217 1065 -197 q 1137 -274 1117 -236 q 1162 -372 1165 -324 q 1132 -463 1159 -421 q 1058 -539 1106 -505 q 946 -594 1010 -573 q 805 -622 882 -615 q 645 -616 728 -628 q 472 -569 561 -603 q 295 -475 383 -535 q 191 -578 243 -531 q 87 -659 139 -625 q -13 -713 36 -693 q -111 -732 -63 -732 q -212 -713 -171 -732 q -277 -665 -253 -695 q -306 -597 -300 -635 q -303 -520 -312 -559 q -269 -443 -293 -481 q -208 -378 -245 -406 q -121 -335 -171 -351 q -12 -324 -72 -320 q 117 -355 47 -328 q 265 -438 187 -382 q 267 -440 266 -440 q 269 -442 268 -441 q 373 -310 322 -380 q 474 -170 425 -241 q 566 -29 522 -99 q 648 102 611 39 q 584 17 618 60 q 515 -63 551 -24 q 442 -136 480 -102 q 367 -196 405 -171 q 291 -235 329 -221 q 218 -250 254 -250 q 105 -226 151 -250 q 35 -159 60 -202 q 3 -57 10 -117 q 6 73 -3 1 q 39 226 15 145 q 100 393 63 307 q 183 568 136 479 q 286 744 231 657 q 185 794 223 764 q 132 861 148 825 q 119 936 116 896 q 140 1013 122 975 q 189 1085 158 1051 q 258 1145 220 1119 q 342 1186 297 1171 q 433 1202 387 1202 q 498 1190 473 1202 q 539 1164 524 1178 q 566 1126 557 1147 l 561 1125 q 535 1158 552 1144 q 494 1181 520 1171 q 428 1192 468 1192 q 348 1177 388 1192 q 275 1139 309 1163 q 212 1082 240 1114 q 168 1014 185 1050 q 148 941 152 979 q 158 870 145 904 q 205 806 172 835 q 295 756 238 776 q 416 928 352 844 q 550 1085 481 1011 q 692 1219 620 1158 q 838 1324 765 1280 q 984 1393 911 1369 q 1126 1418 1057 1418 q 1226 1398 1188 1418 q 1280 1344 1264 1378 q 1293 1265 1297 1310 q 1268 1169 1290 1220 q 1209 1065 1247 1119 q 1120 960 1171 1011 q 1003 865 1068 910 q 864 786 939 820 q 706 732 790 752 q 533 712 623 712 q 446 715 486 712 q 371 724 406 719 q 267 554 316 640 q 178 385 218 468 q 110 224 139 302 q 67 77 82 146 q 51 -48 52 8 q 69 -145 51 -104 q 125 -209 87 -186 q 222 -232 162 -232 q 300 -214 260 -232 q 380 -168 340 -197 q 461 -99 421 -138 q 538 -15 501 -59 q 611 75 576 28 q 677 167 646 122 q 732 252 707 212 q 775 321 757 291 q 790 349 783 337 q 802 370 797 362 q 811 387 807 380 l 813 387 q 814 388 814 388 l 815 387 l 882 387 m 535 723 q 690 742 613 723 q 837 794 767 761 q 971 870 908 827 q 1087 963 1034 914 q 1179 1065 1139 1013 q 1243 1166 1218 1116 q 1273 1259 1267 1215 q 1265 1335 1280 1302 q 1215 1387 1251 1368 q 1116 1406 1178 1406 q 1009 1381 1066 1406 q 889 1311 951 1356 q 760 1204 826 1266 q 629 1067 695 1141 q 500 908 563 992 q 378 735 436 823 q 450 726 411 729 q 535 723 489 723 m -118 -722 q -31 -702 -77 -722 q 63 -645 15 -681 q 161 -559 111 -608 q 261 -451 211 -509 q 260 -450 260 -450 q 128 -373 191 -398 q 10 -345 65 -348 q -90 -356 -43 -342 q -171 -396 -136 -370 q -232 -456 -207 -422 q -268 -526 -256 -490 q -276 -598 -279 -563 q -256 -660 -274 -633 q -205 -705 -238 -688 q -118 -722 -171 -722 m 816 -156 q 812 -138 818 -146 q 795 -131 806 -131 q 775 -138 784 -131 q 765 -156 767 -146 q 772 -177 762 -170 q 748 -192 762 -185 q 716 -199 735 -199 q 694 -192 703 -199 q 684 -166 685 -185 q 693 -115 683 -147 q 731 -33 703 -84 q 805 86 758 16 q 924 250 852 156 q 920 253 925 250 q 915 257 918 255 q 750 24 812 126 q 703 -60 723 -19 q 676 -135 682 -102 q 680 -187 669 -167 q 726 -208 690 -208 q 754 -204 741 -208 q 776 -196 766 -201 q 792 -186 785 -191 q 802 -176 798 -181 q 816 -156 813 -169 "},"(":{"x_min":24.53125,"x_max":625.609375,"ha":259,"o":"m 625 859 l 614 844 q 435 700 522 782 q 357 621 397 665 q 278 528 317 578 q 202 420 238 477 q 136 298 166 362 q 90 175 107 234 q 64 65 72 117 q 56 -32 56 13 q 60 -115 55 -77 q 101 -272 70 -202 l 90 -288 q 34 -116 50 -211 q 25 -27 27 -76 q 28 75 22 20 q 50 192 34 131 q 95 321 65 254 q 162 446 123 387 q 243 555 200 505 q 331 647 286 605 q 418 723 376 689 q 625 859 518 802 "},"`":{"x_min":141.671875,"x_max":286.140625,"ha":229,"o":"m 286 506 l 284 492 l 141 553 l 143 615 l 286 506 "},"U":{"x_min":54.90625,"x_max":1742.359375,"ha":1167,"o":"m 1742 1423 q 1325 734 1499 1037 q 1228 563 1275 648 q 1142 402 1182 479 q 1073 260 1103 326 q 1027 147 1043 195 q 1011 72 1011 99 q 1032 46 1011 46 q 1051 55 1039 46 q 1079 79 1063 64 q 1111 112 1094 93 q 1145 152 1128 132 q 1230 258 1185 198 l 1238 252 q 1133 123 1182 179 q 1091 75 1112 98 q 1050 34 1070 52 q 1015 5 1031 16 q 988 -6 998 -6 q 952 13 962 -6 q 945 67 942 32 q 965 152 949 102 q 1006 260 981 201 q 1064 386 1031 319 q 1136 525 1097 453 q 1008 348 1072 434 q 880 186 943 262 q 754 46 816 110 q 635 -63 692 -17 q 526 -135 578 -109 q 431 -161 475 -161 q 297 -137 345 -161 q 233 -73 250 -114 q 227 25 217 -31 q 266 152 237 83 q 340 299 295 221 q 436 460 384 377 q 351 445 395 449 q 259 448 307 441 q 150 489 193 457 q 83 569 107 521 q 56 677 60 617 q 63 805 51 738 q 102 941 75 872 q 170 1075 130 1010 q 261 1197 210 1140 q 374 1297 313 1254 q 504 1364 435 1340 q 647 1389 573 1389 q 790 1369 736 1389 q 869 1311 843 1348 q 896 1222 895 1274 q 878 1109 896 1171 q 826 975 860 1046 q 748 829 792 904 q 738 747 751 790 q 700 662 726 704 q 638 582 675 620 q 554 513 601 543 q 448 344 499 426 q 359 188 397 261 q 300 52 321 114 q 284 -54 280 -9 q 324 -123 289 -98 q 432 -148 359 -148 q 513 -128 470 -148 q 605 -72 557 -108 q 705 15 653 -35 q 811 128 757 66 q 920 260 865 190 q 1031 407 976 331 q 1139 562 1086 482 q 1243 719 1193 641 q 1323 857 1283 789 q 1403 989 1364 925 q 1478 1112 1442 1053 q 1546 1220 1514 1170 q 1554 1235 1550 1228 q 1562 1250 1558 1242 l 1565 1250 q 1610 1320 1590 1289 q 1645 1375 1630 1352 q 1675 1421 1662 1401 l 1742 1423 m 712 897 q 658 945 693 927 q 570 963 623 963 l 570 971 q 662 955 625 971 q 720 911 698 939 q 786 1036 757 976 q 830 1148 815 1096 q 845 1243 846 1200 q 825 1316 845 1285 q 762 1362 805 1346 q 650 1379 720 1379 q 514 1354 579 1379 q 393 1289 450 1330 q 287 1191 336 1247 q 202 1072 239 1135 q 139 941 165 1009 q 101 809 113 874 q 91 685 89 744 q 113 580 94 626 q 169 504 132 534 q 262 466 206 474 q 359 462 313 459 q 447 479 406 466 q 515 584 481 531 q 584 691 550 638 q 650 796 618 744 q 712 897 683 847 m 733 801 q 654 671 695 736 q 570 539 612 605 q 636 597 607 565 q 687 663 666 629 q 719 733 707 697 q 733 801 731 768 "},"F":{"x_min":-196.203125,"x_max":2002.40625,"ha":1081,"o":"m 1197 846 l 1199 851 q 1223 808 1216 832 q 1231 756 1231 783 q 1222 699 1230 728 q 1198 641 1214 669 q 1270 618 1230 626 q 1361 609 1310 609 l 1362 601 q 1252 594 1304 601 q 1152 576 1200 588 q 1110 539 1133 556 q 1060 509 1087 522 q 1003 488 1033 496 q 938 480 972 481 q 866 422 900 453 q 803 357 833 392 q 748 287 774 323 q 698 212 722 250 q 721 162 712 188 q 735 112 730 137 q 741 63 740 87 q 743 18 743 39 q 732 -79 742 -31 l 725 -80 q 733 12 733 -34 q 731 55 733 32 q 724 101 729 78 q 710 150 719 125 q 688 197 702 174 q 610 59 647 129 q 535 -75 573 -10 q 455 -196 497 -139 q 361 -295 413 -253 q 244 -361 309 -337 q 96 -386 179 -386 q -52 -365 6 -386 q -146 -308 -112 -344 q -190 -225 -180 -273 q -191 -124 -201 -178 q -155 -14 -182 -71 q -86 95 -127 41 q 6 196 -46 148 q 120 279 59 243 q 247 335 181 314 q 382 356 314 356 q 477 349 435 356 q 555 328 520 341 q 616 298 589 315 q 662 259 642 280 q 750 381 703 323 q 856 486 797 439 q 740 531 788 499 q 665 609 693 564 q 631 708 638 654 q 636 815 623 762 q 681 920 648 869 q 765 1009 713 970 q 887 1072 816 1048 q 1047 1096 957 1096 q 1091 1094 1070 1096 q 1194 1221 1133 1160 q 1332 1328 1255 1282 q 1499 1402 1408 1374 q 1691 1430 1589 1430 q 1852 1410 1787 1430 q 1952 1358 1916 1390 q 1998 1285 1988 1326 q 1995 1202 2007 1244 q 1948 1118 1982 1159 q 1864 1045 1915 1077 q 1746 993 1812 1013 q 1601 974 1680 974 q 1488 979 1537 974 q 1402 993 1440 984 q 1334 1012 1364 1001 q 1276 1033 1304 1022 q 1221 1054 1248 1044 q 1161 1071 1193 1064 q 1104 943 1124 1007 q 1085 822 1084 879 q 1112 719 1087 765 q 1191 644 1137 672 q 1214 701 1206 672 q 1223 756 1222 730 q 1218 806 1224 783 q 1197 846 1211 830 m 377 343 q 249 323 311 343 q 131 269 187 303 q 29 189 76 235 q -53 92 -17 143 q -112 -12 -88 41 q -143 -118 -135 -66 q -141 -215 -150 -169 q -103 -294 -132 -260 q -24 -348 -74 -328 q 100 -368 26 -368 q 230 -342 172 -368 q 335 -271 287 -316 q 421 -166 382 -226 q 498 -37 461 -106 q 573 103 536 30 q 653 245 611 175 q 607 284 633 266 q 547 315 581 302 q 471 335 513 328 q 377 343 429 343 m 1603 985 q 1729 1004 1671 985 q 1829 1053 1786 1022 q 1901 1122 1872 1083 q 1939 1200 1929 1160 q 1941 1279 1950 1241 q 1901 1348 1932 1318 q 1817 1397 1871 1379 q 1682 1416 1762 1416 q 1579 1403 1630 1416 q 1480 1369 1529 1391 q 1388 1315 1432 1346 q 1303 1248 1343 1285 q 1229 1169 1263 1211 q 1168 1084 1195 1127 q 1230 1066 1201 1076 q 1287 1045 1258 1056 q 1346 1023 1315 1034 q 1414 1004 1377 1013 q 1497 990 1451 996 q 1603 985 1544 985 m 1168 610 q 1171 614 1170 612 q 1174 618 1173 616 q 1087 651 1122 627 q 1031 709 1051 674 q 1004 787 1010 743 q 1005 879 998 830 q 1032 979 1012 927 q 1082 1082 1051 1030 q 1064 1082 1073 1082 q 1045 1083 1055 1083 q 943 1068 992 1083 q 854 1027 895 1053 q 778 966 812 1001 q 720 892 745 931 q 681 810 695 852 q 665 726 667 767 q 673 647 662 685 q 708 579 683 609 q 773 527 733 548 q 871 499 813 506 q 1004 572 931 543 q 1168 610 1077 601 m 961 496 q 1059 521 1016 500 q 1135 572 1102 542 q 1042 539 1085 558 q 961 496 1000 520 m 1180 611 q 1207 612 1193 612 q 1235 613 1221 613 q 1184 616 1208 613 q 1182 613 1183 615 q 1180 611 1181 612 "},"r":{"x_min":22.78125,"x_max":373.921875,"ha":328,"o":"m 131 314 q 108 288 121 302 q 83 261 96 275 q 58 233 71 247 q 36 207 46 219 l 22 207 q 75 268 51 241 q 117 314 98 295 l 108 314 q 79 320 90 314 q 64 337 68 327 q 62 359 60 347 q 74 382 65 371 q 99 399 83 392 q 138 408 115 406 q 164 402 156 408 q 173 385 173 395 q 167 361 174 374 q 147 333 160 347 l 221 333 l 222 333 q 265 324 250 333 q 281 297 280 316 q 270 249 282 279 q 231 175 258 219 q 218 153 226 166 q 205 127 211 140 q 192 100 198 113 q 185 76 187 86 q 184 58 182 65 q 195 51 186 51 q 212 58 201 50 q 236 78 223 65 q 265 106 250 90 q 295 138 280 121 q 368 228 329 177 l 373 218 q 283 109 327 157 q 243 69 264 88 q 202 34 222 49 q 163 9 182 18 q 127 0 143 0 q 110 7 115 0 q 105 28 105 15 q 111 57 106 41 q 124 91 116 74 q 172 182 142 131 q 210 244 194 219 q 231 285 226 269 q 228 307 237 300 q 193 314 220 314 l 131 314 m 143 394 q 120 384 131 394 q 104 364 108 375 q 106 343 100 352 q 133 334 112 334 q 151 358 145 347 q 156 377 156 369 q 153 389 157 385 q 143 394 149 394 "},":":{"x_min":3.9375,"x_max":194.203125,"ha":151,"o":"m 78 75 q 56 48 72 59 q 26 37 41 37 q 6 48 11 37 q 7 76 1 60 q 29 103 14 92 q 60 115 45 115 q 80 103 74 115 q 78 75 85 91 m 190 297 q 168 270 183 281 q 137 259 152 259 q 117 270 123 259 q 118 298 111 282 q 141 325 125 314 q 171 337 156 337 q 191 325 186 337 q 190 297 197 313 "},"x":{"x_min":-52.78125,"x_max":410.953125,"ha":351,"o":"m 390 227 l 398 221 q 333 111 368 159 q 300 70 318 90 q 261 35 281 51 q 218 10 241 19 q 171 1 195 1 q 141 14 153 1 q 122 49 130 27 q 113 99 115 71 q 110 160 110 128 q 52 100 78 128 q 6 49 26 71 q -36 1 -17 23 l -52 1 q -4 53 -31 25 q 47 109 18 78 q 111 173 77 140 q 115 246 112 210 q 122 313 118 283 l 42 214 l 33 220 l 125 332 q 128 354 126 344 q 131 371 130 364 q 133 387 132 380 l 202 387 q 196 344 198 366 q 190 299 193 324 q 185 245 187 274 q 243 298 215 273 q 298 342 272 323 q 346 372 324 361 q 382 385 367 383 q 389 386 387 386 q 406 378 400 386 q 410 360 412 371 q 400 342 408 349 q 380 334 391 334 q 365 340 371 334 q 358 353 360 346 q 318 334 340 346 q 275 305 297 321 q 229 269 252 288 q 183 229 206 249 q 179 164 180 196 q 180 106 178 132 q 188 62 182 79 q 205 42 194 45 q 237 43 221 37 q 269 60 253 48 q 300 89 285 72 q 328 125 315 107 q 390 227 360 168 "},"*":{"x_min":83.34375,"x_max":202.796875,"ha":164,"o":"m 187 403 l 154 359 l 202 359 l 200 346 l 154 346 l 169 307 l 156 301 l 141 342 l 110 302 l 99 308 l 128 346 l 83 346 l 85 359 l 134 359 l 117 403 l 130 410 l 146 368 l 177 409 l 187 403 "},"∕":{"x_min":-151.671875,"x_max":549.484375,"ha":278,"o":"m 549 800 l -136 -118 l -151 -118 l 534 800 l 549 800 "},"V":{"x_min":53.921875,"x_max":1884.390625,"ha":816,"o":"m 617 919 q 713 992 667 965 q 803 1031 760 1019 q 886 1043 846 1044 q 965 1032 927 1042 q 1041 1003 1004 1021 q 1114 962 1078 985 q 1222 1083 1167 1029 q 1337 1177 1278 1138 q 1461 1238 1397 1216 q 1595 1260 1525 1260 q 1741 1238 1682 1260 q 1835 1179 1801 1215 q 1879 1096 1869 1143 q 1879 1001 1889 1050 q 1838 907 1868 953 q 1762 824 1808 860 q 1655 765 1716 787 q 1521 743 1594 743 q 1420 760 1469 743 q 1325 803 1371 777 q 1233 861 1278 829 q 1142 924 1187 894 q 1096 857 1118 891 q 1052 786 1074 823 q 1064 755 1062 772 q 1064 720 1067 738 q 1054 683 1061 701 q 1036 647 1046 664 q 1015 615 1026 630 q 991 590 1003 600 q 896 522 945 547 q 802 360 850 442 q 703 200 754 279 q 598 47 652 121 q 483 -92 543 -26 q 358 -216 423 -159 q 221 -316 293 -272 l 211 -310 q 224 -299 217 -305 q 237 -288 231 -294 q 242 -285 240 -287 q 246 -282 244 -283 q 403 -125 328 -214 q 546 64 477 -37 q 680 274 615 165 q 810 493 746 384 q 699 496 751 482 q 608 541 647 510 q 545 616 568 571 q 520 711 522 660 q 541 816 518 762 q 617 919 563 870 m 1523 760 q 1639 780 1586 760 q 1735 835 1693 801 q 1805 913 1777 870 q 1844 1003 1832 957 q 1847 1092 1855 1048 q 1810 1170 1839 1136 q 1727 1225 1780 1204 q 1594 1246 1674 1246 q 1470 1223 1529 1246 q 1357 1160 1411 1201 q 1251 1063 1302 1120 q 1151 938 1200 1007 q 1242 876 1197 908 q 1332 819 1286 845 q 1425 776 1378 793 q 1523 760 1472 760 m 1003 810 q 932 822 975 825 l 932 830 q 975 827 956 830 q 1009 818 995 824 q 1056 886 1032 853 q 1103 950 1080 918 q 1033 989 1068 971 q 960 1018 997 1007 q 885 1029 923 1028 q 806 1019 847 1030 q 722 983 765 1008 q 632 915 678 957 q 563 820 583 870 q 545 722 542 770 q 571 631 548 673 q 632 560 594 590 q 719 518 670 531 q 822 516 768 505 q 912 666 867 593 q 1003 810 957 740 m 85 427 q 86 364 82 392 q 98 313 90 336 q 118 273 106 291 q 141 243 129 256 q 209 197 170 212 l 203 191 q 123 240 157 208 q 94 271 108 253 q 71 311 80 289 q 56 362 61 334 q 55 423 51 390 q 89 535 60 477 q 164 653 119 593 q 264 773 209 713 q 378 891 320 833 q 385 1035 380 967 q 401 1159 390 1103 q 431 1258 413 1215 q 476 1325 449 1300 q 541 1355 503 1350 q 628 1343 578 1361 q 682 1306 667 1329 q 692 1255 697 1284 q 667 1191 688 1226 q 613 1116 646 1156 q 538 1032 580 1076 q 451 942 496 988 q 442 775 446 863 q 436 596 439 687 q 428 413 433 505 q 416 234 424 321 q 395 67 407 147 q 362 -79 382 -12 q 314 -198 342 -146 q 246 -281 285 -250 q 242 -285 244 -283 q 238 -288 240 -286 q 214 -302 226 -297 q 281 -226 254 -274 q 327 -117 309 -179 q 356 19 345 -55 q 371 176 367 93 q 377 346 376 258 q 377 522 378 433 q 376 697 377 610 q 377 866 375 785 q 273 754 324 811 q 183 642 223 698 q 116 532 143 586 q 85 427 90 477 m 625 1324 q 552 1320 582 1340 q 502 1251 522 1300 q 471 1129 482 1202 q 453 967 459 1056 q 533 1049 495 1010 q 600 1124 570 1088 q 650 1191 630 1160 q 674 1247 669 1222 q 668 1292 679 1273 q 625 1324 657 1311 m 911 549 q 982 601 947 570 q 1021 645 1006 622 q 1043 690 1036 668 q 1050 733 1050 712 q 1041 771 1049 753 q 976 662 1008 717 q 911 549 944 606 m 213 -304 l 214 -303 q 196 -316 205 -310 l 213 -304 "},"μ":{"x_min":-207.234375,"x_max":395.59375,"ha":349,"o":"m 300 388 l 376 388 q 291 233 327 303 q 261 174 276 203 q 236 119 247 144 q 221 77 226 95 q 218 53 216 59 q 230 51 221 46 q 251 66 238 55 q 278 93 263 76 q 309 127 293 109 q 389 227 345 169 l 395 218 q 308 112 350 159 q 272 73 291 92 q 235 38 253 53 q 201 11 217 22 q 174 0 186 1 q 150 1 160 -2 q 138 19 141 6 q 141 56 136 33 q 160 114 146 79 q 121 68 141 89 q 83 31 102 47 q 46 8 63 16 q 13 0 28 0 q -19 22 -10 0 q -21 82 -28 44 l -192 -229 l -207 -229 l -5 138 q 5 166 -1 152 q 18 194 11 180 q 61 271 40 236 q 101 332 83 306 q 140 388 121 362 l 212 387 q 170 322 191 356 q 132 260 152 294 q 96 194 112 226 q 67 132 80 161 q 48 79 55 102 q 42 42 41 56 q 53 29 43 29 q 76 37 62 29 q 106 61 90 46 q 139 98 122 77 q 173 145 157 120 q 224 249 193 189 q 300 388 255 308 "},"h":{"x_min":-80.5625,"x_max":730.515625,"ha":344,"o":"m 233 359 q 211 350 225 359 q 182 327 198 342 q 150 292 167 312 q 116 248 132 271 q 67 147 89 193 q 28 69 45 102 q -5 0 10 30 l -80 0 q 266 645 106 365 q 358 802 312 724 q 448 948 404 879 q 533 1074 492 1017 q 608 1171 573 1131 q 669 1229 642 1210 q 713 1239 696 1248 q 730 1201 732 1230 q 709 1128 728 1171 q 658 1029 691 1085 q 582 910 625 973 q 491 780 540 848 q 389 644 441 712 q 285 510 337 576 q 186 386 233 445 q 161 335 173 359 q 136 286 148 311 q 172 328 154 309 q 209 360 191 346 q 243 380 227 373 q 273 388 260 388 q 306 379 293 388 q 321 349 319 371 q 310 290 322 327 q 267 194 298 252 q 248 158 260 179 q 226 117 236 137 q 210 78 216 96 q 211 50 205 60 q 223 50 214 45 q 245 67 232 56 q 273 95 257 79 q 303 129 288 111 q 384 227 340 171 l 390 217 q 298 108 342 156 q 259 68 279 87 q 220 33 239 48 q 184 8 201 17 q 155 -1 167 -1 q 136 7 142 -1 q 131 29 131 15 q 136 60 131 42 q 147 96 140 77 q 190 194 162 139 q 221 258 208 227 q 240 310 233 288 q 245 345 246 332 q 233 359 243 359 m 707 1219 q 676 1211 696 1226 q 631 1163 657 1196 q 573 1083 605 1131 q 505 976 541 1035 q 432 850 470 917 q 356 712 395 782 q 280 568 318 641 q 207 427 242 496 q 301 547 253 485 q 398 672 350 609 q 490 798 445 736 q 574 919 536 861 q 643 1027 613 976 q 692 1117 674 1078 q 715 1183 711 1157 q 707 1219 720 1210 "},"0":{"x_min":28.796875,"x_max":540.28125,"ha":467,"o":"m 402 606 q 478 589 449 606 q 523 543 508 572 q 540 475 538 514 q 531 393 541 437 q 502 304 522 350 q 455 215 482 258 q 392 133 427 171 q 318 65 357 94 q 236 19 279 36 q 150 3 193 3 q 79 19 106 3 q 40 65 52 36 q 28 133 27 94 q 41 215 30 171 q 74 304 53 258 q 123 393 95 350 q 184 475 151 437 q 253 543 217 514 q 328 589 290 572 q 402 606 366 606 m 167 26 q 252 50 211 26 q 331 114 294 75 q 398 205 367 154 q 449 308 428 255 q 480 411 470 361 q 486 501 490 462 q 463 565 482 541 q 406 590 443 590 q 319 565 361 590 q 243 501 278 541 q 179 411 207 462 q 132 308 151 361 q 104 205 113 255 q 99 114 96 154 q 119 50 102 75 q 167 26 135 26 "},".":{"x_min":-7.53125,"x_max":71.34375,"ha":131,"o":"m 67 41 q 45 14 60 25 q 15 3 30 3 q -5 14 0 3 q -3 42 -10 26 q 18 69 2 58 q 48 81 33 81 q 68 69 62 81 q 67 41 74 57 "},"@":{"x_min":3.046875,"x_max":547.671875,"ha":538,"o":"m 393 100 q 365 71 380 85 q 338 46 351 57 q 313 29 325 35 q 292 20 301 22 q 271 22 280 18 q 261 37 263 25 q 263 69 258 49 q 280 122 267 90 q 303 155 292 138 q 325 193 315 173 q 346 241 337 218 q 359 284 355 264 q 380 323 369 303 q 405 366 392 343 l 472 366 q 397 228 429 290 q 370 175 383 201 q 348 127 357 149 q 334 89 338 105 q 332 68 329 73 q 339 65 333 63 q 353 72 345 66 q 370 88 361 78 q 391 110 380 98 q 506 310 470 222 q 523 359 516 335 q 531 406 530 384 q 528 447 533 428 q 511 480 524 466 q 476 502 498 494 q 422 510 455 510 q 335 491 377 510 q 252 441 292 473 q 178 368 213 410 q 113 279 142 327 q 63 183 85 232 q 30 86 42 133 q 15 -2 17 39 q 24 -75 13 -44 q 59 -125 35 -106 q 122 -143 83 -143 q 197 -133 161 -143 q 264 -106 233 -123 q 323 -68 296 -90 q 373 -25 350 -47 q 466 93 426 26 l 477 93 q 377 -31 433 23 q 325 -77 353 -55 q 263 -117 296 -100 q 192 -146 230 -135 q 113 -157 155 -157 q 38 -128 64 -157 q 5 -51 12 -99 q 10 56 -1 -4 q 47 180 21 117 q 112 304 73 243 q 200 412 151 365 q 305 489 248 460 q 423 518 362 518 q 485 509 460 518 q 523 486 509 501 q 543 452 538 472 q 547 409 548 433 q 538 360 545 386 q 519 309 530 335 q 393 100 480 217 m 185 46 q 174 57 176 46 q 178 88 173 68 q 195 135 184 109 q 223 193 207 162 q 255 250 238 223 q 286 297 271 277 q 315 328 302 317 q 338 339 328 339 q 353 316 352 339 q 343 254 355 292 q 351 269 347 261 q 359 284 355 276 q 360 343 367 320 q 330 366 352 366 q 289 352 312 366 q 243 315 267 338 q 196 260 219 292 q 155 193 173 228 q 126 125 136 156 q 116 70 116 93 q 123 33 115 47 q 150 20 132 20 q 178 27 162 20 q 210 48 193 35 q 245 80 227 61 q 280 121 263 98 q 285 134 282 127 q 291 148 288 141 q 261 107 276 126 q 231 74 245 88 q 205 53 217 61 q 185 46 193 46 m 317 192 q 291 148 304 168 q 313 196 300 170 q 343 253 327 222 q 317 192 335 226 "},"f":{"x_min":-340.578125,"x_max":744.609375,"ha":200,"o":"m 726 1240 q 744 1200 747 1230 q 720 1122 741 1169 q 663 1016 699 1076 q 581 890 627 957 q 483 751 536 823 q 375 609 430 679 q 267 471 321 538 q 166 346 213 403 q 116 248 141 296 q 66 151 91 199 q 49 100 54 123 q 47 64 44 77 q 62 50 50 51 q 98 67 75 49 q 155 124 121 85 q 238 227 190 162 l 245 218 q 153 102 193 146 q 84 43 112 59 q 43 38 56 27 q 33 85 30 49 q -27 -35 2 23 q -83 -148 -56 -94 q -134 -250 -110 -202 q -178 -340 -158 -299 q -265 -519 -225 -437 l -340 -519 q 126 391 -88 -5 q 249 613 187 503 q 371 820 311 722 q 485 999 430 917 q 585 1138 539 1081 q 668 1222 632 1195 q 726 1240 704 1250 m 720 1219 q 676 1202 705 1229 q 608 1119 647 1175 q 519 983 568 1063 q 416 808 470 903 q 303 605 361 712 q 187 387 245 497 q 284 508 233 444 q 384 638 334 572 q 482 770 434 704 q 572 898 531 836 q 647 1013 614 959 q 701 1110 681 1067 q 727 1181 722 1152 q 720 1219 733 1210 "},";":{"x_min":-53.34375,"x_max":194.203125,"ha":112,"o":"m 78 75 q 58 34 71 53 q 32 -2 46 14 q 3 -33 18 -20 q -21 -57 -10 -47 q -40 -73 -33 -67 q -48 -78 -48 -78 q -50 -75 -48 -79 q -53 -69 -52 -71 q -3 -15 -22 -45 q 25 36 15 13 q 6 48 11 36 q 7 76 1 59 q 29 103 14 92 q 60 115 45 115 q 80 103 74 115 q 78 75 85 91 m 190 297 q 168 270 183 281 q 137 259 152 259 q 117 270 123 259 q 118 298 111 282 q 141 325 125 314 q 171 337 156 337 q 191 325 186 337 q 190 297 197 313 "},"i":{"x_min":-0.015625,"x_max":384,"ha":227,"o":"m 33 220 l 161 388 l 237 388 q 152 233 188 303 q 122 174 137 203 q 97 120 108 145 q 82 77 87 95 q 80 53 77 60 q 92 51 82 47 q 115 66 101 55 q 146 93 129 77 q 179 127 162 110 q 267 227 218 170 l 273 218 q 178 112 223 159 q 138 73 158 92 q 99 38 118 53 q 64 12 81 22 q 36 0 47 1 q 5 9 14 -3 q 3 58 -4 21 q 41 158 12 94 q 124 322 70 222 l 38 210 l 33 220 m 383 646 q 367 620 380 631 q 340 610 355 610 q 315 620 324 610 q 310 646 307 631 q 325 672 312 661 q 352 683 337 683 q 376 672 367 683 q 383 646 386 661 "},"6":{"x_min":35.828125,"x_max":806.171875,"ha":482,"o":"m 800 912 q 637 873 723 910 q 558 832 601 857 q 471 769 516 806 q 378 679 426 731 q 281 559 330 628 q 345 593 313 580 q 409 605 377 605 q 485 588 456 605 q 530 543 515 571 q 546 475 545 514 q 538 393 548 436 q 509 304 528 350 q 461 215 489 258 q 399 133 433 171 q 325 65 364 94 q 243 19 286 36 q 156 3 200 3 q 95 14 120 3 q 56 47 70 26 q 38 97 42 68 q 37 159 33 125 q 52 229 41 193 q 81 304 63 266 q 184 511 129 421 q 296 665 238 600 q 411 776 353 731 q 522 849 468 820 q 624 894 576 878 q 709 916 672 909 q 772 924 747 923 q 806 925 797 925 l 800 912 m 173 26 q 259 50 217 26 q 337 114 301 75 q 404 205 374 154 q 456 308 435 255 q 487 411 477 361 q 493 501 497 462 q 470 565 489 541 q 413 590 450 590 q 361 581 386 590 q 311 556 335 572 q 266 519 287 541 q 225 471 244 497 q 182 396 203 435 q 141 313 161 356 q 111 208 121 260 q 105 116 102 156 q 125 51 108 76 q 173 26 141 26 "},"A":{"x_min":35.4375,"x_max":2551.703125,"ha":1951,"o":"m 443 -177 q 268 -152 343 -177 q 143 -84 194 -127 q 66 16 93 -41 q 36 137 40 73 q 51 270 32 202 q 110 403 70 339 q 211 525 150 467 q 353 625 272 582 q 536 694 435 669 q 757 719 637 719 q 910 699 850 719 q 1001 646 970 679 q 1038 572 1032 614 q 1028 488 1044 531 q 979 404 1013 445 q 897 330 945 362 q 790 278 850 297 q 665 258 731 258 q 551 274 596 258 q 482 315 507 289 q 450 373 457 341 q 451 440 443 406 q 478 507 458 474 q 525 566 497 540 q 588 607 553 591 q 660 623 622 623 q 659 620 659 621 q 658 618 658 619 q 594 603 625 618 q 539 563 563 588 q 498 508 515 539 q 476 445 482 477 q 478 381 471 412 q 507 326 485 351 q 568 287 529 302 q 666 272 607 272 q 779 291 725 272 q 878 340 833 310 q 955 409 922 371 q 1003 489 987 448 q 1015 568 1018 529 q 982 638 1011 607 q 898 687 953 668 q 755 705 842 705 q 567 681 655 705 q 404 614 478 656 q 271 517 330 573 q 171 398 212 461 q 106 269 129 336 q 81 140 83 203 q 99 22 79 78 q 162 -75 118 -33 q 276 -141 206 -117 q 442 -166 345 -166 q 641 -131 543 -166 q 833 -38 738 -97 q 863 95 838 26 q 930 232 888 165 q 1028 361 971 299 q 1156 472 1086 422 q 1308 554 1226 521 q 1482 597 1391 587 q 1564 699 1525 650 q 1639 793 1602 748 q 1766 943 1701 870 q 1896 1080 1831 1015 q 2025 1200 1961 1145 q 2150 1298 2089 1255 q 2097 1343 2125 1321 q 2036 1381 2070 1365 q 1960 1409 2002 1398 q 1867 1420 1919 1420 q 1780 1406 1819 1420 q 1711 1372 1741 1393 q 1661 1323 1681 1350 q 1632 1267 1641 1295 q 1626 1210 1624 1238 q 1644 1161 1629 1183 q 1686 1127 1659 1140 q 1756 1114 1714 1114 q 1827 1129 1795 1114 q 1881 1166 1858 1145 q 1918 1209 1904 1188 q 1939 1239 1933 1229 l 1945 1239 q 1895 1172 1925 1201 q 1867 1147 1882 1159 q 1832 1126 1851 1135 q 1791 1110 1813 1116 q 1743 1105 1769 1105 q 1672 1119 1700 1105 q 1628 1156 1644 1133 q 1611 1208 1613 1179 q 1619 1269 1609 1238 q 1650 1329 1629 1299 q 1703 1381 1671 1358 q 1777 1418 1735 1404 q 1871 1433 1819 1433 q 1976 1422 1931 1433 q 2056 1394 2021 1412 q 2117 1354 2091 1377 q 2167 1309 2144 1332 q 2316 1392 2245 1363 q 2445 1422 2386 1422 q 2516 1403 2491 1422 q 2548 1359 2541 1385 q 2546 1301 2555 1332 q 2512 1242 2536 1269 q 2451 1198 2488 1216 q 2366 1180 2414 1180 q 2307 1188 2334 1180 q 2257 1211 2281 1196 q 2038 809 2131 991 q 1882 478 1946 627 q 1919 382 1911 434 q 1917 274 1926 329 q 1886 164 1908 219 q 1836 61 1865 109 q 1774 -25 1807 12 q 1711 -86 1741 -63 q 1708 -204 1704 -153 q 1725 -292 1712 -254 q 1855 -249 1792 -270 q 1973 -211 1919 -228 q 2071 -184 2027 -195 q 2145 -174 2115 -174 q 2208 -185 2186 -174 q 2236 -215 2230 -196 q 2232 -258 2241 -234 q 2201 -308 2222 -282 q 2147 -357 2179 -333 q 2077 -400 2116 -381 q 1992 -430 2037 -419 q 1900 -442 1947 -442 q 1751 -410 1807 -442 q 1669 -321 1695 -378 q 1504 -362 1587 -343 q 1340 -388 1421 -380 q 1184 -393 1259 -397 q 1045 -367 1109 -390 q 932 -301 982 -345 q 853 -187 883 -258 q 837 -129 842 -159 q 832 -65 832 -99 q 639 -147 736 -118 q 443 -177 542 -177 m 845 -59 q 850 -126 844 -94 q 870 -187 856 -158 q 929 -275 895 -238 q 1006 -335 963 -312 q 1097 -372 1048 -359 q 1200 -387 1146 -384 q 1312 -385 1254 -390 q 1428 -369 1369 -380 q 1546 -344 1487 -359 q 1664 -311 1606 -328 q 1643 -220 1647 -270 q 1647 -111 1640 -169 q 1670 12 1654 -53 q 1711 147 1687 77 q 1765 290 1735 217 q 1829 438 1795 363 q 1781 496 1809 470 q 1718 542 1754 523 q 1640 572 1683 561 q 1548 583 1597 583 q 1443 461 1497 522 q 1332 341 1389 400 q 1216 225 1275 281 q 1096 117 1157 168 q 972 21 1035 66 q 845 -59 910 -23 m 1691 756 q 1629 679 1660 718 q 1563 600 1597 640 q 1665 592 1619 599 q 1747 573 1711 585 q 1812 543 1784 560 q 1861 504 1840 525 q 1962 705 1910 605 q 2067 897 2015 805 q 2165 1070 2118 989 q 2248 1215 2211 1151 q 2210 1244 2229 1228 q 2174 1276 2192 1259 q 1950 1057 2071 1190 q 1691 756 1829 925 m 1466 577 q 1311 533 1386 565 q 1169 453 1236 500 q 1047 348 1103 406 q 948 227 990 290 q 880 97 906 163 q 847 -30 853 31 q 1017 96 933 24 q 1178 247 1100 167 q 1328 411 1256 327 q 1466 577 1401 495 m 1907 -431 q 2008 -414 1959 -431 q 2096 -372 2056 -397 q 2163 -316 2136 -346 q 2199 -261 2190 -287 q 2193 -218 2207 -235 q 2137 -202 2180 -202 q 2065 -211 2107 -202 q 1969 -234 2022 -220 q 1855 -267 1916 -249 q 1729 -304 1794 -285 q 1764 -367 1743 -342 q 1810 -406 1786 -392 q 1859 -425 1834 -420 q 1907 -431 1885 -431 m 2444 1415 q 2369 1400 2410 1415 q 2316 1310 2341 1354 q 2265 1223 2290 1267 q 2312 1203 2287 1211 q 2371 1196 2337 1196 q 2453 1212 2419 1196 q 2509 1252 2488 1228 q 2536 1305 2529 1277 q 2535 1358 2542 1333 q 2504 1398 2527 1382 q 2444 1415 2481 1415 m 1850 399 q 1755 128 1788 246 q 1712 -76 1723 11 q 1810 40 1772 -21 q 1864 164 1847 101 q 1876 286 1880 226 q 1850 399 1872 347 m 2188 1288 q 2221 1257 2204 1272 q 2256 1229 2237 1242 q 2311 1329 2289 1288 q 2337 1387 2332 1369 q 2266 1346 2303 1371 q 2188 1288 2229 1322 m 659 618 l 658 618 q 659 618 658 617 "},"n":{"x_min":-81.671875,"x_max":403.359375,"ha":357,"o":"m -6 0 l -81 0 l 120 388 l 196 388 l 141 281 q 179 324 160 305 q 218 358 199 344 q 254 380 237 372 q 286 388 272 388 q 319 379 306 388 q 333 349 332 371 q 323 290 335 327 q 280 194 311 252 q 260 158 272 179 q 238 117 248 137 q 223 78 228 96 q 224 50 218 60 q 236 50 227 45 q 258 67 245 56 q 285 95 270 79 q 316 129 301 111 q 397 227 352 171 l 403 217 q 311 108 355 156 q 272 68 292 87 q 233 33 252 48 q 197 8 214 17 q 167 -1 180 -1 q 149 7 155 -1 q 144 29 144 15 q 148 60 144 42 q 160 96 153 77 q 203 194 175 139 q 233 258 221 227 q 253 310 246 288 q 258 345 259 332 q 246 359 256 359 q 222 350 237 359 q 191 325 208 341 q 155 287 173 309 q 118 239 136 265 l -6 0 "},"O":{"x_min":-25.296875,"x_max":1280.9375,"ha":880,"o":"m 1075 1426 q 1193 1405 1147 1429 q 1259 1336 1238 1382 q 1280 1227 1281 1291 q 1261 1086 1280 1163 q 1207 920 1242 1008 q 1125 740 1172 833 q 1018 552 1077 647 q 895 366 960 457 q 760 189 830 274 q 618 29 690 103 q 626 29 620 29 q 677 38 650 29 q 731 65 703 48 q 784 102 758 81 q 835 144 811 122 q 948 259 892 194 l 955 250 q 842 134 900 185 q 790 92 817 113 q 734 55 762 71 q 677 29 706 39 q 622 19 649 19 q 615 19 618 19 q 608 20 612 19 q 486 -94 547 -42 q 366 -184 425 -146 q 254 -244 308 -222 q 152 -268 200 -265 q 28 -227 71 -271 q -22 -104 -13 -182 q -10 81 -31 -25 q 55 309 10 188 q 165 558 100 430 q 312 809 231 687 q 485 1042 392 932 q 676 1236 578 1152 q 876 1370 775 1319 q 1075 1426 977 1421 m 825 481 q 863 471 851 481 q 880 447 876 462 q 880 412 883 431 q 868 372 876 392 q 980 550 927 460 q 1076 729 1032 640 q 1152 902 1120 817 q 1203 1061 1185 986 q 1223 1198 1221 1135 q 1208 1305 1226 1260 q 1153 1376 1191 1351 q 1052 1401 1115 1401 q 880 1355 968 1401 q 704 1231 792 1310 q 533 1048 617 1153 q 375 827 449 944 q 239 585 301 709 q 133 344 177 461 q 68 122 90 226 q 50 -60 45 17 q 90 -184 55 -138 q 195 -230 125 -230 q 283 -211 236 -230 q 380 -159 330 -193 q 484 -79 431 -126 q 592 24 538 -32 q 560 59 570 34 q 550 118 550 84 q 562 192 551 152 q 591 272 572 232 q 634 350 609 313 q 690 417 660 388 q 755 463 720 446 q 825 481 789 481 m 602 35 q 712 161 658 94 q 820 302 767 229 q 838 332 828 316 q 855 367 847 349 q 867 401 863 385 q 868 431 871 418 q 854 453 866 445 q 820 461 843 461 q 766 445 793 461 q 715 402 740 428 q 667 340 690 375 q 628 268 645 306 q 598 194 610 231 q 582 125 586 156 q 583 69 578 93 q 602 35 587 45 "},"3":{"x_min":-159.671875,"x_max":583.40625,"ha":493,"o":"m 242 316 q 232 298 241 306 q 212 291 223 291 q 197 297 203 291 q 155 351 162 319 q 160 417 147 383 q 204 485 173 451 q 277 545 235 519 q 370 589 320 572 q 475 606 421 606 q 540 589 515 606 q 575 545 564 572 q 582 483 585 518 q 565 413 580 449 q 527 342 551 376 q 469 280 502 307 q 395 236 436 253 q 306 220 353 220 q 362 202 342 220 q 386 155 382 184 q 382 88 391 125 q 351 11 372 50 q 296 -64 329 -27 q 219 -131 262 -102 q 123 -179 176 -161 q 12 -197 71 -197 q -69 -187 -36 -197 q -121 -163 -101 -178 q -149 -129 -141 -148 q -159 -91 -158 -110 q -155 -55 -160 -72 q -143 -25 -151 -37 q -137 -26 -143 -27 q -131 -25 -135 -26 q -142 -104 -150 -70 q -130 -133 -139 -119 q -103 -159 -121 -147 q -56 -176 -85 -170 q 14 -183 -27 -183 q 94 -166 53 -183 q 172 -121 135 -149 q 240 -58 210 -94 q 291 13 271 -23 q 319 86 312 50 q 315 149 326 121 q 272 194 303 177 q 183 211 240 211 l 183 218 q 183 224 183 221 q 296 240 245 224 q 388 281 348 255 q 456 339 427 306 q 500 406 484 372 q 522 473 517 440 q 520 531 527 505 q 494 572 513 557 q 445 588 475 588 q 356 573 398 588 q 279 536 313 559 q 220 484 245 513 q 183 426 195 455 q 173 372 171 398 q 197 329 176 346 q 208 338 201 335 q 221 342 214 342 q 238 334 232 342 q 242 316 244 327 m 183 211 l 183 211 q 183 210 183 210 q 183 211 183 210 "},"]":{"x_min":-149.453125,"x_max":498.375,"ha":373,"o":"m 492 688 l 498 687 l 105 -230 l 90 -230 l 91 -229 l -149 -229 l -146 -210 l 98 -210 l 477 673 l 215 673 l 217 689 l 492 689 l 492 688 "},"m":{"x_min":-82.234375,"x_max":570.046875,"ha":524,"o":"m 412 359 q 388 347 402 359 q 356 317 373 336 q 321 271 340 297 q 286 214 303 244 q 281 204 283 209 q 276 194 278 199 l 172 -1 l 93 -1 l 198 194 q 229 258 216 228 q 248 310 242 288 q 253 345 255 332 q 241 359 252 359 q 217 349 232 359 q 185 322 202 339 q 148 280 167 304 q 112 229 130 257 l 138 279 q 176 323 157 302 q 214 357 195 343 q 250 379 233 371 q 281 388 267 388 q 309 382 297 388 q 326 362 321 376 q 328 324 331 348 q 309 264 324 301 q 346 314 327 291 q 384 353 365 336 q 420 378 402 369 q 452 388 437 388 q 485 379 472 388 q 500 349 498 371 q 490 290 502 327 q 447 194 477 252 q 427 158 439 179 q 405 117 415 137 q 390 78 395 96 q 391 50 385 60 q 403 50 393 45 q 424 67 412 56 q 452 95 437 79 q 483 129 467 111 q 563 227 519 171 l 570 217 q 477 108 522 156 q 438 68 458 87 q 400 33 418 48 q 364 8 381 17 q 334 -1 347 -1 q 316 7 321 -1 q 311 29 311 15 q 315 60 311 42 q 326 96 320 77 q 370 194 341 139 q 400 258 387 227 q 419 310 413 288 q 424 345 426 332 q 412 359 423 359 m -6 0 l -82 0 l 119 388 l 195 388 l 138 279 q 110 238 124 259 q 85 194 96 217 l 92 194 q 102 212 97 203 q 112 229 107 220 l -6 0 "},"9":{"x_min":-226.6875,"x_max":544.140625,"ha":472,"o":"m -220 -302 q -58 -263 -143 -300 q 20 -222 -21 -248 q 107 -159 62 -197 q 200 -69 152 -121 q 297 50 248 -18 q 233 16 265 28 q 170 4 201 4 q 80 30 112 4 q 38 98 48 55 q 36 195 27 140 q 70 305 46 249 q 132 416 95 361 q 216 512 170 470 q 315 581 262 555 q 422 607 367 607 q 484 595 459 607 q 523 561 509 583 q 541 511 537 540 q 542 448 546 482 q 526 377 538 415 q 497 302 515 340 q 394 97 448 185 q 282 -56 339 8 q 167 -166 225 -121 q 56 -240 110 -211 q -45 -284 2 -269 q -130 -306 -92 -299 q -192 -314 -167 -313 q -226 -315 -217 -315 l -220 -302 m 405 583 q 320 559 361 583 q 241 495 278 535 q 174 405 205 456 q 123 302 144 355 q 92 198 102 249 q 86 108 82 148 q 109 44 90 68 q 166 20 128 20 q 218 29 192 20 q 267 53 243 37 q 313 91 291 69 q 354 138 335 112 q 439 298 397 210 q 468 403 458 352 q 473 494 477 454 q 453 559 470 535 q 405 583 437 583 "},"l":{"x_min":-42.21875,"x_max":729.953125,"ha":192,"o":"m 104 224 q 62 142 78 179 q 49 110 55 126 q 40 82 43 95 q 38 60 37 69 q 45 48 38 51 q 63 52 51 46 q 88 70 74 58 q 118 98 102 82 q 151 132 135 114 q 231 226 188 172 l 236 217 q 144 110 182 152 q 76 44 105 68 q 24 10 47 19 q -21 1 1 1 q -37 8 -33 1 q -42 28 -42 16 q -38 56 -42 41 q -28 89 -34 72 q 10 178 -14 128 q 73 295 38 231 q 145 429 107 359 q 225 573 183 499 q 309 720 267 647 q 393 861 351 792 q 475 991 436 930 q 551 1100 515 1051 q 618 1183 587 1149 q 673 1232 649 1217 q 712 1239 697 1247 q 729 1201 731 1230 q 708 1128 727 1172 q 657 1029 690 1084 q 581 910 624 973 q 490 779 539 847 q 388 644 440 712 q 284 510 336 576 q 185 386 232 444 q 143 302 163 342 q 104 224 122 261 m 706 1219 q 675 1211 695 1226 q 630 1163 656 1196 q 571 1083 603 1131 q 504 975 540 1035 q 431 849 469 916 q 355 711 393 782 q 279 567 317 640 q 206 426 241 495 q 300 546 251 483 q 396 671 348 608 q 489 798 444 735 q 573 918 535 861 q 642 1027 612 976 q 691 1117 673 1077 q 714 1183 710 1157 q 706 1219 719 1210 "},"8":{"x_min":-89.140625,"x_max":630.59375,"ha":546,"o":"m 519 603 q 588 586 562 603 q 623 542 613 569 q 629 480 633 515 q 610 409 625 445 q 569 339 595 373 q 512 277 544 304 q 441 233 480 249 q 362 216 403 216 q 403 198 388 216 q 422 151 418 180 q 421 83 427 121 q 397 6 415 46 q 351 -70 380 -32 q 282 -137 322 -108 q 191 -184 242 -166 q 75 -203 139 -203 q -25 -185 11 -203 q -76 -138 -61 -167 q -88 -71 -92 -108 q -66 5 -84 -33 q -20 84 -48 45 q 43 153 8 122 q 117 205 78 185 q 192 229 156 226 q 168 256 176 237 q 161 304 160 276 q 173 364 163 332 q 204 430 184 397 q 254 495 224 464 q 323 549 283 525 q 411 588 362 574 q 519 603 460 603 m 73 -190 q 159 -172 118 -190 q 234 -127 200 -155 q 294 -62 268 -98 q 338 11 321 -26 q 361 85 355 49 q 360 150 367 122 q 334 196 354 178 q 278 213 314 213 q 190 196 233 213 q 110 150 147 178 q 43 85 73 122 q -5 11 13 49 q -31 -62 -24 -26 q -30 -127 -38 -98 q 2 -172 -22 -155 q 73 -190 27 -190 m 320 237 q 395 253 360 237 q 461 293 431 268 q 515 350 492 318 q 553 415 538 381 q 573 480 568 448 q 573 536 579 511 q 550 576 568 561 q 502 592 533 592 q 424 576 462 592 q 353 536 386 561 q 294 480 321 511 q 251 415 268 448 q 227 350 233 381 q 228 293 221 318 q 257 253 235 268 q 320 237 280 237 "},"p":{"x_min":-502.046875,"x_max":381.140625,"ha":334,"o":"m 299 388 q 328 372 319 388 q 336 331 337 357 q 325 269 336 305 q 293 193 314 234 q 235 103 267 145 q 172 36 203 62 q 208 59 190 46 q 245 88 227 73 q 279 120 262 104 q 310 152 295 136 q 375 227 343 188 l 381 217 q 316 143 346 175 q 259 87 285 111 q 210 48 232 64 q 171 23 188 33 q 101 0 130 0 l 97 0 q 73 8 82 0 q 60 33 64 17 l 67 40 q 71 34 68 36 q 77 30 73 32 q 87 28 81 28 q 112 42 97 28 q 144 77 127 55 q 180 129 161 99 q 216 193 198 159 q 246 258 233 227 q 266 310 260 288 q 270 345 272 332 q 258 359 269 359 q 230 345 248 359 q 191 310 212 332 q 149 258 171 288 q 110 194 128 227 l 110 193 l -380 -744 q -412 -793 -396 -771 q -426 -811 -418 -803 q -442 -827 -434 -820 q -459 -838 -451 -834 q -476 -843 -468 -843 q -501 -824 -497 -843 q -495 -774 -504 -805 q -467 -701 -486 -743 q -424 -613 -448 -659 q -373 -519 -400 -567 q -323 -426 -347 -471 q -277 -340 -306 -393 q -213 -224 -248 -288 q -140 -90 -178 -161 q -63 47 -101 -20 q 126 389 25 207 l 202 389 q 152 315 183 364 q 83 201 121 266 q 0 58 44 136 q -89 -101 -43 -19 q -181 -268 -135 -184 q -267 -430 -226 -352 q -342 -575 -308 -507 q -401 -693 -377 -643 q -436 -772 -425 -743 q -443 -801 -448 -801 q -430 -792 -438 -801 q -409 -762 -422 -783 q -376 -706 -396 -741 q -328 -617 -356 -671 q -260 -491 -299 -564 q -170 -320 -222 -417 q -54 -100 -119 -223 q 92 175 11 22 q 97 184 95 179 q 102 194 99 189 q 149 269 123 234 q 202 331 175 305 q 254 372 228 357 q 299 388 279 388 "},"4":{"x_min":-86.671875,"x_max":611.15625,"ha":473,"o":"m 113 -217 l 227 0 l -86 0 l -78 24 q 48 81 -13 45 q 168 159 111 116 q 279 250 226 202 q 376 346 331 298 q 458 437 421 393 q 522 516 495 481 l 586 603 l 611 603 l 306 20 l 392 20 l 389 0 l 296 0 l 182 -217 l 113 -217 m 423 373 q 348 292 386 330 q 275 221 311 254 q 205 160 238 188 q 141 110 171 133 q 9 20 72 58 l 238 20 l 423 373 "},"R":{"x_min":18.140625,"x_max":2353.5,"ha":1842,"o":"m 1157 352 q 974 384 1048 352 q 861 470 901 416 q 815 595 821 524 q 834 746 808 667 q 890 860 855 808 q 972 953 926 911 q 1075 1028 1019 995 q 1191 1087 1131 1061 q 1315 1132 1252 1112 q 1441 1167 1379 1151 q 1562 1193 1503 1182 q 1672 1215 1621 1205 q 1684 1217 1679 1216 q 1696 1219 1690 1218 q 1767 1292 1731 1258 q 1838 1348 1802 1325 q 1907 1385 1873 1372 q 1975 1399 1942 1399 q 2009 1390 1998 1399 q 2016 1366 2020 1381 q 1995 1332 2013 1351 q 1942 1294 1976 1314 q 1856 1254 1907 1274 q 1736 1219 1805 1235 q 1650 1091 1695 1164 q 1554 926 1606 1018 q 1641 1024 1592 976 q 1745 1112 1689 1073 q 1864 1175 1801 1151 q 1996 1199 1927 1199 q 2080 1177 2047 1199 q 2129 1120 2113 1156 q 2146 1036 2145 1083 q 2133 935 2146 988 q 2093 827 2120 882 q 2029 722 2067 772 q 1943 629 1991 672 q 1837 558 1895 586 q 1715 518 1780 529 q 1580 520 1651 507 q 1636 476 1612 503 q 1677 417 1660 450 q 1706 344 1695 383 q 1726 260 1718 304 q 1741 170 1735 217 q 1752 76 1747 124 q 1813 143 1785 110 q 1862 201 1841 175 q 1906 257 1886 231 l 1911 250 q 1866 192 1891 223 q 1816 131 1845 165 q 1754 61 1787 96 q 1766 -31 1760 14 q 1782 -120 1773 -76 q 1805 -204 1792 -164 q 1838 -279 1819 -244 q 1937 -239 1889 -258 q 2030 -207 1986 -220 q 2112 -185 2074 -193 q 2181 -177 2150 -177 q 2289 -196 2249 -177 q 2344 -246 2329 -216 q 2350 -310 2359 -276 q 2311 -374 2341 -344 q 2230 -424 2280 -404 q 2112 -444 2180 -444 q 2009 -435 2055 -444 q 1924 -409 1962 -426 q 1857 -369 1886 -392 q 1804 -316 1827 -345 q 1690 -367 1748 -341 q 1573 -418 1631 -393 q 1457 -463 1515 -442 q 1346 -498 1400 -484 q 1243 -519 1292 -512 q 1150 -522 1193 -526 q 1072 -503 1107 -519 q 1012 -457 1037 -487 q 962 -364 973 -411 q 957 -274 950 -317 q 988 -193 965 -231 q 1046 -126 1012 -154 q 1120 -79 1080 -97 q 1200 -57 1160 -61 q 1278 -67 1241 -54 q 1343 -114 1315 -81 q 1364 -162 1360 -136 q 1356 -217 1367 -189 q 1321 -273 1345 -246 q 1260 -323 1297 -301 l 1260 -317 q 1301 -285 1280 -306 q 1337 -236 1323 -264 q 1350 -177 1350 -209 q 1326 -114 1350 -146 q 1271 -77 1303 -86 q 1203 -74 1238 -68 q 1131 -100 1167 -81 q 1063 -147 1095 -119 q 1009 -211 1032 -176 q 977 -285 986 -246 q 976 -363 968 -323 q 1015 -440 984 -403 q 1094 -490 1045 -477 q 1203 -498 1142 -503 q 1336 -473 1265 -493 q 1483 -425 1407 -453 q 1637 -364 1559 -397 q 1791 -299 1715 -331 q 1753 -233 1769 -268 q 1726 -160 1737 -198 q 1707 -81 1715 -122 q 1694 0 1699 -41 q 1635 -50 1665 -26 q 1576 -93 1605 -75 q 1519 -123 1547 -112 q 1465 -134 1491 -134 q 1398 -122 1422 -136 q 1365 -87 1374 -108 q 1360 -40 1356 -66 q 1378 8 1364 -14 q 1412 48 1391 31 q 1458 69 1434 65 q 1467 70 1463 70 q 1485 64 1478 71 q 1490 46 1491 56 q 1479 27 1488 35 q 1460 19 1471 20 q 1444 26 1450 19 q 1438 42 1437 32 q 1403 25 1419 39 q 1379 -4 1388 12 q 1370 -41 1371 -22 q 1380 -76 1370 -60 q 1412 -102 1390 -92 q 1471 -111 1434 -112 q 1522 -99 1495 -110 q 1578 -71 1550 -89 q 1635 -31 1606 -54 q 1692 17 1664 -8 q 1680 139 1685 78 q 1670 255 1676 199 q 1654 360 1664 311 q 1627 446 1645 409 q 1581 506 1609 483 q 1511 535 1554 530 l 1517 542 q 1548 534 1534 539 q 1664 528 1606 519 q 1775 564 1721 537 q 1877 632 1829 591 q 1965 722 1925 673 q 2036 825 2005 771 q 2087 931 2067 879 q 2111 1030 2106 983 q 2107 1113 2117 1077 q 2069 1169 2096 1148 q 1994 1191 2041 1191 q 1881 1170 1936 1191 q 1775 1115 1826 1149 q 1680 1038 1725 1082 q 1595 948 1634 994 q 1525 857 1556 902 q 1470 775 1493 812 q 1462 760 1466 768 q 1453 744 1457 752 q 1485 676 1474 714 q 1494 599 1496 639 q 1478 521 1493 560 q 1433 450 1464 483 q 1357 393 1403 417 q 1245 359 1310 369 q 1154 199 1200 274 q 1057 58 1108 123 q 948 -57 1006 -5 q 821 -144 890 -108 q 668 -200 751 -181 q 483 -220 585 -220 q 286 -196 370 -220 q 146 -132 202 -172 q 58 -38 89 -92 q 20 76 27 15 q 27 200 13 136 q 76 325 42 265 q 163 440 110 386 q 283 534 215 493 q 435 598 352 574 q 612 621 517 621 l 611 617 q 441 594 520 617 q 300 531 363 571 q 190 438 237 491 q 113 326 142 386 q 72 204 83 267 q 69 82 61 142 q 107 -29 78 23 q 188 -121 136 -82 q 314 -184 239 -161 q 487 -207 388 -207 q 637 -192 570 -207 q 763 -146 705 -177 q 872 -69 822 -115 q 971 38 923 -23 q 1067 179 1020 101 q 1167 352 1115 257 l 1157 352 m 1272 547 q 1293 588 1281 563 q 1321 643 1305 612 q 1357 709 1337 674 q 1399 784 1376 745 q 1355 808 1379 799 q 1302 817 1331 817 q 1252 812 1274 817 q 1212 798 1230 807 q 1182 779 1195 790 q 1160 758 1169 769 q 1128 699 1137 732 l 1126 701 q 1155 763 1133 736 q 1177 786 1164 775 q 1209 806 1191 797 q 1250 820 1227 815 q 1304 825 1273 825 q 1358 817 1332 825 q 1404 794 1383 808 q 1466 899 1433 844 q 1535 1007 1499 953 q 1609 1112 1571 1060 q 1687 1209 1647 1163 q 1680 1207 1683 1208 q 1673 1206 1676 1207 q 1564 1185 1622 1197 q 1447 1159 1507 1174 q 1326 1124 1387 1143 q 1209 1078 1266 1104 q 1100 1019 1152 1052 q 1005 946 1048 987 q 930 855 962 905 q 881 744 898 804 q 863 624 862 678 q 878 527 863 570 q 921 453 893 484 q 986 400 949 421 q 1067 370 1023 380 q 1158 359 1111 359 l 1171 359 q 1220 449 1195 403 q 1272 547 1245 496 m 2122 -432 q 2217 -414 2176 -432 q 2284 -368 2259 -396 q 2316 -309 2309 -341 q 2312 -249 2324 -277 q 2266 -204 2300 -222 q 2175 -186 2232 -186 q 2113 -194 2148 -186 q 2035 -218 2077 -203 q 1946 -253 1994 -233 q 1848 -296 1899 -273 q 1893 -352 1867 -327 q 1952 -395 1919 -377 q 2028 -422 1986 -413 q 2122 -432 2070 -432 m 1251 369 q 1340 404 1301 381 q 1405 457 1378 427 q 1447 523 1431 487 q 1466 594 1462 558 q 1465 665 1471 630 q 1445 729 1460 700 q 1393 635 1420 683 q 1338 535 1366 587 q 1294 450 1315 491 q 1251 369 1272 409 m 1967 1381 q 1856 1344 1910 1381 q 1745 1230 1802 1306 q 1888 1279 1832 1252 q 1971 1328 1944 1305 q 1996 1366 1997 1350 q 1967 1381 1995 1381 "},"o":{"x_min":-8.34375,"x_max":365.03125,"ha":300,"o":"m 365 244 q 323 192 346 217 q 278 149 304 171 q 222 113 252 126 q 181 66 203 87 q 138 29 160 45 q 95 6 116 14 q 55 -2 73 -2 q 13 13 29 -2 q -6 55 -1 28 q -4 117 -11 81 q 20 193 2 152 q 65 269 38 234 q 121 331 91 305 q 180 373 150 358 q 236 389 210 389 q 277 373 262 389 q 298 331 293 358 q 296 269 302 305 q 270 193 289 234 q 253 161 262 176 q 235 130 245 145 q 283 164 261 144 q 321 204 305 185 q 356 249 340 226 l 365 244 m 89 28 q 145 49 115 28 q 204 106 175 70 q 199 104 201 105 q 194 103 197 104 q 157 102 172 98 q 135 116 143 106 q 127 139 128 125 q 131 166 126 152 q 147 191 136 179 q 174 209 158 203 q 190 214 181 214 q 207 206 201 214 q 211 188 213 199 q 200 170 209 178 q 181 163 191 163 q 161 175 166 163 q 147 151 151 164 q 147 128 143 138 q 162 113 151 118 q 192 113 173 108 q 215 120 202 115 q 241 159 228 139 q 263 203 253 180 q 285 266 279 236 q 289 319 291 296 q 276 356 286 343 q 248 370 266 370 q 209 357 230 370 q 166 323 187 345 q 124 272 144 301 q 88 210 103 243 q 61 137 70 170 q 52 79 52 103 q 62 41 53 55 q 89 28 71 28 "},"5":{"x_min":-116.125,"x_max":636.71875,"ha":503,"o":"m 273 601 l 636 601 l 633 584 l 330 584 l 210 341 q 403 329 328 353 q 461 299 436 318 q 498 247 487 279 q 503 168 510 215 q 462 56 496 121 q 384 -61 426 -12 q 296 -143 342 -110 q 205 -193 251 -176 q 114 -216 158 -211 q 31 -217 71 -222 q -38 -199 -7 -212 q -89 -168 -68 -186 q -116 -126 -110 -149 l -104 -121 q -74 -164 -95 -145 q -26 -194 -57 -180 q 55 -207 5 -207 q 134 -192 94 -207 q 213 -151 175 -177 q 287 -90 252 -125 q 351 -17 322 -56 q 401 62 380 21 q 432 141 422 103 q 439 215 442 180 q 419 275 437 249 q 366 317 401 302 q 276 332 331 332 q 212 324 242 332 q 160 308 182 317 q 111 285 133 298 l 273 601 "}}}
